<?xml version="1.0" encoding="UTF-8"?>
<svg version="1.1" xmlns="http://www.w3.org/2000/svg" width="500" height="500">
<path d="M0 0 C165 0 330 0 500 0 C500 165 500 330 500 500 C335 500 170 500 0 500 C0 335 0 170 0 0 Z " fill="#F0F0F0" transform="translate(0,0)"/>
<path d="M0 0 C165 0 330 0 500 0 C500 165 500 330 500 500 C335 500 170 500 0 500 C0 335 0 170 0 0 Z M315 18 C313.40927076 22.62830265 313.65893543 27.94455054 313.4375 32.8125 C313.39431641 33.69615234 313.35113281 34.57980469 313.30664062 35.49023438 C313.20108464 37.65999623 313.10008929 39.8299791 313 42 C312.11957031 42.32613281 311.23914063 42.65226562 310.33203125 42.98828125 C308.58986328 43.64376953 308.58986328 43.64376953 306.8125 44.3125 C305.66394531 44.74175781 304.51539063 45.17101563 303.33203125 45.61328125 C300.34143023 46.85790418 297.71992131 48.25330854 295 50 C294.19175781 49.25234375 293.38351562 48.5046875 292.55078125 47.734375 C291.47143316 46.73949763 290.39200163 45.74471077 289.3125 44.75 C288.51682617 44.01330078 288.51682617 44.01330078 287.70507812 43.26171875 C286.64598548 42.28709362 285.57971188 41.32021321 284.50634766 40.36132812 C283.173177 39.15650485 281.88544884 37.90181256 280.60546875 36.640625 C277.73089344 34.8305476 275.61470022 34.39188646 272.22602844 34.47674561 C267.58028537 35.56878263 264.58343835 39.28375151 261.34375 42.59375 C260.55601196 43.37383423 259.76827393 44.15391846 258.95666504 44.9576416 C257.29980098 46.60907197 255.65295607 48.27060772 254.015625 49.94140625 C251.50806947 52.4917927 248.96071689 54.99670117 246.40625 57.5 C244.79951206 59.11202458 243.19525764 60.72652914 241.59375 62.34375 C240.83139038 63.08991577 240.06903076 63.83608154 239.28356934 64.6048584 C234.76623816 69.23600639 234.76623816 69.23600639 233.42919922 75.35717773 C234.06712779 79.42840625 235.07556049 81.3589908 237.625 84.5625 C238.34816406 85.49449219 239.07132813 86.42648438 239.81640625 87.38671875 C241.67634693 89.6126585 243.59259947 91.74750743 245.5625 93.875 C248 97 248 97 247.77734375 99.3359375 C246.94619467 102.18439816 246.02378033 104.96471527 245 107.75 C244.649375 108.71421875 244.29875 109.6784375 243.9375 110.671875 C243 113 243 113 242 114 C240.41320309 114.12092377 238.82155746 114.17957324 237.23046875 114.2109375 C236.25916016 114.23929687 235.28785156 114.26765625 234.28710938 114.296875 C232.23259749 114.34865854 230.17788408 114.39301737 228.12304688 114.4296875 C227.14787109 114.460625 226.17269531 114.4915625 225.16796875 114.5234375 C224.27360107 114.54325684 223.3792334 114.56307617 222.45776367 114.58349609 C219.9358091 114.79455723 219.9358091 114.79455723 218.24128437 116.50237274 C215.25596622 118.49716372 213.25731502 118.37628595 209.6816864 118.37854004 C207.73232178 118.39084404 207.73232178 118.39084404 205.74357605 118.40339661 C204.30520523 118.39743816 202.86683548 118.39121907 201.4284668 118.38476562 C199.91215608 118.38887117 198.39584852 118.39433194 196.87954712 118.40104675 C193.6148704 118.41277366 190.35036275 118.41525538 187.08566856 118.41069031 C181.92077888 118.40388223 176.75611166 118.41974665 171.59126282 118.43908691 C160.62335389 118.4769586 149.65546428 118.48974006 138.6875 118.5 C126.85695784 118.51107444 115.02651809 118.52646059 103.19604617 118.57071257 C98.0647725 118.58904944 92.93375294 118.5929679 87.80245435 118.58577728 C84.60518396 118.58425257 81.40804 118.59505762 78.21080399 118.60915565 C76.73180557 118.61314947 75.25278296 118.61204839 73.77379417 118.60538292 C63.86086596 118.56415142 56.42533891 118.77534592 49 126 C44.24712379 132.3794922 44.43719155 138.09285667 44.49879456 145.8671875 C44.49326016 147.16679916 44.48772576 148.46641083 44.48202366 149.80540466 C44.46729237 153.4019264 44.47743606 156.99800927 44.49176037 160.59451675 C44.50287965 164.47733952 44.49092441 168.3601012 44.48191833 172.24291992 C44.46799035 179.84508119 44.47553876 187.44707628 44.49059392 195.04922962 C44.50746054 203.90337489 44.50424292 212.75747884 44.50049984 221.61163521 C44.49462206 237.41039454 44.50878958 253.20907417 44.53344727 269.0078125 C44.55736779 284.3359679 44.56445141 299.66401679 44.55395508 314.9921875 C44.54254405 331.686006 44.5406181 348.37977524 44.55505317 365.07359314 C44.556579 366.85391235 44.55809936 368.63423156 44.55961418 370.41455078 C44.560372 371.29048795 44.56112981 372.16642511 44.56191059 373.06890583 C44.56665199 379.23979232 44.564803 385.41065681 44.56054878 391.58154297 C44.55562052 399.10242867 44.56161361 406.62321369 44.58144308 414.14407635 C44.59131019 417.9808954 44.59642651 421.81756121 44.58855057 425.65438843 C44.58018676 429.81400824 44.59508276 433.97322007 44.61231995 438.1328125 C44.6063099 439.34496933 44.60029986 440.55712616 44.59410769 441.80601501 C44.65199802 449.46995535 45.14270143 454.76674109 50.375 460.6875 C56.48368998 466.06896498 59.60861611 468.11998513 67.7741642 468.13422108 C68.9603159 468.13867892 70.1464676 468.14313676 71.36856329 468.14772969 C72.67301315 468.14754533 73.97746301 468.14736097 75.32144165 468.14717102 C76.72020011 468.1504708 78.11895761 468.15419661 79.5177139 468.1583125 C83.36590691 468.16832769 87.21408433 468.17204852 91.06228852 468.17470181 C95.21105757 468.17860628 99.35981427 468.18818452 103.50857544 468.19691467 C113.53002904 468.21667496 123.55148364 468.22674471 133.57295185 468.23564246 C138.29263726 468.24002605 143.01232155 468.24539267 147.73200607 468.25063133 C163.42196482 468.26764312 179.11192287 468.28213724 194.80188942 468.28938007 C198.87329738 468.29128996 202.94470534 468.29321029 207.01611328 468.29516602 C208.53399915 468.29589163 208.53399915 468.29589163 210.08254938 468.2966319 C226.47468547 468.30493203 242.86674857 468.33026889 259.25885279 468.36274669 C276.08943388 468.39582131 292.91997788 468.4138292 309.75059164 468.41702431 C319.19988936 468.41918903 328.64908066 468.42793205 338.09834671 468.45348549 C346.14585592 468.47519797 354.19323285 468.4832402 362.24076803 468.47351871 C366.3453282 468.4689756 370.44961548 468.47086071 374.55413818 468.49028015 C378.31595038 468.50792411 382.07729086 468.50690446 385.83910815 468.49138286 C387.83575219 468.48788877 389.83240124 468.50402388 391.82897627 468.52098733 C400.2470405 468.46088198 407.63114818 467.44535469 414.40234375 462.10546875 C415.16224609 461.15607422 415.16224609 461.15607422 415.9375 460.1875 C416.46214844 459.56230469 416.98679687 458.93710937 417.52734375 458.29296875 C421.24625806 452.50251065 422.43815979 447.79429917 422.20358276 440.95040894 C422.18976818 440.16859666 422.1759536 439.38678438 422.1617204 438.58128083 C422.11268037 435.97539904 422.0420961 433.37053477 421.97216797 430.76513672 C421.93368044 428.89003408 421.89696808 427.0148943 421.8618927 425.13972473 C421.78558294 421.10403598 421.70251745 417.06855906 421.6159935 413.03307724 C421.48451632 406.62313059 421.40448337 400.21319296 421.33816528 393.80227661 C421.32685227 392.71700931 421.31553926 391.63174202 421.30388343 390.51358783 C421.25804654 386.03591473 421.21372164 381.55822723 421.16953635 377.08053756 C421.04196732 364.4231321 420.86701744 351.77040693 420.54980469 339.11621094 C420.29770874 329.04549601 420.15182263 318.979211 420.1244117 308.90530026 C420.10605886 303.58679731 420.03809232 298.28052516 419.84032822 292.96541977 C418.55136322 256.9571761 418.55136322 256.9571761 431.4642607 242.8300072 C436.3928552 237.77394302 441.69854554 233.11358345 447.31424451 228.83342671 C452.19796342 225.1020663 454.64520765 222.27948288 455.59765625 216.16015625 C455.38901963 210.83430051 452.05570647 208.01089896 448.4375 204.4375 C443.73614183 199.7940047 443.73614183 199.7940047 442 197 C442 192.86903712 442.97190178 189.53055229 444.5625 185.75 C445.64876615 183.15127716 446 181.90395347 446 179 C446.59425781 179.02094727 447.18851562 179.04189453 447.80078125 179.06347656 C450.53367705 179.14741854 453.26630057 179.19890281 456 179.25 C457.40185547 179.30027344 457.40185547 179.30027344 458.83203125 179.3515625 C464.78060589 179.43475935 470.34552569 179.08089817 475 175 C478.54538006 169.74887208 478.43812197 164.88831439 478.3984375 158.78125 C478.40130768 157.80514771 478.40417786 156.82904541 478.40713501 155.82336426 C478.40917055 153.76586322 478.40367647 151.7083426 478.39111328 149.65087891 C478.37505267 146.51029997 478.39097964 143.3710079 478.41015625 140.23046875 C478.40817373 138.22655967 478.40432987 136.22265139 478.3984375 134.21875 C478.40754654 132.81695496 478.40754654 132.81695496 478.4168396 131.38684082 C478.36101646 126.18548007 477.94644128 122.47924393 475 118 C469.72319084 114.02990857 463.92895136 114.65388445 457.625 114.8125 C456.60277344 114.82603516 455.58054687 114.83957031 454.52734375 114.85351562 C452.01767951 114.88869783 449.5091191 114.93792461 447 115 C446.85723633 114.2265625 446.71447266 113.453125 446.56738281 112.65625 C445.78604279 108.99834148 444.16293374 105.85804414 442.546875 102.5 C442 100 442 100 443.03515625 97.54296875 C444.92420867 95.09809176 446.9632418 92.95240111 449.17895508 90.80249023 C454.86798793 85.26903897 454.86798793 85.26903897 457.3125 77.9375 C456.22026805 68.87925636 446.50293368 62.21118352 439.94140625 56.68359375 C435.4786146 52.81344647 431.43850579 48.47195942 427.3125 44.25 C421.20543204 38.26040676 421.20543204 38.26040676 413.1328125 36.44921875 C407.44870891 37.91709165 402.70983997 43.36163244 398.5703125 47.328125 C396 49 396 49 393.078125 48.91015625 C389.84462904 47.95405909 386.83509758 46.79788851 383.75 45.4375 C380.00294995 43.63197145 380.00294995 43.63197145 376 43 C376.01740234 42.12601563 376.01740234 42.12601563 376.03515625 41.234375 C376.83325567 27.08572699 376.83325567 27.08572699 371 15 C365.24082117 11.90403334 360.3383939 11.51981786 353.8671875 11.49609375 C352.91232452 11.48610855 351.95746155 11.47612335 350.97366333 11.46583557 C348.9650707 11.45071338 346.9564034 11.44360794 344.94775391 11.4440918 C341.8766775 11.4375036 338.80879037 11.38288766 335.73828125 11.32617188 C333.78126101 11.3173736 331.82422549 11.31141685 329.8671875 11.30859375 C328.95250702 11.2870372 328.03782654 11.26548065 327.09542847 11.24327087 C320.66382609 11.3124632 318.42783856 12.50280913 315 18 Z " fill="#FDFBF9" transform="translate(0,0)"/>
<path d="M0 0 C1.4279892 -0.00574036 1.4279892 -0.00574036 2.88482666 -0.01159668 C4.89881446 -0.014317 6.91283752 -0.00694741 8.92675781 0.00976562 C11.99104941 0.03107907 15.05297109 0.01001698 18.1171875 -0.015625 C20.07813013 -0.0129799 22.0390713 -0.00785115 24 0 C24.90860779 -0.00809692 25.81721558 -0.01619385 26.75335693 -0.02453613 C32.70209961 0.06193578 37.31236985 1.1140822 42.265625 4.53125 C45.08279317 7.97820426 45.68939063 10.82903785 45.953125 15.21875 C46.01757812 16.25902344 46.08203125 17.29929687 46.1484375 18.37109375 C46.31123356 22.76116085 46.35307746 27.1391929 46.265625 31.53125 C46.91789062 31.71300781 47.57015625 31.89476563 48.2421875 32.08203125 C52.24820985 33.23420582 55.8784352 34.3266969 59.578125 36.28125 C62.86797944 37.81141486 63.84763428 37.62082783 67.265625 36.53125 C70.12864763 34.54512406 70.12864763 34.54512406 72.890625 32.09375 C80.47540886 25.62070843 80.47540886 25.62070843 84.578125 25.15625 C88.95593447 25.60145096 90.82931385 26.84196301 94.265625 29.53125 C95.4721875 30.3975 95.4721875 30.3975 96.703125 31.28125 C99.55418703 33.78462154 101.91749942 36.51052015 104.3828125 39.38671875 C108.75180295 44.363017 113.49075942 48.91172236 118.515625 53.21875 C126.43056775 60.1676958 126.43056775 60.1676958 127.328125 65.96875 C127.15338074 73.22063681 121.06188036 77.7848847 116.20703125 82.52734375 C115.66763916 83.03450928 115.12824707 83.5416748 114.57250977 84.06420898 C113.01859816 85.61413885 113.01859816 85.61413885 112.265625 88.53125 C112.98856669 90.91227922 112.98856669 90.91227922 114.140625 93.40625 C115.62385577 96.7979735 116.58652541 99.89598055 117.265625 103.53125 C117.90064941 103.51553955 118.53567383 103.4998291 119.18994141 103.48364258 C122.0900773 103.4209641 124.99007024 103.38215583 127.890625 103.34375 C128.88964844 103.31861328 129.88867188 103.29347656 130.91796875 103.26757812 C140.79730599 103.16943901 140.79730599 103.16943901 145.265625 106.53125 C148.76170297 111.84606356 148.70396221 116.60981153 148.6640625 122.75 C148.66693268 123.72610229 148.66980286 124.70220459 148.67276001 125.70788574 C148.67479555 127.76538678 148.66930147 129.8229074 148.65673828 131.88037109 C148.64067767 135.02095003 148.65660464 138.1602421 148.67578125 141.30078125 C148.67379873 143.30469033 148.66995487 145.30859861 148.6640625 147.3125 C148.67013519 148.24703003 148.67620789 149.18156006 148.6824646 150.14440918 C148.62680716 155.3303309 148.2598354 159.09646965 145.265625 163.53125 C139.84864361 168.28069064 133.07436559 168.02542552 126.265625 167.78125 C125.30011719 167.76320312 124.33460938 167.74515625 123.33984375 167.7265625 C120.98070467 167.67984687 118.62371425 167.61437137 116.265625 167.53125 C116.13502686 168.1490332 116.00442871 168.76681641 115.86987305 169.40332031 C115.69496338 170.21381836 115.52005371 171.02431641 115.33984375 171.859375 C115.16799561 172.6627832 114.99614746 173.46619141 114.8190918 174.29394531 C114.265625 176.53125 114.265625 176.53125 113.078125 179.28125 C112.01906816 182.21402278 112.34872025 183.55456871 113.265625 186.53125 C115.2139932 189.14088514 115.2139932 189.14088514 117.640625 191.59375 C125.10913608 199.48799054 125.10913608 199.48799054 125.828125 204.28125 C125.55904836 209.59879881 122.82121116 212.7455408 119.265625 216.53125 C117.22395839 218.19809929 115.17177136 219.81904516 113.08296204 221.42346191 C102.46816114 229.80385074 92.89214038 238.34380151 90.96054077 252.32495117 C89.84585816 262.91395806 90.22579286 273.59355853 90.59211135 284.21434975 C90.74735932 289.57805407 90.74719322 294.94189042 90.76374817 300.30749512 C90.81696556 310.43748613 90.99776821 320.56063401 91.23045665 330.68793249 C91.56671505 345.56278593 91.71506739 360.43982144 91.8547945 375.31763458 C91.87569296 377.5205538 91.89661353 379.72347281 91.91755676 381.9263916 C91.9274947 383.00218365 91.93743263 384.0779757 91.94767171 385.18636751 C92.0108833 391.54890747 92.11382267 397.90922192 92.25286043 404.27054787 C92.33646455 408.22267612 92.40076505 412.17498767 92.46193695 416.12751961 C92.49508381 417.95217261 92.53717726 419.77668958 92.58911324 421.60090446 C92.88444639 432.08295907 93.02556144 441.22920253 85.53807354 449.42139435 C77.79249865 456.98325443 68.67368613 456.96507644 58.44297791 456.91220093 C57.03862649 456.91566092 55.6342778 456.92042778 54.22993475 456.92638266 C50.38491429 456.93887532 46.54011798 456.93273027 42.69509685 456.92342401 C38.54303862 456.91662678 34.39101851 456.92711804 30.2389679 456.93536377 C22.11092095 456.94869576 13.98295716 456.94582585 5.85490697 456.93712585 C-0.75097083 456.93034808 -7.35682534 456.92943298 -13.96270561 456.9326973 C-14.90322345 456.933157 -15.8437413 456.93361669 -16.81275968 456.93409032 C-18.72344729 456.93504951 -20.6341349 456.93602215 -22.54482251 456.9370081 C-40.45623528 456.94556031 -58.36760197 456.93573026 -76.27900719 456.919607 C-91.64672122 456.90620179 -107.01436727 456.90853391 -122.38208008 456.92236328 C-140.23136926 456.93841831 -158.08061807 456.94473865 -175.92991346 456.93552649 C-177.83322902 456.93457085 -179.73654458 456.93362774 -181.63986015 456.9326973 C-182.57631276 456.93223447 -183.51276536 456.93177164 -184.47759532 456.93129479 C-191.07579771 456.92870484 -197.6739745 456.93307598 -204.27217293 456.94013596 C-212.31271458 456.94855019 -220.35316837 456.94627233 -228.39369995 456.93029372 C-232.4958367 456.92241032 -236.59782696 456.91932061 -240.69996262 456.92924118 C-244.45585397 456.93818703 -248.21146317 456.93325719 -251.96732896 456.91730852 C-253.96796748 456.91237537 -255.96862561 456.92215818 -257.96924359 456.93248022 C-265.86334581 456.88072923 -271.32511121 456.54408777 -277.421875 451.15625 C-282.66590743 445.20356454 -284.85034146 442.06187911 -284.8741827 434.09787464 C-284.87987394 432.98774094 -284.88556518 431.87760725 -284.89142889 430.73383313 C-284.89260876 429.51430202 -284.89378864 428.2947709 -284.89500427 427.0382843 C-284.90009209 425.74264704 -284.90517991 424.44700979 -284.91042191 423.11211079 C-284.92432025 419.51282656 -284.93190937 415.91355243 -284.9383949 412.3142482 C-284.944769 409.22777546 -284.9548386 406.14131928 -284.96495556 403.05485687 C-284.9982662 392.88716896 -285.01979716 382.71947097 -285.03815541 372.5517464 C-285.04295119 369.9042266 -285.0479344 367.25670721 -285.05296063 364.60918784 C-285.08392961 348.16709334 -285.11061354 331.72499531 -285.12737942 315.28287983 C-285.13132888 311.4751262 -285.13533188 307.66737264 -285.1394043 303.85961914 C-285.14041266 302.91322644 -285.14142102 301.96683375 -285.14245994 300.99176248 C-285.15946835 285.65941607 -285.20058056 270.32723101 -285.25142729 254.99496339 C-285.30320457 239.25259102 -285.33232169 223.51030166 -285.3395763 207.76784486 C-285.34423809 198.92940132 -285.35898459 190.09122214 -285.3993206 181.25286293 C-285.43362948 173.72606783 -285.44755645 166.19958481 -285.43489646 158.672716 C-285.42907173 154.8334399 -285.43291927 150.99482375 -285.4630661 147.15564728 C-285.49551156 142.98969019 -285.48127181 138.8251753 -285.46263123 134.65913391 C-285.47942615 133.4507564 -285.49622108 132.2423789 -285.51352495 130.99738389 C-285.42743463 123.30062754 -283.97144119 118.29229627 -278.734375 112.53125 C-273.67160587 108.05719687 -268.96848328 107.40803216 -262.39587402 107.39321899 C-261.09196213 107.38776566 -259.78805023 107.38231232 -258.44462585 107.37669373 C-257.00149541 107.37557403 -255.55836491 107.37452349 -254.11523438 107.37353516 C-252.59405877 107.36886552 -251.07288456 107.3637217 -249.55171204 107.35813904 C-246.27725862 107.34686883 -243.00281425 107.3384296 -239.72834778 107.33201981 C-234.55173354 107.32133488 -229.37518452 107.30109007 -224.1986084 107.27890015 C-209.47895281 107.21698803 -194.75930161 107.16292428 -180.03955078 107.12988281 C-171.90902227 107.11155215 -163.77860353 107.08263937 -155.64815569 107.0418781 C-151.3455432 107.02078869 -147.04306913 107.00534804 -142.74040222 107.00307083 C-138.69542798 107.00092735 -134.65074233 106.98508899 -130.60585594 106.95868111 C-129.12077105 106.95147624 -127.63565124 106.94939289 -126.15055275 106.95278358 C-124.1246403 106.95667055 -122.09871885 106.94048308 -120.07287598 106.92324829 C-118.93873512 106.91993814 -117.80459427 106.916628 -116.63608551 106.91321754 C-113.40607271 106.48803383 -112.16736312 105.61014362 -109.734375 103.53125 C-107.26074219 103.09887695 -107.26074219 103.09887695 -104.53125 103.01953125 C-103.5515625 102.98408203 -102.571875 102.94863281 -101.5625 102.91210938 C-100.54671875 102.88955078 -99.5309375 102.86699219 -98.484375 102.84375 C-96.9375 102.79250977 -96.9375 102.79250977 -95.359375 102.74023438 C-92.81781688 102.65786907 -90.27659874 102.58868166 -87.734375 102.53125 C-87.09489486 101.25398495 -86.45560956 99.97662236 -85.81640625 98.69921875 C-85.28237183 97.63223755 -85.28237183 97.63223755 -84.73754883 96.54370117 C-81.83359282 90.75988204 -81.83359282 90.75988204 -82.734375 84.53125 C-84.30627603 82.41284574 -85.858295 80.48571323 -87.609375 78.53125 C-96.37239363 68.58130954 -96.37239363 68.58130954 -96.24142456 61.7565918 C-95.18196966 57.1068505 -91.44544728 54.10962209 -88.140625 50.875 C-87.36054077 50.08726196 -86.58045654 49.29952393 -85.7767334 48.48791504 C-84.12530303 46.83105098 -82.46376728 45.18420607 -80.79296875 43.546875 C-78.2425823 41.03931947 -75.73767383 38.49196689 -73.234375 35.9375 C-71.62235042 34.33076206 -70.00784586 32.72650764 -68.390625 31.125 C-67.64445923 30.36264038 -66.89829346 29.60028076 -66.1295166 28.81481934 C-60.17980883 23.07345284 -60.17980883 23.07345284 -55.44067383 22.88330078 C-51.86490957 23.50842945 -50.3648539 23.87919523 -47.77734375 26.3046875 C-47.13990234 26.8821875 -46.50246094 27.4596875 -45.84570312 28.0546875 C-45.21083984 28.66570313 -44.57597656 29.27671875 -43.921875 29.90625 C-42.62460666 31.10254869 -41.32646354 32.29789964 -40.02734375 33.4921875 C-39.4655542 34.02634277 -38.90376465 34.56049805 -38.32495117 35.11083984 C-36.58188029 36.73436689 -36.58188029 36.73436689 -33.734375 38.53125 C-33.02474609 38.04205078 -33.02474609 38.04205078 -32.30078125 37.54296875 C-31.63949219 37.10597656 -30.97820312 36.66898438 -30.296875 36.21875 C-29.33974609 35.57486328 -29.33974609 35.57486328 -28.36328125 34.91796875 C-24.64842433 32.95842313 -20.7366367 31.77456095 -16.734375 30.53125 C-16.68539063 29.24089844 -16.63640625 27.95054688 -16.5859375 26.62109375 C-16.51085697 24.90362653 -16.43531146 23.18617959 -16.359375 21.46875 C-16.3284375 20.62119141 -16.2975 19.77363281 -16.265625 18.90039062 C-15.99252399 13.00596042 -15.67940457 7.39766046 -12.26708984 2.36889648 C-8.38041418 -0.4511351 -4.68772897 -0.04140503 0 0 Z M-271.734375 200.53125 C-271.8508708 242.15232858 -271.8508708 242.15232858 -271.9296875 283.7734375 C-271.937519 289.38378954 -271.94560094 294.99414112 -271.95410156 300.60449219 C-271.95515656 301.30765942 -271.95621155 302.01082664 -271.95729852 302.73530197 C-271.97469631 314.08777904 -272.00623185 325.44017508 -272.04298618 336.7926041 C-272.08039084 348.4430576 -272.10231042 360.09346385 -272.11072898 371.74397457 C-272.11594898 378.28800649 -272.12823898 384.83185468 -272.15729523 391.37582779 C-272.18441456 397.5333753 -272.19282691 403.69066313 -272.18680573 409.84826469 C-272.18790751 412.10978925 -272.19588185 414.37132236 -272.2111969 416.63279533 C-272.23106978 419.71825521 -272.22632349 422.80273195 -272.21539307 425.88821411 C-272.22704443 426.78510991 -272.2386958 427.68200571 -272.25070024 428.60608017 C-272.1971093 434.19479965 -271.38973229 437.2392412 -267.734375 441.53125 C-265.1083748 442.8442501 -263.16596595 442.66156283 -260.22357464 442.66826439 C-259.04528833 442.67333893 -257.86700202 442.67841347 -256.65301007 442.68364179 C-255.34710583 442.68413955 -254.04120159 442.68463731 -252.69572449 442.68515015 C-251.30337806 442.68916339 -249.91103281 442.69360138 -248.51868898 442.6984297 C-244.67912963 442.71041629 -240.83958286 442.71604846 -237.00000846 442.72061086 C-232.86424994 442.72655899 -228.72850653 442.73817071 -224.59275818 442.74890137 C-214.59867902 442.77344224 -204.60459485 442.78805434 -194.61049482 442.80096143 C-191.78918382 442.80467193 -188.96787332 442.80864527 -186.14656281 442.8127141 C-168.6377103 442.83794751 -151.12885704 442.86000705 -133.61999035 442.87244225 C-129.56298507 442.87537208 -125.50597982 442.87833373 -121.44897461 442.88134766 C-119.93639675 442.88246673 -119.93639675 442.88246673 -118.39326177 442.88360842 C-102.04933472 442.89626848 -85.7055163 442.92949941 -69.36164006 442.97114949 C-52.59329784 443.01353209 -35.8250113 443.03713296 -19.05661565 443.04236281 C-9.63704185 443.04578095 -0.21763786 443.0575835 9.20188332 443.09046555 C17.22215341 443.1184167 25.24221891 443.12948715 33.26253394 443.11827008 C37.35639446 443.11307084 41.44982619 443.11605156 45.54362488 443.14073563 C49.28992178 443.16313637 53.03547962 443.16256088 56.78178867 443.14353175 C58.78223775 443.13938396 60.78269066 443.15994501 62.78302985 443.18131864 C69.74379702 443.37984808 69.74379702 443.37984808 75.54185009 440.11824989 C78.30951059 435.96461163 78.42475625 433.03116393 78.44644165 428.15162659 C78.45364617 427.38180401 78.46085068 426.61198144 78.46827352 425.81883091 C78.49109351 423.22501993 78.50659691 420.63121858 78.52197266 418.03735352 C78.53641699 416.18300642 78.55117457 414.32866175 78.56622314 412.47431946 C78.69666099 395.52261884 78.76239797 378.5702535 78.81406593 361.61814976 C78.85294874 349.08904619 78.92124416 336.56084358 79.02861369 324.03213555 C79.10156458 315.22181977 79.13991671 306.41174974 79.15309179 297.60114425 C79.16194384 292.34040638 79.18608893 287.08078149 79.24776077 281.82037544 C79.30519518 276.86482489 79.31962715 271.91095574 79.30188751 266.95512199 C79.30276273 265.14231212 79.31890054 263.32943111 79.35193253 261.516922 C79.53118557 251.13696361 79.12441472 244.47993273 71.58852196 236.57450771 C67.30927665 232.47601064 67.30927665 232.47601064 61.703125 231.59375 C56.33469429 232.48679707 51.30677203 234.5388849 46.265625 236.53125 C46.19831177 237.48378662 46.19831177 237.48378662 46.12963867 238.45556641 C45.91718323 241.3569193 45.68533131 244.25641374 45.453125 247.15625 C45.34774414 248.65478516 45.34774414 248.65478516 45.24023438 250.18359375 C44.795462 255.556444 44.33900168 259.93234737 41.265625 264.53125 C38.07932673 266.65544884 37.24149026 266.78832798 33.58227539 266.82177734 C32.63441666 266.83453705 31.68655792 266.84729675 30.7099762 266.86044312 C29.1771122 266.86378159 29.1771122 266.86378159 27.61328125 266.8671875 C26.56160263 266.8738443 25.50992401 266.8805011 24.42637634 266.88735962 C22.20134227 266.89748846 19.97627781 266.90217657 17.7512207 266.90185547 C14.34470665 266.90622871 10.93948787 266.94254727 7.53320312 266.98046875 C5.37240027 266.98633677 3.21159125 266.99030626 1.05078125 266.9921875 C-0.4790464 267.01374405 -0.4790464 267.01374405 -2.03977966 267.03573608 C-9.08997932 266.99011967 -9.08997932 266.99011967 -12.35888672 264.66235352 C-14.02308976 262.08393173 -14.50537648 260.13295209 -14.921875 257.09375 C-15.07527344 256.04445313 -15.22867187 254.99515625 -15.38671875 253.9140625 C-15.74512412 250.42665745 -15.86291478 246.97150594 -15.984375 243.46875 C-16.15158638 240.27625055 -16.15158638 240.27625055 -16.734375 237.53125 C-19.12592109 235.20759729 -19.12592109 235.20759729 -22.734375 234.53125 C-24.42385898 233.76477484 -26.11123459 232.99364141 -27.796875 232.21875 C-30.65680574 230.93110346 -32.05205152 230.36624367 -35.125 231.109375 C-38.50833712 232.95298984 -41.41990008 235.19013021 -44.421875 237.59375 C-51.66835116 243.32819784 -51.66835116 243.32819784 -55.359375 244.03125 C-63.95181201 242.75829637 -72.17204683 231.44774781 -78.28149414 225.4440918 C-79.46033057 224.29199153 -80.64627035 223.14711577 -81.83911133 222.00952148 C-83.58856851 220.33972687 -85.31342473 218.64753408 -87.03515625 216.94921875 C-87.56329422 216.45407272 -88.09143219 215.9589267 -88.63557434 215.44877625 C-93.48125119 210.5766513 -93.49051732 208.01077561 -95.734375 200.53125 C-153.814375 200.53125 -211.894375 200.53125 -271.734375 200.53125 Z " fill="#293845" transform="translate(329.734375,11.46875)"/>
<path d="M0 0 C10.89 0 21.78 0 33 0 C33.6875 11.6875 33.6875 11.6875 33.8659668 15.34643555 C34.20230172 20.05473022 34.4296385 23.16791868 37.13671875 27.1171875 C40.4183425 29.27509016 43.34865266 30.36135927 47.125 31.4375 C53.15948719 33.23793415 58.27728983 35.57411164 63.6328125 38.9609375 C65.92959408 40.14458108 65.92959408 40.14458108 68.359375 40.07421875 C72.41085243 38.42605855 75.06167655 35.4975989 78.125 32.4375 C79.35020276 31.22121244 80.58171193 30.01123495 81.8203125 28.80859375 C82.35930176 28.27032959 82.89829102 27.73206543 83.45361328 27.17749023 C85 26 85 26 88 26 C89.19196708 27.39630429 90.37489972 28.80146237 91.5078125 30.24609375 C93.07126553 32.08376499 94.71981142 33.56903683 96.5625 35.125 C102.375483 40.06770915 107.64913674 45.56887379 113 51 C111.08001215 55.95091206 106.94810203 59.37607394 103.25585938 63.046875 C99.9086479 66.52047327 97.93922278 68.9352318 98 74 C98.98927075 76.79580096 98.98927075 76.79580096 100.625 79.5 C103.76751827 85.27817876 105.69335862 90.85675344 107.53125 97.1640625 C108.74992596 100.16198336 108.74992596 100.16198336 111.4765625 101.359375 C116.27729064 102.23223466 121.00480567 102.46605012 125.875 102.625 C130.886875 102.810625 130.886875 102.810625 136 103 C136 114.88 136 126.76 136 139 C122.635 139.495 122.635 139.495 109 140 C106.1236572 148.09080659 106.1236572 148.09080659 103.25634766 156.18481445 C102.89589355 157.1924585 102.53543945 158.20010254 102.1640625 159.23828125 C101.79748535 160.26993408 101.4309082 161.30158691 101.05322266 162.36450195 C100 165 100 165 98 168 C98.11813248 173.92052214 99.84637501 176.5943092 103.9375 180.75 C108.92649311 185.88973966 108.92649311 185.88973966 111 189 C110.75513502 194.7581058 104.63891229 198.91882639 100.79980469 202.75610352 C99.25319489 204.30929152 97.73216049 205.8848799 96.2109375 207.46289062 C95.23064219 208.45198541 94.24891752 209.43966603 93.265625 210.42578125 C91.93192871 211.77796753 91.93192871 211.77796753 90.57128906 213.1574707 C88 215 88 215 85.3112793 214.89257812 C82.4470475 213.78645882 80.77331 212.31161157 78.5625 210.1875 C72.88980695 204.49266873 72.88980695 204.49266873 65.62890625 201.76171875 C62.62188415 202.03427202 60.82664962 202.86714988 58.1875 204.3125 C52.60023558 207.23876757 47.47735017 209.67510162 41.1875 210.5 C37.71988809 211.04393912 37.01600815 211.26166509 35 214 C34.4034612 216.70075599 34.4034612 216.70075599 34.26953125 219.76171875 C34.19581299 220.76936279 34.12209473 221.77700684 34.04614258 222.81518555 C33.96904053 224.09304932 33.89193848 225.37091309 33.8125 226.6875 C33.544375 230.750625 33.27625 234.81375 33 239 C22.11 239 11.22 239 0 239 C-0.78098821 235.87604715 -1.21818769 233.25653959 -1.46484375 230.0859375 C-1.58182617 228.69761719 -1.58182617 228.69761719 -1.70117188 227.28125 C-1.85932984 225.33629915 -2.01294203 223.39097354 -2.16210938 221.4453125 C-2.24138672 220.52234375 -2.32066406 219.599375 -2.40234375 218.6484375 C-2.46929443 217.80458496 -2.53624512 216.96073242 -2.60522461 216.09130859 C-2.83662663 213.78759235 -2.83662663 213.78759235 -5 212 C-7.67923857 211.03419413 -10.3546523 210.12720226 -13.0625 209.25 C-19.10991182 207.23440701 -24.16212976 205.10807898 -29.140625 201.00390625 C-31.00447893 199.79676999 -31.00447893 199.79676999 -33.4296875 200.07421875 C-36.65420467 201.23563299 -38.41300322 202.87452706 -40.875 205.25 C-44.7453317 208.8827814 -48.60256231 212.03650938 -53 215 C-58.80891746 210.18132753 -64.13065552 204.98743592 -69.4375 199.625 C-70.67790039 198.37783203 -70.67790039 198.37783203 -71.94335938 197.10546875 C-73.96455531 195.0725896 -75.98336335 193.03740037 -78 191 C-76.46547332 186.85875079 -74.85361298 184.54626607 -71.625 181.5 C-70.82578125 180.72140625 -70.0265625 179.9428125 -69.203125 179.140625 C-68.47609375 178.43421875 -67.7490625 177.7278125 -67 177 C-64.40195169 174.47275733 -64.40195169 174.47275733 -63 172 C-63.39740376 167.18699891 -65.72043449 163.08155925 -67.8125 158.8125 C-70.53023155 153.18127321 -73.08285569 147.57453006 -75.2109375 141.6875 C-75.88015684 139.80125532 -75.88015684 139.80125532 -78 139 C-79.81171098 138.84693099 -81.6283794 138.75053339 -83.4453125 138.68359375 C-84.41484863 138.64548584 -85.38438477 138.60737793 -86.38330078 138.56811523 C-87.61806152 138.52501221 -88.85282227 138.48190918 -90.125 138.4375 C-94.04375 138.293125 -97.9625 138.14875 -102 138 C-102 126.45 -102 114.9 -102 103 C-91.25 102.125 -91.25 102.125 -87.87988281 101.86376953 C-86.5548877 101.7494458 -86.5548877 101.7494458 -85.203125 101.6328125 C-83.85202637 101.52283936 -83.85202637 101.52283936 -82.47363281 101.41064453 C-79.85208041 100.97544406 -78.18997352 100.5070406 -76 99 C-74.66860445 96.88962617 -74.66860445 96.88962617 -73.7109375 94.3515625 C-73.32679688 93.42859375 -72.94265625 92.505625 -72.546875 91.5546875 C-72.16015625 90.58789062 -71.7734375 89.62109375 -71.375 88.625 C-70.59191817 86.72103633 -69.80809156 84.81737877 -69.0234375 82.9140625 C-68.68231934 82.0679541 -68.34120117 81.2218457 -67.98974609 80.35009766 C-67 78 -67 78 -65.91650391 75.88818359 C-64.28579721 72.52859766 -64.34065578 70.71630377 -65 67 C-67.70249712 63.37175386 -70.83473962 60.22348424 -74 57 C-75.70850693 55.03014612 -77.35158615 53.02063633 -79 51 C-77.38312371 46.91884839 -74.45745564 44.19365254 -71.375 41.1875 C-70.83810547 40.65777588 -70.30121094 40.12805176 -69.74804688 39.58227539 C-64.43389891 34.37552413 -58.9874806 29.42495825 -53 25 C-52.57178955 25.38857178 -52.1435791 25.77714355 -51.70239258 26.17749023 C-49.74790503 27.94088407 -47.78048988 29.68919271 -45.8125 31.4375 C-45.13896484 32.04916016 -44.46542969 32.66082031 -43.77148438 33.29101562 C-43.11083984 33.87431641 -42.45019531 34.45761719 -41.76953125 35.05859375 C-40.86618042 35.86768188 -40.86618042 35.86768188 -39.94458008 36.69311523 C-37.57970427 38.28246617 -35.83218298 38.74874234 -33 39 C-31.04367111 38.50123152 -31.04367111 38.50123152 -29.25 37.48828125 C-28.56486328 37.1442627 -27.87972656 36.80024414 -27.17382812 36.44580078 C-26.45646484 36.07181152 -25.73910156 35.69782227 -25 35.3125 C-18.52897786 32.07839201 -12.35104574 29.64495518 -5.34375 27.7890625 C-2.83112876 27.24974453 -2.83112876 27.24974453 -2 25 C-1.77811206 23.11659623 -1.60810213 21.22694809 -1.46484375 19.3359375 C-1.38613037 18.3257959 -1.30741699 17.3156543 -1.22631836 16.27490234 C-1.08335327 14.34445068 -1.08335327 14.34445068 -0.9375 12.375 C-0.4734375 6.249375 -0.4734375 6.249375 0 0 Z " fill="#F8CA79" transform="translate(328,26)"/>
<path d="M0 0 C10.89 0 21.78 0 33 0 C33.6875 11.6875 33.6875 11.6875 33.8659668 15.34643555 C34.20230172 20.05473022 34.4296385 23.16791868 37.13671875 27.1171875 C40.4183425 29.27509016 43.34865266 30.36135927 47.125 31.4375 C53.15948719 33.23793415 58.27728983 35.57411164 63.6328125 38.9609375 C65.92959408 40.14458108 65.92959408 40.14458108 68.359375 40.07421875 C72.41085243 38.42605855 75.06167655 35.4975989 78.125 32.4375 C79.35020276 31.22121244 80.58171193 30.01123495 81.8203125 28.80859375 C82.35930176 28.27032959 82.89829102 27.73206543 83.45361328 27.17749023 C85 26 85 26 88 26 C89.19196708 27.39630429 90.37489972 28.80146237 91.5078125 30.24609375 C93.07126553 32.08376499 94.71981142 33.56903683 96.5625 35.125 C102.375483 40.06770915 107.64913674 45.56887379 113 51 C111.08001215 55.95091206 106.94810203 59.37607394 103.25585938 63.046875 C99.9086479 66.52047327 97.93922278 68.9352318 98 74 C98.98927075 76.79580096 98.98927075 76.79580096 100.625 79.5 C103.76751827 85.27817876 105.69335862 90.85675344 107.53125 97.1640625 C108.74992596 100.16198336 108.74992596 100.16198336 111.4765625 101.359375 C116.27729064 102.23223466 121.00480567 102.46605012 125.875 102.625 C130.886875 102.810625 130.886875 102.810625 136 103 C136 114.88 136 126.76 136 139 C122.635 139.495 122.635 139.495 109 140 C106.1236572 148.09080659 106.1236572 148.09080659 103.25634766 156.18481445 C102.89589355 157.1924585 102.53543945 158.20010254 102.1640625 159.23828125 C101.79748535 160.26993408 101.4309082 161.30158691 101.05322266 162.36450195 C100 165 100 165 98 168 C98.11813248 173.92052214 99.84637501 176.5943092 103.9375 180.75 C108.92649311 185.88973966 108.92649311 185.88973966 111 189 C110.75513502 194.7581058 104.63891229 198.91882639 100.79980469 202.75610352 C99.25319489 204.30929152 97.73216049 205.8848799 96.2109375 207.46289062 C95.23064219 208.45198541 94.24891752 209.43966603 93.265625 210.42578125 C91.93192871 211.77796753 91.93192871 211.77796753 90.57128906 213.1574707 C88 215 88 215 85.3112793 214.89257812 C82.4470475 213.78645882 80.77331 212.31161157 78.5625 210.1875 C72.88980695 204.49266873 72.88980695 204.49266873 65.62890625 201.76171875 C62.62188415 202.03427202 60.82664962 202.86714988 58.1875 204.3125 C52.60023558 207.23876757 47.47735017 209.67510162 41.1875 210.5 C37.71988809 211.04393912 37.01600815 211.26166509 35 214 C34.4034612 216.70075599 34.4034612 216.70075599 34.26953125 219.76171875 C34.19581299 220.76936279 34.12209473 221.77700684 34.04614258 222.81518555 C33.96904053 224.09304932 33.89193848 225.37091309 33.8125 226.6875 C33.544375 230.750625 33.27625 234.81375 33 239 C22.11 239 11.22 239 0 239 C-0.78098821 235.87604715 -1.21818769 233.25653959 -1.46484375 230.0859375 C-1.58182617 228.69761719 -1.58182617 228.69761719 -1.70117188 227.28125 C-1.85932984 225.33629915 -2.01294203 223.39097354 -2.16210938 221.4453125 C-2.24138672 220.52234375 -2.32066406 219.599375 -2.40234375 218.6484375 C-2.46929443 217.80458496 -2.53624512 216.96073242 -2.60522461 216.09130859 C-2.83662663 213.78759235 -2.83662663 213.78759235 -5 212 C-7.67923857 211.03419413 -10.3546523 210.12720226 -13.0625 209.25 C-19.10991182 207.23440701 -24.16212976 205.10807898 -29.140625 201.00390625 C-31.00447893 199.79676999 -31.00447893 199.79676999 -33.4296875 200.07421875 C-36.65420467 201.23563299 -38.41300322 202.87452706 -40.875 205.25 C-44.7453317 208.8827814 -48.60256231 212.03650938 -53 215 C-58.80891746 210.18132753 -64.13065552 204.98743592 -69.4375 199.625 C-70.67790039 198.37783203 -70.67790039 198.37783203 -71.94335938 197.10546875 C-73.96455531 195.0725896 -75.98336335 193.03740037 -78 191 C-76.46547332 186.85875079 -74.85361298 184.54626607 -71.625 181.5 C-70.82578125 180.72140625 -70.0265625 179.9428125 -69.203125 179.140625 C-68.47609375 178.43421875 -67.7490625 177.7278125 -67 177 C-64.40195169 174.47275733 -64.40195169 174.47275733 -63 172 C-63.39740376 167.18699891 -65.72043449 163.08155925 -67.8125 158.8125 C-70.53023155 153.18127321 -73.08285569 147.57453006 -75.2109375 141.6875 C-75.88015684 139.80125532 -75.88015684 139.80125532 -78 139 C-79.81171098 138.84693099 -81.6283794 138.75053339 -83.4453125 138.68359375 C-84.41484863 138.64548584 -85.38438477 138.60737793 -86.38330078 138.56811523 C-87.61806152 138.52501221 -88.85282227 138.48190918 -90.125 138.4375 C-94.04375 138.293125 -97.9625 138.14875 -102 138 C-102 126.45 -102 114.9 -102 103 C-91.25 102.125 -91.25 102.125 -87.87988281 101.86376953 C-86.5548877 101.7494458 -86.5548877 101.7494458 -85.203125 101.6328125 C-83.85202637 101.52283936 -83.85202637 101.52283936 -82.47363281 101.41064453 C-79.85208041 100.97544406 -78.18997352 100.5070406 -76 99 C-74.66860445 96.88962617 -74.66860445 96.88962617 -73.7109375 94.3515625 C-73.32679688 93.42859375 -72.94265625 92.505625 -72.546875 91.5546875 C-72.16015625 90.58789062 -71.7734375 89.62109375 -71.375 88.625 C-70.59191817 86.72103633 -69.80809156 84.81737877 -69.0234375 82.9140625 C-68.68231934 82.0679541 -68.34120117 81.2218457 -67.98974609 80.35009766 C-67 78 -67 78 -65.91650391 75.88818359 C-64.28579721 72.52859766 -64.34065578 70.71630377 -65 67 C-67.70249712 63.37175386 -70.83473962 60.22348424 -74 57 C-75.70850693 55.03014612 -77.35158615 53.02063633 -79 51 C-77.38312371 46.91884839 -74.45745564 44.19365254 -71.375 41.1875 C-70.83810547 40.65777588 -70.30121094 40.12805176 -69.74804688 39.58227539 C-64.43389891 34.37552413 -58.9874806 29.42495825 -53 25 C-52.57178955 25.38857178 -52.1435791 25.77714355 -51.70239258 26.17749023 C-49.74790503 27.94088407 -47.78048988 29.68919271 -45.8125 31.4375 C-45.13896484 32.04916016 -44.46542969 32.66082031 -43.77148438 33.29101562 C-43.11083984 33.87431641 -42.45019531 34.45761719 -41.76953125 35.05859375 C-40.86618042 35.86768188 -40.86618042 35.86768188 -39.94458008 36.69311523 C-37.57970427 38.28246617 -35.83218298 38.74874234 -33 39 C-31.04367111 38.50123152 -31.04367111 38.50123152 -29.25 37.48828125 C-28.56486328 37.1442627 -27.87972656 36.80024414 -27.17382812 36.44580078 C-26.45646484 36.07181152 -25.73910156 35.69782227 -25 35.3125 C-18.52897786 32.07839201 -12.35104574 29.64495518 -5.34375 27.7890625 C-2.83112876 27.24974453 -2.83112876 27.24974453 -2 25 C-1.77811206 23.11659623 -1.60810213 21.22694809 -1.46484375 19.3359375 C-1.38613037 18.3257959 -1.30741699 17.3156543 -1.22631836 16.27490234 C-1.08335327 14.34445068 -1.08335327 14.34445068 -0.9375 12.375 C-0.4734375 6.249375 -0.4734375 6.249375 0 0 Z M-39.60546875 67.80078125 C-55.82112902 87.00425162 -60.11881901 106.36593134 -59 131 C-57.34979992 148.7461114 -47.91470424 165.8951287 -35 178 C-28.09867931 183.71874144 -20.94877313 188.35588372 -12.75 192 C-11.81317383 192.41789795 -11.81317383 192.41789795 -10.85742188 192.84423828 C-2.19509041 196.4550485 6.55836767 197.36890004 15.875 197.3125 C16.84099121 197.30758545 17.80698242 197.3026709 18.80224609 197.29760742 C25.89892759 197.1811411 32.29854837 196.46376898 39 194 C40.0003125 193.63648438 41.000625 193.27296875 42.03125 192.8984375 C53.36398495 188.46264478 62.32747451 182.51964443 71 174 C71.763125 173.26136719 72.52625 172.52273437 73.3125 171.76171875 C88.88402486 155.67654984 93.68235037 137.049147 93.54150391 115.17700195 C92.90046583 93.87468858 82.54426389 75.81354436 67.25 61.3125 C35.0930877 33.57220066 -11.02834058 37.08143958 -39.60546875 67.80078125 Z " fill="#A4B4BF" transform="translate(328,26)"/>
<path d="M0 0 C0.70589687 -0.00508782 1.41179374 -0.01017564 2.13908142 -0.01541764 C4.5164606 -0.03117702 6.8938093 -0.03967645 9.27122498 -0.04811096 C10.97118321 -0.05764686 12.67113949 -0.0675379 14.37109375 -0.07775879 C19.96595445 -0.10918286 25.56083018 -0.12941906 31.15574646 -0.14796448 C32.10756892 -0.1512618 33.05939138 -0.15455912 34.04005694 -0.15795636 C43.01757165 -0.1887457 51.99508967 -0.2154538 60.97264194 -0.23237514 C72.45454631 -0.25426995 83.93598229 -0.29620693 95.4176994 -0.36581272 C103.49084704 -0.41309062 111.56386851 -0.43731402 119.63715023 -0.44457203 C124.4582628 -0.4495238 129.27884788 -0.46455862 134.09980965 -0.50431633 C138.63981021 -0.54126168 143.17898381 -0.54956666 147.71910667 -0.5363102 C149.3811334 -0.53636402 151.04319748 -0.54660934 152.70508575 -0.56806183 C167.83987353 -0.75290639 167.83987353 -0.75290639 174.59514618 4.56342888 C179.76368301 9.66176108 180.67923581 14.19901169 180.79577637 21.37179565 C180.7908165 22.40425919 180.78585663 23.43672272 180.78074646 24.50047302 C180.78694504 25.58139725 180.79314362 26.66232147 180.79953003 27.77600098 C180.8066116 30.05451053 180.80348339 32.333072 180.79075623 34.61155701 C180.77689673 38.08396829 180.8109824 41.5536798 180.84910583 45.02586365 C180.85005719 47.24656743 180.84819731 49.46727456 180.84324646 51.68797302 C180.85650467 52.71841232 180.86976288 53.74885162 180.88342285 54.81051636 C180.7973405 61.52670337 179.55256858 65.9598731 175.21434021 71.16062927 C170.04077672 76.08182381 166.14901611 76.28434008 159.16798401 76.30780029 C158.45826159 76.31147698 157.74853918 76.31515367 157.01731002 76.31894177 C154.63913174 76.32995498 152.26099718 76.33381838 149.88279724 76.33763123 C148.17767702 76.34389751 146.47255816 76.35054446 144.7674408 76.35754395 C139.16902107 76.37856174 133.57060113 76.3889421 127.97215271 76.39891052 C126.04436606 76.4029585 124.11657954 76.40707544 122.18879318 76.4112606 C113.1343109 76.43030484 104.07983675 76.44453921 95.02533829 76.45287257 C84.57270928 76.46265176 74.12029164 76.48899226 63.66773713 76.52937347 C55.58779759 76.55951818 47.50791872 76.57433977 39.42792404 76.57765359 C34.60203727 76.58000535 29.77637654 76.5889827 24.95055008 76.61411476 C20.41147765 76.63737265 15.87278048 76.64163797 11.33366394 76.63135338 C9.66878385 76.6308574 8.00388542 76.63719613 6.33906174 76.65090942 C4.06381243 76.66860097 1.78991401 76.6615371 -0.4853363 76.64837646 C-1.75774611 76.65076482 -3.03015591 76.65315317 -4.34112358 76.6556139 C-9.41822229 75.92602778 -12.45807531 73.52614474 -15.97315979 69.91062927 C-20.39647052 63.1993992 -21.24557075 57.09121938 -21.21925354 49.25437927 C-21.22449539 48.33024231 -21.22973724 47.40610535 -21.23513794 46.45396423 C-21.2415269 44.51098124 -21.24026194 42.5679594 -21.23170471 40.62498474 C-21.22318309 37.66871258 -21.25201856 34.71436795 -21.28370667 31.75828552 C-21.28531879 29.86115068 -21.28474094 27.96401245 -21.28175354 26.06687927 C-21.29298752 25.19269348 -21.3042215 24.31850769 -21.3157959 23.41783142 C-21.23716504 16.42335686 -19.46151998 11.10407548 -14.71534729 5.88328552 C-14.03730042 5.33543396 -13.35925354 4.7875824 -12.66065979 4.22312927 C-11.97745667 3.65723083 -11.29425354 3.0913324 -10.59034729 2.50828552 C-7.00607179 -0.16828384 -4.44830512 0.02407432 0 0 Z " fill="#FBCB7A" transform="translate(153.78565979003906,356.83937072753906)"/>
<path d="M0 0 C1.12411285 -0.00700928 2.24822571 -0.01401855 3.40640259 -0.02124023 C7.1214469 -0.03884243 10.83572921 -0.02718875 14.55078125 -0.01367188 C17.13240709 -0.01636613 19.71403194 -0.02024799 22.2956543 -0.02526855 C27.70599973 -0.03116666 33.11605888 -0.02297205 38.52636719 -0.00390625 C44.77552785 0.01786176 51.02416646 0.01080998 57.27331448 -0.01121187 C63.29244113 -0.03157166 69.31131299 -0.0293906 75.33047485 -0.01768494 C77.88856072 -0.01501525 80.4466599 -0.01829585 83.00473022 -0.02760315 C86.57903412 -0.03775369 90.15233348 -0.0222867 93.7265625 0 C94.78541656 -0.00809692 95.84427063 -0.01619385 96.93521118 -0.02453613 C101.18216302 0.02456006 104.15657004 0.17861605 108.01889038 2.03111267 C110.60442591 5.51673217 110.56410853 8.64125288 110.51025391 12.81860352 C110.5190155 13.65317581 110.5277771 14.48774811 110.5368042 15.34761047 C110.55879696 18.10401518 110.54424784 20.85881363 110.52734375 23.61523438 C110.53071161 25.53047494 110.53556398 27.44571341 110.5418396 29.36094666 C110.54921048 33.37340662 110.53849732 37.38530985 110.51513672 41.39770508 C110.48662953 46.54538994 110.50306379 51.6917726 110.53299904 56.83940983 C110.55104981 60.79338938 110.54532455 64.74705912 110.53236008 68.7010479 C110.52902091 70.59930004 110.53313104 72.49758017 110.54475784 74.39579964 C110.55743241 77.04660911 110.53813981 79.69529629 110.51025391 82.34594727 C110.52543564 83.52658752 110.52543564 83.52658752 110.54092407 84.7310791 C110.47583675 88.06394522 110.32885906 90.01638693 108.01889038 92.50305176 C103.25627134 94.03423081 98.70084417 93.94277869 93.7265625 93.92163086 C92.60244965 93.92849411 91.47833679 93.93535736 90.32015991 93.94242859 C86.60523847 93.96072667 82.89073808 93.95685496 79.17578125 93.95117188 C76.5941555 93.95573187 74.01253096 93.9610369 71.4309082 93.96705627 C66.02061449 93.97599307 60.61048249 93.97379103 55.20019531 93.96362305 C48.95105106 93.95213789 42.70233577 93.96622606 36.45324802 93.99301952 C30.4341406 94.01785808 24.41525375 94.02035315 18.39608765 94.01390266 C15.83799526 94.01374913 13.27989474 94.0198197 10.72183228 94.03219414 C7.14756211 94.0470492 3.57424021 94.03646649 0 94.01928711 C-1.05885406 94.02895508 -2.11770813 94.03862305 -3.20864868 94.04858398 C-7.46115507 94.00572226 -10.42715905 93.8591965 -14.29232788 91.99830627 C-16.86199777 88.54206902 -16.83789176 85.46989863 -16.78369141 81.32421875 C-16.7968338 80.0894001 -16.7968338 80.0894001 -16.8102417 78.82963562 C-16.8322352 76.11049577 -16.81768387 73.39298428 -16.80078125 70.67382812 C-16.80414942 68.7834034 -16.80900204 66.89298079 -16.8152771 65.00256348 C-16.82264834 61.04137547 -16.81193489 57.08075135 -16.78857422 53.11962891 C-16.7600862 48.04153818 -16.77648884 42.96476863 -16.80643654 37.88672638 C-16.82450277 33.98331748 -16.81875461 30.08022192 -16.80579758 26.17680359 C-16.80246169 24.30449772 -16.80655706 22.43216342 -16.81819534 20.55989075 C-16.83089321 17.94280637 -16.8115438 15.32786237 -16.78369141 12.7109375 C-16.79381256 11.93679001 -16.80393372 11.16264252 -16.81436157 10.36503601 C-16.74579174 6.88808046 -16.38440048 4.85057987 -14.29232788 2.0378418 C-9.55835376 -0.2428237 -5.19215978 -0.03970379 0 0 Z " fill="#B5CED8" transform="translate(99.13671875,235.482421875)"/>
<path d="M0 0 C1.26058228 -0.00687332 2.52116455 -0.01374664 3.81994629 -0.02082825 C5.2091277 -0.0031348 6.59830305 0.01503921 7.98747253 0.03364563 C9.45617118 0.0350566 10.92487335 0.03426316 12.39356995 0.03143311 C16.37486169 0.02999943 20.35539912 0.05938045 24.33651567 0.09430289 C28.49915628 0.12557497 32.66181449 0.12849779 36.82455444 0.13442993 C44.7046073 0.14996593 52.58431302 0.19099091 60.46421307 0.24117738 C69.43629785 0.29707858 78.40839928 0.32455927 87.38061488 0.34965456 C105.83464374 0.40190712 124.28834956 0.4898445 142.74211121 0.60127258 C142.76398499 2.28869568 142.76398499 2.28869568 142.78630066 4.01020813 C142.84438875 8.19444646 142.92162084 12.37815255 143.00456238 16.56196594 C143.03776234 18.37079717 143.06580961 20.17973076 143.08854675 21.98872375 C143.12218379 24.59308891 143.17450315 27.19652018 143.23039246 29.80049133 C143.23997734 31.00858711 143.23997734 31.00858711 143.24975586 32.24108887 C143.36907937 36.82501182 143.77678426 39.88466534 146.74211121 43.60127258 C150.08014812 45.82663052 151.37030831 45.89105662 155.28507996 46.01533508 C156.89479675 46.0733429 156.89479675 46.0733429 158.53703308 46.13252258 C159.65658386 46.16346008 160.77613464 46.19439758 161.92961121 46.22627258 C163.62633972 46.2842804 163.62633972 46.2842804 165.35734558 46.34346008 C168.1521037 46.43779791 170.94685399 46.5233891 173.74211121 46.60127258 C175.87167775 52.23239533 177.86526432 57.88135826 179.74211121 63.60127258 C171.82017614 68.99959906 163.22951413 68.13591611 154.03507996 68.05537415 C152.23096746 68.05424487 150.42685313 68.0548811 148.6227417 68.05714417 C143.74097742 68.0582891 138.85960843 68.0348155 133.97793579 68.00684834 C128.87037677 67.9817979 123.76280812 67.97948981 118.65519714 67.9747467 C108.99035895 67.96232764 99.32570232 67.92952045 89.66094398 67.88934875 C78.65494757 67.8445978 67.64894236 67.82263563 56.64287758 67.80256701 C34.00918824 67.76078692 11.37565991 67.6904556 -11.25788879 67.60127258 C-11.37386405 59.60392368 -11.4626439 51.60692749 -11.51694965 43.60894489 C-11.5430172 39.89490315 -11.57836089 36.18143772 -11.63508606 32.46772766 C-11.68951093 28.88207546 -11.71933072 25.29697667 -11.73227501 21.71094322 C-11.74149643 20.34456357 -11.7595046 18.97821339 -11.78653908 17.61207008 C-11.82295638 15.69511719 -11.82493224 13.77760448 -11.82551575 11.86030579 C-11.8366188 10.7699855 -11.84772186 9.67966522 -11.85916138 8.55630493 C-10.52323828 1.99073703 -6.27256378 -0.02642192 0 0 Z " fill="#E3826A" transform="translate(69.25788879394531,131.3987274169922)"/>
<path d="M0 0 C0.70589687 -0.00508782 1.41179374 -0.01017564 2.13908142 -0.01541764 C4.5164606 -0.03117702 6.8938093 -0.03967645 9.27122498 -0.04811096 C10.97118321 -0.05764686 12.67113949 -0.0675379 14.37109375 -0.07775879 C19.96595445 -0.10918286 25.56083018 -0.12941906 31.15574646 -0.14796448 C32.10756892 -0.1512618 33.05939138 -0.15455912 34.04005694 -0.15795636 C43.01757165 -0.1887457 51.99508967 -0.2154538 60.97264194 -0.23237514 C72.45454631 -0.25426995 83.93598229 -0.29620693 95.4176994 -0.36581272 C103.49084704 -0.41309062 111.56386851 -0.43731402 119.63715023 -0.44457203 C124.4582628 -0.4495238 129.27884788 -0.46455862 134.09980965 -0.50431633 C138.63981021 -0.54126168 143.17898381 -0.54956666 147.71910667 -0.5363102 C149.3811334 -0.53636402 151.04319748 -0.54660934 152.70508575 -0.56806183 C167.83987353 -0.75290639 167.83987353 -0.75290639 174.59514618 4.56342888 C179.76368301 9.66176108 180.67923581 14.19901169 180.79577637 21.37179565 C180.7908165 22.40425919 180.78585663 23.43672272 180.78074646 24.50047302 C180.78694504 25.58139725 180.79314362 26.66232147 180.79953003 27.77600098 C180.8066116 30.05451053 180.80348339 32.333072 180.79075623 34.61155701 C180.77689673 38.08396829 180.8109824 41.5536798 180.84910583 45.02586365 C180.85005719 47.24656743 180.84819731 49.46727456 180.84324646 51.68797302 C180.85650467 52.71841232 180.86976288 53.74885162 180.88342285 54.81051636 C180.7973405 61.52670337 179.55256858 65.9598731 175.21434021 71.16062927 C170.04077672 76.08182381 166.14901611 76.28434008 159.16798401 76.30780029 C158.45826159 76.31147698 157.74853918 76.31515367 157.01731002 76.31894177 C154.63913174 76.32995498 152.26099718 76.33381838 149.88279724 76.33763123 C148.17767702 76.34389751 146.47255816 76.35054446 144.7674408 76.35754395 C139.16902107 76.37856174 133.57060113 76.3889421 127.97215271 76.39891052 C126.04436606 76.4029585 124.11657954 76.40707544 122.18879318 76.4112606 C113.1343109 76.43030484 104.07983675 76.44453921 95.02533829 76.45287257 C84.57270928 76.46265176 74.12029164 76.48899226 63.66773713 76.52937347 C55.58779759 76.55951818 47.50791872 76.57433977 39.42792404 76.57765359 C34.60203727 76.58000535 29.77637654 76.5889827 24.95055008 76.61411476 C20.41147765 76.63737265 15.87278048 76.64163797 11.33366394 76.63135338 C9.66878385 76.6308574 8.00388542 76.63719613 6.33906174 76.65090942 C4.06381243 76.66860097 1.78991401 76.6615371 -0.4853363 76.64837646 C-1.75774611 76.65076482 -3.03015591 76.65315317 -4.34112358 76.6556139 C-9.41822229 75.92602778 -12.45807531 73.52614474 -15.97315979 69.91062927 C-20.39647052 63.1993992 -21.24557075 57.09121938 -21.21925354 49.25437927 C-21.22449539 48.33024231 -21.22973724 47.40610535 -21.23513794 46.45396423 C-21.2415269 44.51098124 -21.24026194 42.5679594 -21.23170471 40.62498474 C-21.22318309 37.66871258 -21.25201856 34.71436795 -21.28370667 31.75828552 C-21.28531879 29.86115068 -21.28474094 27.96401245 -21.28175354 26.06687927 C-21.29298752 25.19269348 -21.3042215 24.31850769 -21.3157959 23.41783142 C-21.23716504 16.42335686 -19.46151998 11.10407548 -14.71534729 5.88328552 C-14.03730042 5.33543396 -13.35925354 4.7875824 -12.66065979 4.22312927 C-11.97745667 3.65723083 -11.29425354 3.0913324 -10.59034729 2.50828552 C-7.00607179 -0.16828384 -4.44830512 0.02407432 0 0 Z M-5.68175697 15.56349754 C-7.0902674 17.60133698 -7.16577899 18.84115924 -7.17384338 21.30906677 C-7.18329987 22.14002869 -7.19275635 22.9709906 -7.20249939 23.82713318 C-7.1964267 24.72093689 -7.190354 25.6147406 -7.18409729 26.53562927 C-7.18696747 27.4565033 -7.18983765 28.37737732 -7.1927948 29.32615662 C-7.1948361 31.27294022 -7.18930162 33.21974429 -7.17677307 35.16648865 C-7.16072035 38.14937627 -7.17661951 41.13090888 -7.19581604 44.11375427 C-7.19383362 46.00438227 -7.18998997 47.89500942 -7.18409729 49.78562927 C-7.19016998 50.67943298 -7.19624268 51.57323669 -7.20249939 52.49412537 C-7.19304291 53.32508728 -7.18358643 54.15604919 -7.17384338 55.01219177 C-7.1714566 55.74260681 -7.16906982 56.47302185 -7.16661072 57.22557068 C-6.6500972 59.84922598 -5.93967253 60.56693663 -3.78565979 62.16062927 C-0.68513767 62.61579299 -0.68513767 62.61579299 2.93284607 62.5415802 C3.61932944 62.54626017 4.30581282 62.55094014 5.01309872 62.55576193 C7.31865566 62.56774991 9.62362236 62.55824029 11.92918396 62.54881287 C13.57991382 62.5528769 15.23064095 62.55821782 16.88136292 62.56474304 C21.36891448 62.57844258 25.85625959 62.57310716 30.34381485 62.56360579 C35.03495601 62.55602282 39.72607923 62.563051 44.41722107 62.56776428 C52.29591554 62.57322582 60.17452572 62.5660198 68.0532074 62.55174255 C77.16857248 62.53541527 86.28373628 62.5407035 95.39909649 62.55722177 C103.21826497 62.57082531 111.03737277 62.57276185 118.85654926 62.56490576 C123.52971001 62.56022301 128.20277608 62.55962089 132.87593079 62.56951523 C137.26886822 62.57816618 141.66154554 62.5721974 146.0544548 62.55483246 C147.66897525 62.55085758 149.28351749 62.55201872 150.89802933 62.55862045 C153.09759558 62.56678685 155.29632199 62.55657496 157.49583435 62.5415802 C158.72806229 62.54044912 159.96029022 62.53931805 161.2298584 62.53815269 C164.20128755 62.40950339 164.20128755 62.40950339 166.11043739 60.757761 C167.51894782 58.71992156 167.59445941 57.48009931 167.6025238 55.01219177 C167.61670853 53.7657489 167.61670853 53.7657489 167.63117981 52.49412537 C167.62510712 51.60032166 167.61903442 50.70651794 167.61277771 49.78562927 C167.61564789 48.86475525 167.61851807 47.94388123 167.62147522 46.99510193 C167.62351652 45.04831833 167.61798204 43.10151425 167.60545349 41.1547699 C167.58940077 38.17188228 167.60529993 35.19034966 167.62449646 32.20750427 C167.62251404 30.31687628 167.61867039 28.42624912 167.61277771 26.53562927 C167.62188675 25.19492371 167.62188675 25.19492371 167.63117981 23.82713318 C167.62172333 22.99617126 167.61226685 22.16520935 167.6025238 21.30906677 C167.59894363 20.21344421 167.59894363 20.21344421 167.59529114 19.09568787 C167.07877762 16.47203256 166.36835295 15.75432191 164.21434021 14.16062927 C161.11381809 13.70546555 161.11381809 13.70546555 157.49583435 13.77967834 C156.80935098 13.77499837 156.1228676 13.7703184 155.4155817 13.76549661 C153.11002476 13.75350864 150.80505806 13.76301825 148.49949646 13.77244568 C146.8487666 13.76838165 145.19803947 13.76304072 143.5473175 13.7565155 C139.05976594 13.74281596 134.57242083 13.74815139 130.08486557 13.75765276 C125.3937244 13.76523572 120.70260119 13.75820755 116.01145935 13.75349426 C108.13276488 13.74803273 100.2541547 13.75523875 92.37547302 13.76951599 C83.26010794 13.78584327 74.14494414 13.78055505 65.02958393 13.76403677 C57.21041545 13.75043323 49.39130765 13.7484967 41.57213116 13.75635278 C36.89897041 13.76103554 32.22590434 13.76163765 27.55274963 13.75174332 C23.1598122 13.74309236 18.76713488 13.74906114 14.37422562 13.76642609 C12.75970517 13.77040097 11.14516293 13.76923982 9.53065109 13.76263809 C7.33108484 13.7544717 5.13235843 13.76468358 2.93284607 13.77967834 C1.70061813 13.78080942 0.4683902 13.7819405 -0.80117798 13.78310585 C-3.77260713 13.91175515 -3.77260713 13.91175515 -5.68175697 15.56349754 Z " fill="#2A3A46" transform="translate(153.78565979003906,356.83937072753906)"/>
<path d="M0 0 C1.07378906 -0.020625 2.14757812 -0.04125 3.25390625 -0.0625 C24.08060895 -0.16274887 41.43016711 8.95976006 56.17578125 23.26953125 C69.87350436 37.26452607 77.63333053 55.8966939 77.4375 75.375 C77.42775146 76.4673999 77.41800293 77.5597998 77.40795898 78.68530273 C76.92454553 100.96001167 68.86318609 117.75788259 53 133.25 C52.28328125 133.98734375 51.5665625 134.7246875 50.828125 135.484375 C35.56277161 150.29062001 15.0868075 154.72267597 -5.4765625 154.453125 C-24.57242227 153.92572167 -42.32252847 144.20845762 -55.5234375 130.66015625 C-72.5851702 110.83244299 -76.53976651 88.89270374 -75 63.25 C-74.40283742 58.61019037 -72.93383885 54.50215011 -71 50.25 C-70.27103516 48.55423828 -70.27103516 48.55423828 -69.52734375 46.82421875 C-60.60237892 27.51844377 -45.57414906 11.3852805 -25.359375 3.90234375 C-22.2537595 2.9309685 -19.15469806 2.04541532 -16 1.25 C-15.39559082 1.0749292 -14.79118164 0.8998584 -14.16845703 0.71948242 C-9.54047196 -0.28250083 -4.71532361 0.02200851 0 0 Z M-48.625 37.875 C-60.15745657 53.78939171 -62.68181734 70.02246251 -61 89.25 C-60.09016777 94.545775 -58.23356878 99.3751475 -56 104.25 C-55.33097656 105.73693359 -55.33097656 105.73693359 -54.6484375 107.25390625 C-47.00453283 122.60577066 -34.26743399 131.97486759 -18.67578125 138.12109375 C-2.25687485 143.16366968 14.94488983 140.19953285 30.25 133.1875 C46.54906408 124.47112479 55.89895289 110.30025258 62.11328125 93.18359375 C65.51604923 80.7309828 64.70850021 63.85478004 59 52.25 C58.649375 51.41210938 58.29875 50.57421875 57.9375 49.7109375 C50.53340173 33.10313373 36.36533736 23.09302823 20 16.25 C-5.63708306 7.4761439 -32.03103716 16.86334322 -48.625 37.875 Z " fill="#283744" transform="translate(344,68.75)"/>
<path d="M0 0 C3.40524375 0.68104875 4.52547983 1.6479153 6.5 4.5 C6.75 8.25 6.75 8.25 6.5 11.5 C7.16 11.54125 7.82 11.5825 8.5 11.625 C14.16770296 13.27808003 18.27085484 17.0250258 22 21.5 C23.70378787 24.90757574 24.1524729 26.7482808 23.5 30.5 C21.52113939 33.28506308 20.34067767 34.31084752 17 35.0625 C13.44931936 34.26359686 12.56071087 32.42487994 10.5 29.5 C7.15906825 25.85534719 5.20613065 24.66095572 0.1875 24.1875 C-4.38718244 24.57518495 -7.25280364 26.25280364 -10.5 29.5 C-10.91319366 33.54801273 -10.91319366 33.54801273 -10.5 37.5 C-7.23295622 41.06404776 -2.79141342 41.48301555 1.75 42.375 C10.57032135 44.28403543 17.28442225 46.67663337 22.5 54.5 C25.86299737 59.89785447 25.03481828 66.39072964 24.5 72.5 C22.83276303 79.1161872 18.0949762 83.81288925 12.5 87.5 C9 88.4375 9 88.4375 6.5 88.5 C6.561875 89.758125 6.62375 91.01625 6.6875 92.3125 C6.66934383 94.87705844 6.6515987 96.21463773 5.4375 98.5 C2.36784865 100.08433618 -0.11681143 99.86248449 -3.5 99.5 C-5.4375 98.4375 -5.4375 98.4375 -6.5 96.5 C-6.6875 92.8125 -6.6875 92.8125 -6.5 89.5 C-7.53125 89.4175 -8.5625 89.335 -9.625 89.25 C-15.31176374 88.14933605 -18.80149345 85.65438318 -22.375 81.1875 C-24.77480076 77.59937346 -25.08192594 74.82287842 -24.5 70.5 C-23.84 69.51 -23.18 68.52 -22.5 67.5 C-19.25 66.875 -19.25 66.875 -15.5 67.5 C-13.64677705 69.15151161 -12.23347965 70.87514404 -10.76171875 72.87109375 C-9.57893235 74.64105662 -9.57893235 74.64105662 -7.5 75.5 C-1.51858873 76.05941256 3.37594764 75.95873534 8.5 72.5 C10.47944936 69.53082597 10.79350581 68.84297721 10.8125 65.5 C10.82925781 64.819375 10.84601563 64.13875 10.86328125 63.4375 C10.35765735 60.74083918 9.77946318 60.06880701 7.5 58.5 C4.75687746 57.74456416 2.0944342 57.11787598 -0.6875 56.5625 C-10.24766697 54.45026523 -16.53389279 52.68894238 -22.37109375 44.40234375 C-25.60070533 38.96005711 -24.89271991 32.60981546 -24.5 26.5 C-22.6128148 20.13074997 -17.07634229 15.582256 -11.43359375 12.296875 C-9.5 11.5 -9.5 11.5 -6.5 11.5 C-6.5825 10.4275 -6.665 9.355 -6.75 8.25 C-6.5 4.5 -6.5 4.5 -4.8125 2.0625 C-2.5 0.5 -2.5 0.5 0 0 Z " fill="#293745" transform="translate(345.5,95.5)"/>
<path d="M0 0 C1.76665512 -0.01268921 1.76665512 -0.01268921 3.56900024 -0.02563477 C5.50940689 -0.01652573 5.50940689 -0.01652573 7.48901367 -0.00723267 C8.86388567 -0.01129735 10.23875441 -0.01663866 11.61361694 -0.02316284 C15.34914005 -0.03685466 19.08441496 -0.03153023 22.81994247 -0.02202559 C26.7263227 -0.01443859 30.63268145 -0.02147192 34.5390625 -0.02618408 C41.09956687 -0.03164445 47.65996998 -0.0244427 54.22045898 -0.01016235 C61.80895382 0.00616476 69.39720686 0.00087644 76.98569584 -0.01564157 C83.49702304 -0.02924848 90.00827739 -0.03118001 96.51961422 -0.02332556 C100.41030275 -0.01864464 104.30087758 -0.01803561 108.19155884 -0.02793503 C111.84910037 -0.03659093 115.50632969 -0.03060836 119.16383743 -0.01325226 C121.14920877 -0.00738268 123.13460646 -0.01631471 125.1199646 -0.02563477 C126.29773468 -0.01717529 127.47550476 -0.00871582 128.68896484 0 C130.2275843 0.00169662 130.2275843 0.00169662 131.79728699 0.00342751 C134.34448242 0.38095093 134.34448242 0.38095093 136.1686554 1.78366661 C137.62113006 3.75675869 137.80756392 4.94432997 137.84448242 7.38095093 C137.89088867 8.40188843 137.89088867 8.40188843 137.93823242 9.44345093 C137.34448242 11.38095093 137.34448242 11.38095093 135.1655426 12.9773941 C132.02654842 14.53913204 130.09835726 14.76225975 126.61376953 14.77536011 C124.89781082 14.7923848 124.89781082 14.7923848 123.14718628 14.80975342 C121.27838303 14.80535751 121.27838303 14.80535751 119.37182617 14.8008728 C118.05264191 14.80934235 116.73345764 14.81781189 115.3742981 14.82653809 C111.76274689 14.84872826 108.15142401 14.85168615 104.539814 14.84979057 C101.52282535 14.84967079 98.50588493 14.85823802 95.48890972 14.86656809 C88.37139854 14.88579215 81.25400464 14.88868921 74.13647461 14.88192749 C66.79665939 14.87528296 59.45734624 14.89816941 52.11763287 14.93524122 C45.81174416 14.96593424 39.50601703 14.97729884 33.20005512 14.97340441 C29.43553345 14.97133693 25.67140275 14.97681566 21.9069519 15.001297 C17.71000889 15.02769067 13.51412745 15.0138395 9.31713867 14.9961853 C7.44833542 15.01608017 7.44833542 15.01608017 5.54177856 15.03637695 C-3.82607604 14.94458941 -3.82607604 14.94458941 -6.93505859 12.03781128 C-9.02311173 8.81328477 -9.31131597 7.15179167 -8.65551758 3.38095093 C-6.22903688 -0.03051441 -4.03205566 0.00444609 0 0 Z " fill="#B4CED7" transform="translate(243.655517578125,296.6190490722656)"/>
<path d="M0 0 C2.79066464 1.3558131 3.86600558 2.55371372 6 5 C6.90374743 9.51873713 6.32284244 11.42721503 4.0625 15.4375 C0.4981749 18.41989447 -1.30354757 18.90400835 -5.83984375 18.5859375 C-9.83434051 17.50243928 -10.95654403 15.55956846 -13 12 C-13.73490789 7.99883483 -13.38814018 6.58221026 -11.125 3.1875 C-7.57528033 -0.46662319 -5.03391038 -0.50339104 0 0 Z " fill="#2D3946" transform="translate(133,156)"/>
<path d="M0 0 C3.55247432 0.87379409 4.94828114 2.4927342 6.9375 5.4765625 C7.63619998 8.31717881 7.630647 10.63523266 6.9375 13.4765625 C4.89954536 16.63210517 3.47025134 18.14383 -0.2578125 18.953125 C-4.30129543 19.20667674 -6.37941212 19.00970426 -9.625 16.4765625 C-11.46722331 12.63192254 -12.01521277 9.65838138 -11.0625 5.4765625 C-8.05531939 0.96579158 -5.26030565 -0.3785826 0 0 Z " fill="#293745" transform="translate(94.0625,155.5234375)"/>
<path d="M0 0 C10.56 0 21.12 0 32 0 C32.495 12.375 32.495 12.375 33 25 C31.21863323 21.43726645 30.73686665 20.17604413 30.5859375 16.453125 C30.55032715 15.69161133 30.5147168 14.93009766 30.47802734 14.14550781 C30.44402832 13.18999023 30.4100293 12.23447266 30.375 11.25 C30.25125 8.1975 30.1275 5.145 30 2 C15.15 1.505 15.15 1.505 0 1 C0 0.67 0 0.34 0 0 Z " fill="#B1C1CD" transform="translate(329,26)"/>
<path d="M0 0 C0.33 0 0.66 0 1 0 C1.99993151 10.73420452 2.80556256 20.67301084 -1 31 C-1.66 31.66 -2.32 32.32 -3 33 C-3.1638107 29.06854308 -3.0490774 26.18522762 -2.03125 22.34375 C-0.82787043 17.73951514 -0.56028398 13.24018174 -0.375 8.5 C-0.33632813 7.67757812 -0.29765625 6.85515625 -0.2578125 6.0078125 C-0.16468308 4.0055299 -0.08131015 2.00279738 0 0 Z " fill="#98A8B4" transform="translate(421,139)"/>
<path d="M0 0 C0.66 0.33 1.32 0.66 2 1 C-2.03523352 5.81123996 -6.04467233 10.13242719 -11 14 C-11 9.82308582 -8.77013484 7.86318847 -6 5 C-4.05228995 3.24842937 -2.05675499 1.62627139 0 0 Z " fill="#E8CA7B" transform="translate(308,94)"/>
<path d="M0 0 C0.33 0 0.66 0 1 0 C1.33 1.65 1.66 3.3 2 5 C2.33 5 2.66 5 3 5 C2.67 11.27 2.34 17.54 2 24 C1.67 24 1.34 24 1 24 C-0.12513633 15.98340366 -0.09579384 8.07861415 0 0 Z " fill="#4D5D6A" transform="translate(361,26)"/>
<path d="M0 0 C-2.44462067 5.46727972 -6.55749134 9.8047298 -11.9375 12.4375 C-12.9584375 12.7159375 -12.9584375 12.7159375 -14 13 C-3.15384615 0 -3.15384615 0 0 0 Z " fill="#31404D" transform="translate(274,50)"/>
<path d="M0 0 C0.33 0 0.66 0 1 0 C2.125 5.75 2.125 5.75 1 8 C0.84824451 9.59262066 0.75099675 11.19064856 0.68359375 12.7890625 C0.64169922 13.73007813 0.59980469 14.67109375 0.55664062 15.640625 C0.51732422 16.62546875 0.47800781 17.6103125 0.4375 18.625 C0.39431641 19.61757812 0.35113281 20.61015625 0.30664062 21.6328125 C0.20038931 24.08839838 0.09835036 26.54408703 0 29 C-0.33 29 -0.66 29 -1 29 C-1.02903892 24.91668161 -1.04681189 20.8333898 -1.0625 16.75 C-1.07087891 15.59113281 -1.07925781 14.43226563 -1.08789062 13.23828125 C-1.09111328 12.12324219 -1.09433594 11.00820312 -1.09765625 9.859375 C-1.10289307 8.83295898 -1.10812988 7.80654297 -1.11352539 6.74902344 C-1.01336951 4.32374344 -0.69923078 2.31302639 0 0 Z " fill="#344350" transform="translate(270,128)"/>
<path d="M0 0 C0.99 0.33 1.98 0.66 3 1 C2.22914063 1.69867188 1.45828125 2.39734375 0.6640625 3.1171875 C-0.34898233 4.03643189 -1.36200185 4.95570418 -2.375 5.875 C-3.13683594 6.56529297 -3.13683594 6.56529297 -3.9140625 7.26953125 C-5.98091811 9.14601858 -8.02570548 11.02570548 -10 13 C-9.48223379 8.89552608 -7.35372556 7.04300477 -4.4375 4.25 C-3.61121094 3.45078125 -2.78492188 2.6515625 -1.93359375 1.828125 C-1.29550781 1.22484375 -0.65742188 0.6215625 0 0 Z " fill="#232E3A" transform="translate(246,59)"/>
<path d="M0 0 C-1.5830577 4.2742558 -4.50568404 6.26531794 -8 9 C-7.53918323 4.85264908 -4.48412936 0 0 0 Z " fill="#98A8B3" transform="translate(436,219)"/>
<path d="M0 0 C0.66 0.99 1.32 1.98 2 3 C0.68 5.64 -0.64 8.28 -2 11 C-2.66 11 -3.32 11 -4 11 C-2.7874262 7.27566618 -1.49140021 3.62197194 0 0 Z " fill="#434749" transform="translate(403,167)"/>
<path d="M0 0 C3.36591866 1.44253657 5.51047079 3.33264727 8 6 C7.67 6.66 7.34 7.32 7 8 C5.8274869 7.04882866 4.66212985 6.08882991 3.5 5.125 C2.8503125 4.59132813 2.200625 4.05765625 1.53125 3.5078125 C1.0259375 3.01023438 0.520625 2.51265625 0 2 C0 1.34 0 0.68 0 0 Z " fill="#32424F" transform="translate(416,52)"/>
<path d="M0 0 C2.4375 1.3125 2.4375 1.3125 3.25 3.4375 C3.311875 4.05625 3.37375 4.675 3.4375 5.3125 C2.4475 4.6525 1.4575 3.9925 0.4375 3.3125 C-1.21799531 2.92750109 -2.8847433 2.58456865 -4.5625 2.3125 C-4.5625 1.6525 -4.5625 0.9925 -4.5625 0.3125 C-2.5625 -0.6875 -2.5625 -0.6875 0 0 Z " fill="#3A444F" transform="translate(394.5625,240.6875)"/>
<path d="M0 0 C0.99 0.33 1.98 0.66 3 1 C-0.465 3.97 -0.465 3.97 -4 7 C-3.04065919 3.16263678 -2.76390737 2.40339772 0 0 Z " fill="#25303C" transform="translate(141,361)"/>
<path d="M0 0 C-3.44450737 2.29633824 -5.93812283 2.54016485 -10 3 C-4.375 -1.3125 -4.375 -1.3125 0 0 Z " fill="#98A7B3" transform="translate(313,59)"/>
<path d="M0 0 C0.33 0 0.66 0 1 0 C2.11658501 4.68965706 1.80619523 7.53763531 0 12 C-0.33 12 -0.66 12 -1 12 C-1.14285714 3.42857143 -1.14285714 3.42857143 0 0 Z " fill="#50606D" transform="translate(270,128)"/>
</svg>
