<?xml version="1.0" encoding="UTF-8"?>
<svg version="1.1" xmlns="http://www.w3.org/2000/svg" width="500" height="500">
<path d="M0 0 C165 0 330 0 500 0 C500 165 500 330 500 500 C335 500 170 500 0 500 C0 335 0 170 0 0 Z " fill="#FCFCFB" transform="translate(0,0)"/>
<path d="M0 0 C11.28150296 6.99453184 13.29406296 16.93488151 16.3125 29.1875 C16.72145508 30.80011719 16.72145508 30.80011719 17.13867188 32.4453125 C17.52442383 33.99605469 17.52442383 33.99605469 17.91796875 35.578125 C18.26637817 36.97853027 18.26637817 36.97853027 18.62182617 38.40722656 C19.125 40.9375 19.125 40.9375 19.125 44.9375 C19.785 44.9375 20.445 44.9375 21.125 44.9375 C22.775 51.5375 24.425 58.1375 26.125 64.9375 C31.53932809 65.22585368 31.53932809 65.22585368 36.95410156 65.50561523 C37.6344043 65.54372314 38.31470703 65.58183105 39.015625 65.62109375 C39.70688477 65.65775146 40.39814453 65.69440918 41.11035156 65.73217773 C43.19128329 65.94425524 45.11072422 66.38258677 47.125 66.9375 C47.125 67.5975 47.125 68.2575 47.125 68.9375 C47.82625 69.02 48.5275 69.1025 49.25 69.1875 C55.22357578 70.74582412 59.95279439 74.68585527 63.125 79.9375 C67.22032687 88.56836803 68.47914845 97.47882398 67.125 106.9375 C63.62978815 116.51739959 56.76767112 123.67595754 48.125 128.9375 C47.135 128.9375 46.145 128.9375 45.125 128.9375 C45.455 133.2275 45.785 137.5175 46.125 141.9375 C46.785 141.9375 47.445 141.9375 48.125 141.9375 C49.27055837 146.277521 50.40969786 150.61916095 51.54296875 154.96240234 C51.92923656 156.43909898 52.31724196 157.91534226 52.70703125 159.39111328 C53.26762096 161.51477583 53.82190226 163.64000061 54.375 165.765625 C54.54999023 166.42306702 54.72498047 167.08050903 54.90527344 167.75787354 C55.73712245 170.97971933 56.125 173.57280998 56.125 176.9375 C56.785 176.9375 57.445 176.9375 58.125 176.9375 C59.9239567 185.13602399 60.42143335 192.60342607 55.8203125 199.92578125 C52.08447255 204.35886322 46.92844898 208.01398552 41.125 208.9375 C34.29665042 209.40120949 27.7616211 207.96436649 21.0625 206.75 C19.12158946 206.40742843 17.1806752 206.06487668 15.23956299 205.72344971 C13.2188622 205.36767473 11.19853754 205.00981462 9.17822266 204.65185547 C-9.78457345 201.30119859 -28.75338452 198.22992419 -47.875 195.9375 C-47.875 195.2775 -47.875 194.6175 -47.875 193.9375 C-49.00808594 193.88142578 -49.00808594 193.88142578 -50.1640625 193.82421875 C-57.8529587 193.36504579 -65.3810129 192.48356909 -73 191.375 C-80.70166608 190.26183784 -88.08179991 189.49358354 -95.875 189.9375 C-93.09841737 196.70763552 -90.24679977 203.42843961 -87.18359375 210.07421875 C-86.53583984 211.49154297 -86.53583984 211.49154297 -85.875 212.9375 C-85.58463867 213.56503174 -85.29427734 214.19256348 -84.99511719 214.83911133 C-82.10147941 221.1974996 -79.66107551 227.69589306 -77.25 234.25 C-76.46819816 236.37185106 -75.68442391 238.49297669 -74.8984375 240.61328125 C-74.38676025 242.0041394 -74.38676025 242.0041394 -73.86474609 243.4230957 C-72.92599655 245.91712344 -72.92599655 245.91712344 -71.77172852 248.14257812 C-70.03614736 251.61657558 -70.29140186 255.17118626 -70.875 258.9375 C-73.17427586 265.11495359 -76.04669713 268.71695414 -81.875 271.9375 C-84.63490757 272.79561365 -87.39327099 273.27013479 -90.25 273.6875 C-91.03294434 273.80673828 -91.81588867 273.92597656 -92.62255859 274.04882812 C-113.28783475 276.96236152 -113.28783475 276.96236152 -120.5625 272.9375 C-126.93503973 267.67364288 -129.77251257 260.31600218 -132.1875 252.625 C-132.45111328 251.82771484 -132.71472656 251.03042969 -132.98632812 250.20898438 C-134.875 244.37617695 -134.875 244.37617695 -134.875 240.9375 C-135.535 240.9375 -136.195 240.9375 -136.875 240.9375 C-138.28231115 236.45390952 -139.68811251 231.9698495 -141.0925293 227.48535156 C-141.57030647 225.96048254 -142.04849278 224.43574164 -142.52709961 222.91113281 C-143.21576338 220.71713443 -143.9029447 218.52267642 -144.58984375 216.328125 C-144.91020851 215.30915131 -144.91020851 215.30915131 -145.23704529 214.26959229 C-146.20359573 211.17692269 -147.14184009 208.09464795 -147.875 204.9375 C-148.80699219 204.97230469 -149.73898438 205.00710938 -150.69921875 205.04296875 C-167.20940369 205.39353891 -181.39383821 201.96051273 -193.7421875 190.3203125 C-204.92058837 177.83162289 -208.75929376 163.83240009 -208.19921875 147.4765625 C-207.86750051 141.71161093 -206.82247258 136.37846505 -204.875 130.9375 C-204.52695313 129.90689453 -204.52695313 129.90689453 -204.171875 128.85546875 C-199.47102897 117.54117758 -186.79830916 106.24548157 -175.75 101.6328125 C-168.28187249 99.17335705 -160.66294141 97.90621284 -152.875 96.9375 C-152.875 96.2775 -152.875 95.6175 -152.875 94.9375 C-152.02381592 94.75687012 -151.17263184 94.57624023 -150.2956543 94.39013672 C-147.08111033 93.69926399 -143.87075329 92.9928749 -140.66186523 92.27636719 C-139.28331528 91.97176841 -137.90344551 91.67307098 -136.5222168 91.38085938 C-120.20079779 87.91856054 -108.16673189 80.61236525 -96.55859375 68.62890625 C-94.87198339 66.93446939 -93.12446117 65.37162938 -91.3125 63.8125 C-87.40884221 60.44911454 -83.64058776 56.95340536 -79.875 53.4375 C-72.61554664 46.66295915 -72.61554664 46.66295915 -68.9375 43.5 C-64.97989308 40.0894489 -61.18516539 36.51057197 -57.375 32.9375 C-52.94418433 28.78293587 -48.49905463 24.66952958 -43.89453125 20.70703125 C-41.1801236 18.32864311 -38.52980416 15.88185238 -35.875 13.4375 C-34.84268833 12.49062324 -33.81014088 11.54400347 -32.77734375 10.59765625 C-31.01651137 8.98375739 -29.25802803 7.36728373 -27.50390625 5.74609375 C-26.48103516 4.81990234 -26.48103516 4.81990234 -25.4375 3.875 C-24.86128906 3.34777344 -24.28507813 2.82054687 -23.69140625 2.27734375 C-17.30482825 -2.43361593 -7.34317162 -2.70362228 0 0 Z " fill="#24313E" transform="translate(260.875,131.0625)"/>
<path d="M0 0 C0.88929199 -0.00306152 1.77858398 -0.00612305 2.69482422 -0.00927734 C13.65813501 0.27321287 25.98453455 3.4896897 35.1875 9.625 C35.1875 10.285 35.1875 10.945 35.1875 11.625 C36.1775 11.9034375 36.1775 11.9034375 37.1875 12.1875 C41.53144571 14.26897399 44.68961109 17.35407335 48.1875 20.625 C48.80109375 21.17414063 49.4146875 21.72328125 50.046875 22.2890625 C54.87748799 26.79905958 57.97830164 31.88901903 61.1875 37.625 C61.69539062 38.42679688 62.20328125 39.22859375 62.7265625 40.0546875 C64.31765571 42.85399052 65.32080748 45.5640278 66.3125 48.625 C66.81136719 50.1409375 66.81136719 50.1409375 67.3203125 51.6875 C69.23055618 58.15823534 69.37073916 64.1684344 69.375 70.875 C69.38724609 71.87402344 69.39949219 72.87304688 69.41210938 73.90234375 C69.45033765 93.39876481 60.69204629 109.91822257 47.1875 123.625 C41.24851181 129.57457463 34.94653721 134.26699045 27.1875 137.625 C26.1975 137.625 25.2075 137.625 24.1875 137.625 C24.1875 138.285 24.1875 138.945 24.1875 139.625 C16.44350322 142.12901271 9.43605612 143.10991925 1.3125 143 C0.26835937 142.99419922 -0.77578125 142.98839844 -1.8515625 142.98242188 C-9.51282472 142.85378128 -16.49631713 142.0256225 -23.8125 139.625 C-23.8125 138.965 -23.8125 138.305 -23.8125 137.625 C-24.50730469 137.53089844 -25.20210938 137.43679687 -25.91796875 137.33984375 C-29.40622656 136.47837117 -32.02991023 135.00525113 -35.125 133.1875 C-36.72794922 132.26130859 -36.72794922 132.26130859 -38.36328125 131.31640625 C-39.17152344 130.75824219 -39.97976563 130.20007813 -40.8125 129.625 C-40.8125 128.965 -40.8125 128.305 -40.8125 127.625 C-41.6478125 127.25375 -41.6478125 127.25375 -42.5 126.875 C-47.82980164 123.99402614 -51.31818205 120.02903759 -54.75 115.125 C-55.1838501 114.5069751 -55.6177002 113.8889502 -56.06469727 113.25219727 C-68.61396666 95.01168105 -71.52683726 75.22164783 -67.55859375 53.6015625 C-63.04828766 35.60756649 -50.81393138 20.29341003 -35.4765625 10.1171875 C-30.49330988 7.32598149 -25.22669068 5.40534198 -19.8125 3.625 C-19.05751221 3.36605957 -18.30252441 3.10711914 -17.5246582 2.84033203 C-11.61869836 0.91446305 -6.20814068 0.01317568 0 0 Z " fill="#25303E" transform="translate(400.8125,86.375)"/>
<path d="M0 0 C4.1220336 11.90997414 7.50619094 23.87613606 10.5 36.125 C11.4950989 40.15354556 12.627371 44.10502081 13.875 48.0625 C15.78092639 54.13403066 17.40607107 60.25392969 18.99902344 66.41259766 C20.84927529 73.52494324 22.86600421 80.58384935 24.9074707 87.64331055 C26.21413896 92.18210731 27.46069904 96.71855025 28.5625 101.3125 C29.81147222 106.48368324 31.40165494 111.52450581 33.02368164 116.5871582 C34.68932767 121.85064925 36.12776146 127.15318791 37.5 132.5 C39.40327376 139.90930714 41.54790797 147.20130298 43.88671875 154.484375 C47 164.31578947 47 164.31578947 47 169 C43.43594275 168.59608282 39.87419918 168.17416798 36.3125 167.75 C35.34376953 167.64042969 34.37503906 167.53085937 33.37695312 167.41796875 C26.57173288 166.59702155 19.87851856 165.43552562 13.15625 164.1171875 C2.5511493 162.04270719 -8.0945582 160.37947564 -18.78588867 158.81738281 C-21.82869011 158.37263358 -24.87044568 157.92120875 -27.91210938 157.46875 C-38.92592277 155.83873371 -49.94362596 154.31305124 -61 153 C-64.22893698 144.45681984 -66.87521023 135.96465672 -69.12158203 127.11328125 C-70.74049572 120.80470749 -72.70102114 114.69679201 -74.81640625 108.53515625 C-76.34647083 103.96516137 -77.65985083 99.34981697 -78.94921875 94.70703125 C-79.73318043 91.94130771 -80.54695405 89.19536886 -81.39453125 86.44921875 C-81.62978516 85.67884277 -81.86503906 84.9084668 -82.10742188 84.11474609 C-82.56934635 82.60645392 -83.03786214 81.10016102 -83.51367188 79.59619141 C-85.11181274 74.33543823 -85.11181274 74.33543823 -84 71 C-82.11318498 69.59585859 -80.16370061 68.27527062 -78.1875 67 C-71.77983606 62.72763605 -66.16029515 57.83470985 -60.59619141 52.51953125 C-57.67249938 49.73625515 -54.70851384 46.99615015 -51.75 44.25 C-51.15082764 43.69231934 -50.55165527 43.13463867 -49.93432617 42.56005859 C-46.36007121 39.23894065 -42.74038221 35.98528721 -39.046875 32.796875 C-36.36932097 30.44635047 -33.74715185 28.03685396 -31.125 25.625 C-26.59399726 21.45738595 -22.04072208 17.31680251 -17.45703125 13.20703125 C-15.72051024 11.64719919 -13.98923588 10.08151677 -12.26171875 8.51171875 C-11.37097656 7.70347656 -10.48023438 6.89523438 -9.5625 6.0625 C-8.75941406 5.33160156 -7.95632812 4.60070312 -7.12890625 3.84765625 C-2.69556025 0 -2.69556025 0 0 0 Z " fill="#8FB4C4" transform="translate(232,156)"/>
<path d="M0 0 C0.17539307 0.63164062 0.35078613 1.26328125 0.53149414 1.9140625 C8.6778843 31.52167783 8.6778843 31.52167783 17.93359375 60.79296875 C22.21413992 73.66596657 22.21413992 73.66596657 22 80 C21.16082031 80.21914063 20.32164062 80.43828125 19.45703125 80.6640625 C11.71429071 82.70555679 4.00690219 84.84560889 -3.6875 87.0625 C-6.34314095 87.82166074 -8.99937762 88.57865678 -11.65625 89.33349609 C-13.65722067 89.90252213 -15.65687477 90.47617448 -17.65625 91.05078125 C-30.0492192 94.42051901 -41.8172259 93.68757466 -53.25 87.375 C-63.35251515 80.81323775 -69.23866625 71.56235068 -72 60 C-72.29476045 56.86956062 -72.32505055 53.76765728 -72.3125 50.625 C-72.32861328 49.82578125 -72.34472656 49.0265625 -72.36132812 48.203125 C-72.37069297 36.62817914 -67.85199773 28.92674952 -59.859375 20.83203125 C-51.42990195 12.977295 -43.12806904 9.36323602 -31.9375 6.9375 C-29.72509715 6.43431107 -27.5128575 5.93040403 -25.30078125 5.42578125 C-24.22908691 5.18553223 -23.15739258 4.9452832 -22.05322266 4.69775391 C-16.64571846 3.46197532 -11.28341797 2.05444297 -5.9140625 0.6640625 C-3 0 -3 0 0 0 Z " fill="#EA836C" transform="translate(136,232)"/>
<path d="M0 0 C8.54361131 6.41895008 14.93462484 12.72564849 19.96875 22.23046875 C20.55011719 23.27203125 21.13148438 24.31359375 21.73046875 25.38671875 C27.44501076 37.2154211 26.56513543 49.3470142 25.96875 62.23046875 C25.30875 62.23046875 24.64875 62.23046875 23.96875 62.23046875 C23.88625 63.34421875 23.80375 64.45796875 23.71875 65.60546875 C22.6615746 73.90135901 19.06316228 80.72094194 13.96875 87.23046875 C12.03744395 85.37641494 10.19176468 83.50317371 8.49609375 81.4296875 C2.0642458 73.59895064 -5.3491919 68.27852408 -15.03125 65.23046875 C-15.03125 64.57046875 -15.03125 63.91046875 -15.03125 63.23046875 C-14.28875 62.50859375 -13.54625 61.78671875 -12.78125 61.04296875 C-6.1038102 54.21376895 -4.7144607 47.57313707 -4.81640625 38.2734375 C-5.20162336 32.81736241 -6.66363098 28.91988049 -10.15625 24.60546875 C-17.69499447 18.37781027 -23.42281604 14.8326185 -33.3046875 14.94921875 C-40.58452889 15.70014795 -47.01911844 18.97966426 -52.03125 24.23046875 C-56.64173927 31.52423313 -57.74903232 38.69538446 -57.03125 47.23046875 C-55.68488774 53.14598168 -52.59259577 57.41783933 -49.03125 62.23046875 C-49.03125 62.89046875 -49.03125 63.55046875 -49.03125 64.23046875 C-50.2996875 64.86662109 -50.2996875 64.86662109 -51.59375 65.515625 C-61.79699665 70.7911673 -69.47037774 75.93750808 -75.03125 86.23046875 C-78.03125 85.23046875 -78.03125 85.23046875 -79.75 82.3515625 C-80.35408764 81.12875073 -80.94744296 79.9005919 -81.53125 78.66796875 C-81.82644531 78.07177734 -82.12164062 77.47558594 -82.42578125 76.86132812 C-83.33173173 74.99954003 -84.18610761 73.12056279 -85.03125 71.23046875 C-85.3195166 70.62662354 -85.6077832 70.02277832 -85.90478516 69.40063477 C-88.4965557 63.44325845 -88.47809281 57.71491801 -88.40625 51.29296875 C-88.41785156 50.25978516 -88.42945313 49.22660156 -88.44140625 48.16210938 C-88.41649137 41.60534473 -87.48315963 36.29699293 -85.03125 30.23046875 C-84.71542969 29.31136719 -84.39960938 28.39226562 -84.07421875 27.4453125 C-78.88058635 13.61934131 -67.29466089 1.64934668 -54.03125 -4.76953125 C-36.14815013 -11.35598443 -15.99926332 -10.87078658 0 0 Z " fill="#F9C579" transform="translate(432.03125,107.76953125)"/>
<path d="M0 0 C1.01964844 -0.03351563 2.03929687 -0.06703125 3.08984375 -0.1015625 C6.3765415 0.70175653 7.91682594 1.78266298 9.93041992 4.50292969 C12.43458714 9.19696062 13.49515456 14.42592311 14.75 19.5625 C15.33708805 21.86331992 15.92432347 24.16410224 16.51171875 26.46484375 C16.77919922 27.53903564 17.04667969 28.61322754 17.32226562 29.7199707 C17.92214658 32.07418688 18.56537515 34.39977834 19.26171875 36.7265625 C20.11407156 39.81166389 20.21788344 42.43963949 20.0625 45.625 C20.7225 45.625 21.3825 45.625 22.0625 45.625 C22.27342285 46.42381592 22.4843457 47.22263184 22.70166016 48.0456543 C26.75859628 63.38958985 30.88911794 78.70254407 35.29296875 93.95117188 C39.22154268 107.60147064 43.11653884 121.25443343 46.37719727 135.08227539 C47.23323679 138.64264775 48.17425902 142.06225097 49.50390625 145.4765625 C51.46884788 150.52490302 52.85732704 155.70723932 54.25 160.9375 C54.52263672 161.90623047 54.79527344 162.87496094 55.07617188 163.87304688 C56.8199487 170.42422849 57.91267805 176.83608906 57.0625 183.625 C55.1656157 186.28063802 53.91764945 187.19742527 51.0625 188.625 C48.25 189 48.25 189 45.0625 188.625 C37.35782342 182.71210867 35.93901852 172.92540918 33.625 164 C31.58767308 156.27949152 29.50260712 148.6075703 27.0859375 140.99609375 C24.81182547 133.50541175 22.8488071 125.92211683 20.80615234 118.36572266 C19.69793331 114.28139341 18.57066913 110.20246805 17.4375 106.125 C17.23116943 105.3815332 17.02483887 104.63806641 16.81225586 103.87207031 C15.63294876 99.63507278 14.41917204 95.40963 13.1875 91.1875 C11.52175868 85.41472847 10.02619376 79.60620276 8.54223633 73.78417969 C6.10776956 64.23811518 3.59027389 54.87029059 0.31640625 45.578125 C-1.80677099 39.21030689 -3.24805823 32.62302761 -4.79516602 26.09692383 C-6.16097647 20.40862039 -7.80928649 15.07199285 -9.9375 9.625 C-10.375 6.875 -10.375 6.875 -9.9375 4.625 C-6.92099272 0.79745067 -4.82585581 0.03651341 0 0 Z " fill="#E8846C" transform="translate(250.9375,140.375)"/>
<path d="M0 0 C0.34780518 0.84183838 0.69561035 1.68367676 1.05395508 2.55102539 C2.35632571 5.70270592 3.65910692 8.85421609 4.9621582 12.00561523 C5.52384389 13.36427213 6.08537038 14.72299485 6.64672852 16.08178711 C7.45806735 18.04558769 8.26999661 20.0091433 9.08203125 21.97265625 C9.56905518 23.15093994 10.0560791 24.32922363 10.55786133 25.54321289 C12.01616607 29.03874984 13.5031423 32.52081725 15 36 C16.41836433 39.30350358 17.8098945 42.61679814 19.1875 45.9375 C19.55552734 46.79279297 19.92355469 47.64808594 20.30273438 48.52929688 C22.52565448 53.93606545 23.78931441 58.14644432 23 64 C21.51171875 66.421875 21.51171875 66.421875 19 68 C16.17726275 68.61629279 13.66436367 69.01451365 10.8125 69.25 C10.05163086 69.32154297 9.29076172 69.39308594 8.50683594 69.46679688 C7.00815138 69.60135171 5.50860274 69.72666896 4.00830078 69.84179688 C2.35557364 69.97198982 0.70622086 70.14432596 -0.94140625 70.328125 C-3.25 70.5 -3.25 70.5 -7 70 C-12.64020327 64.85024919 -15.05714114 58.29509567 -17 51.0625 C-19.90280113 40.63786845 -23.65917798 30.50610646 -27.34179688 20.33813477 C-27.58210129 19.67148804 -27.8224057 19.00484131 -28.06999207 18.31799316 C-28.73357047 16.4785877 -29.40145271 14.64073655 -30.06958008 12.80297852 C-31 10 -31 10 -31 8 C-28.06937827 6.40451442 -25.33521609 5.48586 -22.0859375 4.74609375 C-21.16039062 4.53146484 -20.23484375 4.31683594 -19.28125 4.09570312 C-18.3221875 3.87849609 -17.363125 3.66128906 -16.375 3.4375 C-14.46564243 3.00089357 -12.55676194 2.56219388 -10.6484375 2.12109375 C-9.80458496 1.9295874 -8.96073242 1.73808105 -8.09130859 1.54077148 C-2.13273138 0 -2.13273138 0 0 0 Z " fill="#90B4C4" transform="translate(155,325)"/>
<path d="M0 0 C6.41265137 4.03586925 13.50993785 8.56663022 16.6875 15.69140625 C16.59953983 18.79778896 16.23685337 20.13683338 14.04296875 22.3515625 C8.70053249 25.80730055 3.48596086 28.01421792 -2.61328125 29.83203125 C-5.24382366 30.56053469 -5.24382366 30.56053469 -7.15234375 31.76953125 C-15.55804361 35.35677387 -27.54508553 33.26159032 -35.8125 30.12890625 C-42.01423798 27.61068948 -48.6572036 24.59289621 -53.3125 19.69140625 C-53.3125 14.0169771 -50.84226855 10.99830492 -47.3125 6.69140625 C-35.22660982 -5.10025814 -15.13770743 -7.54735129 0 0 Z " fill="#E8856B" transform="translate(419.3125,185.30859375)"/>
<path d="M0 0 C3.69363257 2.18382656 6.02143248 3.91708672 7.578125 8.015625 C8.37887733 13.57433596 8.15579897 18.79606131 4.96875 23.54296875 C1.29248018 27.43609718 -3.31430526 29.21289499 -8.609375 29.453125 C-13.90100257 28.84588905 -16.19206213 27.41624521 -19.671875 23.453125 C-23.20316292 18.5345454 -23.02466013 13.94301212 -22.421875 8.015625 C-18.06809496 -1.01443732 -9.27810765 -3.77110182 0 0 Z " fill="#E89D76" transform="translate(408.421875,135.984375)"/>
<path d="M0 0 C7.36163072 -0.35620794 14.83669531 -0.18568659 20.9296875 4.4765625 C24.82410088 8.55731145 25.94154377 12.39794491 26 18 C26.04898437 18.91652344 26.09796875 19.83304688 26.1484375 20.77734375 C26.3994662 27.9702816 25.51115795 31.29567605 20.5625 36.625 C14.76315789 42 14.76315789 42 12 42 C7.36460976 30.01013587 3.52251861 17.61259306 1 5 C0.690625 3.4840625 0.690625 3.4840625 0.375 1.9375 C0.25125 1.298125 0.1275 0.65875 0 0 Z " fill="#91B6C6" transform="translate(290,208)"/>
<path d="M0 0 C5.41458428 6.59166782 4.78869597 14.84454806 4 23 C2.74285669 26.35824297 1.16394886 29.14822454 -1 32 C-2 30 -2 30 -1.43041992 28.22485352 C-1.13756104 27.51256592 -0.84470215 26.80027832 -0.54296875 26.06640625 C1.39414499 20.5637684 1.13957257 15.68642288 0.6875 9.9375 C0.5956543 8.49600586 0.5956543 8.49600586 0.50195312 7.02539062 C0.35039374 4.68204936 0.18284123 2.34107216 0 0 Z " fill="#383D46" transform="translate(324,215)"/>
<path d="M0 0 C13.12565529 -0.6068368 26.93499976 0.22376372 38 8 C33.82412255 9.39195915 31.86525224 7.82323219 28 6 C28 5.34 28 4.68 28 4 C27.46375 4.20625 26.9275 4.4125 26.375 4.625 C24 5 24 5 21.4375 4.0625 C17.12966296 2.73098673 13.10733569 2.54657266 8.625 2.375 C7.79355469 2.33632812 6.96210938 2.29765625 6.10546875 2.2578125 C4.07064844 2.16425754 2.03535584 2.08107287 0 2 C0 1.34 0 0.68 0 0 Z " fill="#D8C478" transform="translate(393,99)"/>
<path d="M0 0 C19.70524784 0.11540409 19.70524784 0.11540409 23.85546875 4.265625 C14.4097337 4.57032613 5.21332515 3.40732426 -4.14453125 2.265625 C-2.14453125 0.265625 -2.14453125 0.265625 0 0 Z " fill="#232A33" transform="translate(171.14453125,317.734375)"/>
<path d="M0 0 C0.99 0.495 0.99 0.495 2 1 C5.74342842 1.12478095 9.12778884 1.15505976 12.8125 0.5 C17.5342024 -0.2406592 22.23039006 -0.07638165 27 0 C20.08734269 4.60843821 10.104869 4.27474132 2 4 C1.34 2.68 0.68 1.36 0 0 Z " fill="#9BC1D1" transform="translate(146,391)"/>
<path d="M0 0 C-2.77994451 1.85329634 -4.78256551 2.68563605 -7.9375 3.625 C-9.21947266 4.01558594 -9.21947266 4.01558594 -10.52734375 4.4140625 C-13 5 -13 5 -17 5 C-16.649375 5.763125 -16.29875 6.52625 -15.9375 7.3125 C-15 10 -15 10 -16 13 C-16.99 10.03 -17.98 7.06 -19 4 C-15.72134908 2.36067454 -13.55518221 1.55308622 -10.0625 0.875 C-8.81146484 0.62363281 -8.81146484 0.62363281 -7.53515625 0.3671875 C-4.98541981 -0.00211177 -2.57240933 -0.06442528 0 0 Z " fill="#9AC1D1" transform="translate(143,329)"/>
<path d="M0 0 C7.07409145 -0.27741535 14.10098718 0.35882514 21 2 C21.33 2.66 21.66 3.32 22 4 C14.37404682 4.45755719 7.3970146 2.74536299 0 1 C0 0.67 0 0.34 0 0 Z " fill="#182230" transform="translate(247,321)"/>
<path d="M0 0 C3.24669374 2.62827588 4.91295135 6.03680179 6 10 C6.23050021 13.02051312 6.18500938 15.97818015 6 19 C5.34 19 4.68 19 4 19 C3.52040222 16.77092605 3.0413392 14.54173703 2.5625 12.3125 C2.16224609 10.45044922 2.16224609 10.45044922 1.75390625 8.55078125 C1.14944864 5.70387985 0.56235316 2.85544374 0 0 Z " fill="#303640" transform="translate(184,371)"/>
<path d="M0 0 C0 0.66 0 1.32 0 2 C-7.26064895 6.84043263 -12.40161874 6.71967625 -21 5 C-21 4.67 -21 4.34 -21 4 C-20.13117188 3.96261719 -19.26234375 3.92523438 -18.3671875 3.88671875 C-12.15002121 3.53204819 -5.49701676 0 0 0 Z " fill="#202730" transform="translate(313,333)"/>
<path d="M0 0 C0.90019456 3.02603863 1.02683383 5.54453979 0.875 8.6875 C0.79709686 13.93038159 2.04224133 18.17552328 4 23 C1.28818337 22.00566724 0.18887124 21.32892653 -1.26953125 18.7890625 C-2.14455888 15.44804791 -2.01504794 12.8083338 -1.6875 9.375 C-1.58824219 8.24835938 -1.48898437 7.12171875 -1.38671875 5.9609375 C-1 3 -1 3 0 0 Z " fill="#B4A36C" transform="translate(374,141)"/>
<path d="M0 0 C4.31730413 0.47409648 6.33647461 3.03396703 9.25 6.0625 C10.14203125 6.98160156 11.0340625 7.90070313 11.953125 8.84765625 C12.62859375 9.55792969 13.3040625 10.26820312 14 11 C13.67 11.99 13.34 12.98 13 14 C12.48050781 13.40832031 11.96101563 12.81664063 11.42578125 12.20703125 C7.7252714 8.0140321 4.01715916 3.89162293 0 0 Z " fill="#1E242D" transform="translate(441,102)"/>
<path d="M0 0 C0.99 0.33 1.98 0.66 3 1 C2.34 1 1.68 1 1 1 C0.773125 1.598125 0.54625 2.19625 0.3125 2.8125 C-1.36506953 5.60844922 -3.16934094 6.42009727 -6 8 C-7.68477344 9.31037934 -9.35648543 10.63823078 -11 12 C-9.60609461 8.84280428 -7.96365028 6.7187347 -5.5 4.3125 C-4.8915625 3.71050781 -4.283125 3.10851562 -3.65625 2.48828125 C-2 1 -2 1 0 0 Z " fill="#EED480" transform="translate(369,109)"/>
<path d="M0 0 C1.84851083 2.77276624 2.5205764 4.39992766 3.25 7.5625 C3.44078125 8.34753906 3.6315625 9.13257813 3.828125 9.94140625 C3.88484375 10.62074219 3.9415625 11.30007813 4 12 C3.34 12.66 2.68 13.32 2 14 C1.46658816 12.42085985 0.94874237 10.83645613 0.4375 9.25 C0.14746094 8.36828125 -0.14257812 7.4865625 -0.44140625 6.578125 C-1.01697435 3.92165684 -0.89248371 2.52968894 0 0 Z " fill="#3B414A" transform="translate(122,358)"/>
<path d="M0 0 C2.31309705 0.11341637 4.62550185 0.24103807 6.9375 0.375 C8.86916016 0.47941406 8.86916016 0.47941406 10.83984375 0.5859375 C12.40412109 0.79089844 12.40412109 0.79089844 14 1 C14.33 1.66 14.66 2.32 15 3 C9.5610835 3.21755666 5.12919186 3.10428384 0 1 C0 0.67 0 0.34 0 0 Z " fill="#18202A" transform="translate(230,327)"/>
<path d="M0 0 C0.99 0.33 1.98 0.66 3 1 C1.38050958 2.50594681 -0.24575974 4.00460668 -1.875 5.5 C-3.23238281 6.75296875 -3.23238281 6.75296875 -4.6171875 8.03125 C-7 10 -7 10 -9 10 C-7.63491499 6.88271632 -6.13080302 4.91336262 -3.5625 2.6875 C-2.96566406 2.15511719 -2.36882812 1.62273437 -1.75390625 1.07421875 C-1.17511719 0.71972656 -0.59632813 0.36523438 0 0 Z " fill="#99C1CF" transform="translate(194,188)"/>
<path d="M0 0 C3.08693704 1.35852131 5.08641734 2.84510953 7.3125 5.375 C7.84488281 5.96023437 8.37726563 6.54546875 8.92578125 7.1484375 C10 9 10 9 9.66796875 11.2265625 C9.44753906 11.81179687 9.22710937 12.39703125 9 13 C7.8745809 11.39612733 6.74968028 9.79189084 5.625 8.1875 C4.99851562 7.29417969 4.37203125 6.40085938 3.7265625 5.48046875 C2.46449761 3.66732122 1.22541192 1.83811789 0 0 Z " fill="#20253A" transform="translate(434,183)"/>
<path d="M0 0 C0.66 0.33 1.32 0.66 2 1 C2.27429625 6.39449293 2.36055646 9.51925805 -1 14 C-1.33 13.01 -1.66 12.02 -2 11 C-1.67 10.67 -1.34 10.34 -1 10 C-0.76712992 8.31816052 -0.58735834 6.6287584 -0.4375 4.9375 C-0.35371094 4.01839844 -0.26992188 3.09929687 -0.18359375 2.15234375 C-0.12300781 1.44207031 -0.06242187 0.73179687 0 0 Z " fill="#E7AA7E" transform="translate(414,145)"/>
<path d="M0 0 C0.33 0 0.66 0 1 0 C0.25 7.75 0.25 7.75 -2 10 C-2.71408334 11.98356483 -3.38617742 13.98315437 -4 16 C-5.16161779 13.13421241 -4.9946154 11.98369837 -4.00390625 8.984375 C-3.52824219 7.91703125 -3.05257813 6.8496875 -2.5625 5.75 C-2.08941406 4.67234375 -1.61632812 3.5946875 -1.12890625 2.484375 C-0.75636719 1.66453125 -0.38382812 0.8446875 0 0 Z " fill="#4E525A" transform="translate(339,125)"/>
<path d="M0 0 C2.18975773 3.28463659 2.99806563 6.20696275 4 10 C3.34 10.66 2.68 11.32 2 12 C1.4654744 10.75579353 0.94791389 9.50429064 0.4375 8.25 C0.14746094 7.55390625 -0.14257812 6.8578125 -0.44140625 6.140625 C-1.07831803 3.69987216 -0.80248831 2.3596345 0 0 Z " fill="#353B44" transform="translate(131,383)"/>
<path d="M0 0 C0.66 0.99 1.32 1.98 2 3 C0.35 4.65 -1.3 6.3 -3 8 C-3.99 7.67 -4.98 7.34 -6 7 C-4.02 4.69 -2.04 2.38 0 0 Z " fill="#313641" transform="translate(365,182)"/>
<path d="M0 0 C-3.2645028 3.2645028 -7.41047299 3.93236055 -11.9375 4.125 C-12.618125 4.08375 -13.29875 4.0425 -14 4 C-13.01 3.67 -12.02 3.34 -11 3 C-11 2.34 -11 1.68 -11 1 C-7.27569643 0.30710631 -3.78916254 -0.11144596 0 0 Z " fill="#1E252F" transform="translate(136,221)"/>
<path d="M0 0 C2.65269897 2.47585238 4.68010103 4.59026101 6 8 C6 8.99 6 9.98 6 11 C5.34 11 4.68 11 4 11 C2.03810791 7.3321148 0.60698743 4.12751449 0 0 Z " fill="#333441" transform="translate(421,131)"/>
<path d="M0 0 C0 0.66 0 1.32 0 2 C0.99 2.33 1.98 2.66 3 3 C3.66 3.66 4.32 4.32 5 5 C0.94393835 4.53199289 -2.46588679 4.12046792 -6 2 C-3 0 -3 0 0 0 Z " fill="#434951" transform="translate(383,223)"/>
<path d="M0 0 C3.26023324 0.22484367 4.93132641 0.5260489 7.625 2.25 C2.99578475 3.2661692 -0.71962607 3.08796731 -5.375 2.25 C-3.375 0.25 -3.375 0.25 0 0 Z " fill="#40464F" transform="translate(300.375,196.75)"/>
<path d="M0 0 C0.99 0.33 1.98 0.66 3 1 C3.33 4.3 3.66 7.6 4 11 C3.34 10.67 2.68 10.34 2 10 C1.3671875 7.71484375 1.3671875 7.71484375 0.875 4.9375 C0.70742188 4.01839844 0.53984375 3.09929687 0.3671875 2.15234375 C0.24601562 1.44207031 0.12484375 0.73179687 0 0 Z " fill="#212833" transform="translate(273,155)"/>
<path d="M0 0 C0.33 0.66 0.66 1.32 1 2 C1.66 2 2.32 2 3 2 C3.33 4.64 3.66 7.28 4 10 C3.34 10 2.68 10 2 10 C0.68373308 6.38026598 0 3.90432869 0 0 Z " fill="#D5836A" transform="translate(263,159)"/>
<path d="M0 0 C2 1 2 1 3.125 3.375 C4 6 4 6 4 9 C3.01 9.33 2.02 9.66 1 10 C0.67 6.7 0.34 3.4 0 0 Z " fill="#313842" transform="translate(169,333)"/>
<path d="M0 0 C0.99 0.33 1.98 0.66 3 1 C-0.465 3.97 -0.465 3.97 -4 7 C-4.66 6.67 -5.32 6.34 -6 6 C-4 4 -2 2 0 0 Z " fill="#97BDCC" transform="translate(161,218)"/>
<path d="M0 0 C3.85233752 3.2739705 3.60102096 6.13245571 4 11 C1 9 1 9 0.48828125 6.8359375 C0.43027344 6.02382812 0.37226563 5.21171875 0.3125 4.375 C0.24675781 3.55773437 0.18101562 2.74046875 0.11328125 1.8984375 C0.07589844 1.27195313 0.03851563 0.64546875 0 0 Z " fill="#C97F6A" transform="translate(279,215)"/>
<path d="M0 0 C-1.51671964 4.55015893 -5.16891053 6.50057264 -9 9 C-9 6 -9 6 -7.5390625 4.39453125 C-6.59160156 3.61142578 -6.59160156 3.61142578 -5.625 2.8125 C-4.68527344 2.01779297 -4.68527344 2.01779297 -3.7265625 1.20703125 C-2 0 -2 0 0 0 Z " fill="#9BC3D2" transform="translate(217,169)"/>
<path d="M0 0 C0.66 0 1.32 0 2 0 C3.42258812 3.82320557 4.24042276 6.91281305 4 11 C0.85041169 7.57653445 0.43820891 4.55737263 0 0 Z " fill="#1D2835" transform="translate(126,344)"/>
<path d="M0 0 C-0.99 0 -1.98 0 -3 0 C-3 0.66 -3 1.32 -3 2 C-5.91482778 2.80967438 -7.46113217 3.21845993 -10.3125 2.0625 C-10.869375 1.711875 -11.42625 1.36125 -12 1 C-3.96428571 -1.27678571 -3.96428571 -1.27678571 0 0 Z " fill="#3E3B46" transform="translate(151,315)"/>
<path d="M0 0 C0.33 0.66 0.66 1.32 1 2 C1.66 2 2.32 2 3 2 C3.33 4.64 3.66 7.28 4 10 C3.34 10 2.68 10 2 10 C1.34 6.7 0.68 3.4 0 0 Z " fill="#D4846C" transform="translate(289,252)"/>
<path d="M0 0 C0.99 0 1.98 0 3 0 C3.66 2.97 4.32 5.94 5 9 C1.7457985 6.16569547 0.4793247 4.31392226 0 0 Z " fill="#C77F69" transform="translate(133,232)"/>
<path d="M0 0 C3.31562557 0.55260426 6.15062207 1.16825705 9 3 C9.33 3.99 9.66 4.98 10 6 C6.40992874 4.66654496 3.20429093 3.1056769 0 1 C0 0.67 0 0.34 0 0 Z " fill="#363C44" transform="translate(365,218)"/>
<path d="M0 0 C1.32 0 2.64 0 4 0 C4.33 2.31 4.66 4.62 5 7 C3 6 3 6 1 3 C0.34 2.67 -0.32 2.34 -1 2 C-0.67 1.34 -0.34 0.68 0 0 Z " fill="#96BCCA" transform="translate(151,325)"/>
<path d="M0 0 C1.64826111 2.96687001 2.44271087 5.65626525 3 9 C2.01 9 1.02 9 0 9 C-1.125 3.375 -1.125 3.375 0 0 Z " fill="#353643" transform="translate(282,295)"/>
<path d="M0 0 C-0.6875 1.9375 -0.6875 1.9375 -2 4 C-4.625 4.75 -4.625 4.75 -7 5 C-7 4.34 -7 3.68 -7 3 C-2.61538462 0 -2.61538462 0 0 0 Z " fill="#222A35" transform="translate(154,211)"/>
<path d="M0 0 C0.66 0.33 1.32 0.66 2 1 C-0.625 5.875 -0.625 5.875 -4 7 C-4 4 -4 4 -2 1.8125 C-1.34 1.214375 -0.68 0.61625 0 0 Z " fill="#323943" transform="translate(200,167)"/>
<path d="M0 0 C2.93200474 2.85276137 5.64315404 5.65079784 8 9 C6.25 8.875 6.25 8.875 4 8 C0 2.77777778 0 2.77777778 0 0 Z " fill="#1C2237" transform="translate(377,161)"/>
<path d="M0 0 C0.33 0 0.66 0 1 0 C2.35384615 7.38461538 2.35384615 7.38461538 0.5625 10.5 C0.046875 10.995 -0.46875 11.49 -1 12 C-1.66 11.67 -2.32 11.34 -3 11 C-2.690625 10.484375 -2.38125 9.96875 -2.0625 9.4375 C-0.70940713 6.33334577 -0.38640576 3.34884993 0 0 Z " fill="#313441" transform="translate(416,147)"/>
<path d="M0 0 C3.53600465 1.91135386 5.78972846 3.62642766 8 7 C7.01 7 6.02 7 5 7 C4.731875 6.360625 4.46375 5.72125 4.1875 5.0625 C3.11332248 2.66868314 3.11332248 2.66868314 0 2 C0 1.34 0 0.68 0 0 Z " fill="#E0C67A" transform="translate(435,111)"/>
<path d="M0 0 C3.35620271 1.38877354 5.07298728 2.91677965 7 6 C7 6.66 7 7.32 7 8 C6.34 8 5.68 8 5 8 C3.98133771 6.34467377 2.98189187 4.67739862 2 3 C1.34 2.67 0.68 2.34 0 2 C0 1.34 0 0.68 0 0 Z " fill="#252932" transform="translate(317,205)"/>
<path d="M0 0 C2 3 2 3 2 7 C1.34 7 0.68 7 0 7 C-0.33 7.66 -0.66 8.32 -1 9 C-1.625 5.625 -1.625 5.625 -2 2 C-1.34 1.34 -0.68 0.68 0 0 Z " fill="#444B55" transform="translate(466,134)"/>
<path d="M0 0 C1.98 1.65 3.96 3.3 6 5 C5.34 5.66 4.68 6.32 4 7 C2.35 5.02 0.7 3.04 -1 1 C-0.67 0.67 -0.34 0.34 0 0 Z " fill="#D8876E" transform="translate(73,308)"/>
<path d="M0 0 C2.14418558 3.21627837 2.67582137 5.19090105 3 9 C2.34 9.66 1.68 10.32 1 11 C0.4254048 7.26513121 0 3.78706732 0 0 Z " fill="#C07966" transform="translate(153,293)"/>
<path d="M0 0 C0.33 0 0.66 0 1 0 C1.33 4.29 1.66 8.58 2 13 C-1 10 -1 10 -1.07421875 7.51953125 C-0.94660156 6.62621094 -0.81898438 5.73289063 -0.6875 4.8125 C-0.56761719 3.91144531 -0.44773437 3.01039063 -0.32421875 2.08203125 C-0.21722656 1.39496094 -0.11023438 0.70789063 0 0 Z " fill="#373943" transform="translate(385,146)"/>
<path d="M0 0 C2.52259061 1.97420135 2.9929808 2.96745642 3.6875 6.1875 C3.790625 7.115625 3.89375 8.04375 4 9 C3.01 8.34 2.02 7.68 1 7 C0.3125 3.375 0.3125 3.375 0 0 Z " fill="#4B4F57" transform="translate(269,139)"/>
</svg>
