<?xml version="1.0" encoding="UTF-8"?>
<svg version="1.1" xmlns="http://www.w3.org/2000/svg" width="500" height="500">
<path d="M0 0 C165 0 330 0 500 0 C500 165 500 330 500 500 C335 500 170 500 0 500 C0 335 0 170 0 0 Z " fill="#FCFBFB" transform="translate(0,0)"/>
<path d="M0 0 C1.31624359 -0.00709439 2.63248718 -0.01418877 3.98861694 -0.02149814 C7.6224455 -0.04035218 11.25559712 -0.02822614 14.88940811 -0.01077521 C18.81587454 0.00263275 22.74224414 -0.01285054 26.66870117 -0.02459717 C34.35283739 -0.04295265 42.03671891 -0.0344755 49.72084713 -0.01650894 C55.96723665 -0.0024693 62.21355715 0.00140692 68.45996094 -0.00195122 C69.34980934 -0.00242866 70.23965775 -0.0029061 71.15647125 -0.00339801 C72.96431988 -0.00442437 74.77216849 -0.00547973 76.58001709 -0.00656378 C92.55730186 -0.01512661 108.53446386 0.0015306 124.51171875 0.03126526 C140.00656287 0.06010163 155.50123015 0.06718566 170.99609375 0.05177307 C187.87893349 0.03500282 204.76168931 0.03098512 221.64453125 0.04848343 C223.44563801 0.05032777 225.24674478 0.0521625 227.04785156 0.0539875 C227.93397377 0.05489959 228.82009598 0.05581168 229.73307037 0.05675141 C235.97017332 0.06235168 242.20723522 0.05905438 248.44433594 0.05244255 C256.0478554 0.04470203 263.65120093 0.05148781 271.2546854 0.07661759 C275.13230993 0.08909601 279.0096639 0.09527944 282.88729858 0.08407593 C287.09438658 0.07215027 291.30076626 0.09132573 295.5078125 0.11352539 C297.33860855 0.10116424 297.33860855 0.10116424 299.20639038 0.08855337 C307.28243618 0.1672305 313.74757982 1.32414024 320.09375 6.55787659 C320.62097656 7.19982971 321.14820313 7.84178284 321.69140625 8.50318909 C322.50931641 9.4583844 322.50931641 9.4583844 323.34375 10.43287659 C327.46218454 16.84440073 327.0164631 23.45751159 326.94921875 30.80787659 C326.94497391 32.55972763 326.94497391 32.55972763 326.94064331 34.3469696 C326.92947598 38.065815 326.90437729 41.78441685 326.87890625 45.50318909 C326.86887201 48.02922727 326.85974694 50.55526924 326.8515625 53.08131409 C326.8295479 59.26368842 326.7961044 65.44592135 326.75390625 71.62818909 C327.66881836 71.60933655 328.58373047 71.59048401 329.52636719 71.57106018 C344.31598509 71.39402056 357.96698828 73.61012644 369.25390625 83.90943909 C371.47631128 86.10335174 373.62573419 88.34334179 375.75390625 90.62818909 C377.65716817 92.60229202 379.42155656 94.13618389 381.62890625 95.81568909 C387.52308944 100.71284627 390.64223542 107.09438473 391.75390625 114.62818909 C392.0732195 120.67707434 392.11836675 126.7355989 392.13476562 132.79225159 C392.17245758 141.08448182 392.50596206 147.35911366 396.75390625 154.62818909 C397.86668448 162.04963127 397.2636982 169.90461174 393.75390625 176.62818909 C391.09173959 179.95589741 389.18069013 181.44528171 385.25390625 183.12818909 C380.52359407 185.65645939 379.71681286 190.26715137 378.078125 195.08522034 C375.75931061 201.28924586 372.47797282 207.90412251 367.75390625 212.62818909 C367.44791562 215.19735566 367.24303538 217.67577293 367.12890625 220.25318909 C367.09023438 220.95959534 367.0515625 221.66600159 367.01171875 222.39381409 C366.91742901 224.13817433 366.83457734 225.883146 366.75390625 227.62818909 C367.5015625 227.91822815 368.24921875 228.20826721 369.01953125 228.50709534 C371.26932142 229.42950931 373.36169886 230.4259249 375.50390625 231.56568909 C379.77451469 233.74174339 384.17800629 235.22999743 388.75390625 236.62818909 C388.75390625 237.28818909 388.75390625 237.94818909 388.75390625 238.62818909 C389.57181641 238.77514221 389.57181641 238.77514221 390.40625 238.92506409 C404.67658409 241.75473717 418.00747602 249.83273016 427.75390625 260.62818909 C429.03125 263.40162659 429.03125 263.40162659 429.75390625 265.62818909 C430.41390625 265.62818909 431.07390625 265.62818909 431.75390625 265.62818909 C432.5946004 267.22851046 433.4262213 268.8336008 434.25390625 270.44068909 C434.71796875 271.3340094 435.18203125 272.22732971 435.66015625 273.14772034 C436.75390625 275.62818909 436.75390625 275.62818909 436.75390625 278.62818909 C437.41390625 278.62818909 438.07390625 278.62818909 438.75390625 278.62818909 C442.15334669 288.63614175 442.24885012 298.36645039 442.19995117 308.83082581 C442.19133743 311.65071771 442.22046039 314.46864729 442.25195312 317.28834534 C442.25356296 319.08912599 442.25299177 320.8899102 442.25 322.69068909 C442.26123398 323.52922424 442.27246796 324.3677594 442.28404236 325.23170471 C442.23822616 329.05006519 442.20942518 331.00237197 439.91430664 334.15553284 C436.97444563 336.15951539 435.23535719 336.22077648 431.75390625 335.62818909 C429.06401043 333.22141929 428.5448846 331.11196928 428.33740234 327.64503479 C428.30275588 326.03159441 428.28369849 324.41777015 428.27734375 322.80397034 C428.25397446 321.51271492 428.25397446 321.51271492 428.23013306 320.19537354 C428.18267078 317.44382197 428.15491008 314.69251982 428.12890625 311.94068909 C428.09219481 309.20689421 428.05128515 306.47323336 428.0062561 303.73956299 C427.9794412 302.04108507 427.95791818 300.34251195 427.94271851 298.64389038 C427.87231335 293.24290312 427.42188966 287.98914121 426.75390625 282.62818909 C426.09390625 282.62818909 425.43390625 282.62818909 424.75390625 282.62818909 C424.54636719 282.07131409 424.33882813 281.51443909 424.125 280.94068909 C421.63370452 274.76978145 418.4403942 270.32464829 413.75390625 265.62818909 C413.23054688 265.09322815 412.7071875 264.55826721 412.16796875 264.00709534 C405.66243212 257.89823777 397.10956362 254.27209848 388.765625 251.35084534 C385.44536916 250.15813207 382.2062962 248.76129445 378.953125 247.39772034 C376.67029167 246.46305121 376.67029167 246.46305121 373.75390625 246.62818909 C373.42777344 247.52022034 373.10164063 248.41225159 372.765625 249.33131409 C372.32863281 250.50178284 371.89164062 251.67225159 371.44140625 252.87818909 C371.01214844 254.03834534 370.58289063 255.19850159 370.140625 256.39381409 C368.91039153 259.26320371 367.63328805 261.18802401 365.75390625 263.62818909 C365.05872829 265.25379533 364.41381358 266.90166609 363.81640625 268.56568909 C362.28080671 272.48871131 360.9795573 275.78202639 357.75390625 278.62818909 C354.87890625 279.25318909 354.87890625 279.25318909 351.75390625 278.62818909 C349.49136948 277.13697167 347.7318753 275.51196913 345.75390625 273.62818909 C345.60451375 280.30331766 346.15059824 286.59338122 347.12890625 293.19068909 C347.40413795 295.13593202 347.67887406 297.08124514 347.953125 299.02662659 C348.08895996 299.97634338 348.22479492 300.92606018 348.36474609 301.90455627 C351.7848983 325.84133046 351.7848983 325.84133046 350.75390625 331.62818909 C347.08959544 334.07106296 344.33038192 333.91757173 340.09375 333.89381409 C339.34807266 333.89572754 338.60239532 333.89764099 337.8341217 333.89961243 C336.25977236 333.9009721 334.68541172 333.89729082 333.11108398 333.88893127 C330.69684804 333.87821325 328.28335365 333.88884126 325.86914062 333.90162659 C324.3398421 333.90030525 322.81054404 333.89774339 321.28125 333.89381409 C320.55727524 333.89786255 319.83330048 333.90191101 319.08738708 333.90608215 C313.9838402 333.85812304 313.9838402 333.85812304 311.75390625 331.62818909 C310.70325527 322.17646668 312.30654688 312.30939535 313.25390625 302.87818909 C313.39896447 301.39126123 313.54349901 299.9042822 313.6875 298.41725159 C314.03695024 294.82028883 314.39342384 291.22406502 314.75390625 287.62818909 C315.41390625 287.62818909 316.07390625 287.62818909 316.75390625 287.62818909 C316.74230469 287.04811096 316.73070312 286.46803284 316.71875 285.87037659 C316.66628451 281.32836448 316.83639562 277.10105339 317.75390625 272.62818909 C316.64015625 273.24693909 315.52640625 273.86568909 314.37890625 274.50318909 C313.75242187 274.85123596 313.1259375 275.19928284 312.48046875 275.55787659 C310.59264485 276.63716182 310.59264485 276.63716182 308.75390625 278.62818909 C305.87890625 279.12818909 305.87890625 279.12818909 302.75390625 278.62818909 C298.54661502 273.3579092 295.9348727 267.06686122 293.06640625 261.00318909 C292.56818359 259.96678284 292.06996094 258.93037659 291.55664062 257.86256409 C287.56330394 249.47493154 287.56330394 249.47493154 286.75390625 245.62818909 C286.26921875 245.90533752 285.78453125 246.18248596 285.28515625 246.46803284 C280.34006895 249.14028193 276.35846492 250.22786347 270.75390625 250.62818909 C270.75390625 251.28818909 270.75390625 251.94818909 270.75390625 252.62818909 C265.80390625 253.61818909 265.80390625 253.61818909 260.75390625 254.62818909 C260.75390625 255.28818909 260.75390625 255.94818909 260.75390625 256.62818909 C260.04105469 256.98010315 259.32820313 257.33201721 258.59375 257.69459534 C252.29425456 260.94184534 247.26826436 264.13836666 242.75390625 269.62818909 C242.22023438 270.27272034 241.6865625 270.91725159 241.13671875 271.58131409 C236.95424636 277.19956058 235.22410828 283.03701145 233.515625 289.78443909 C232.75390625 292.62818909 232.75390625 292.62818909 231.75390625 293.62818909 C231.61833756 296.47570362 231.54328247 299.30235963 231.5078125 302.15162659 C231.47487272 303.9120482 231.4416611 305.67246475 231.40820312 307.43287659 C231.3607688 310.21995019 231.31635253 313.00700342 231.27709961 315.79420471 C231.23742287 318.47606734 231.18586406 321.15749992 231.1328125 323.83912659 C231.12439835 324.67358307 231.11598419 325.50803955 231.10731506 326.36778259 C231.02362959 330.27676787 230.9693543 332.305017 228.75390625 335.62818909 C225.3851504 335.99568972 222.87718163 336.20794412 219.81640625 334.62818909 C218.11384354 331.42336517 218.69228366 328.22404865 218.75390625 324.62818909 C217.99391925 324.63187626 217.23393225 324.63556343 216.45091534 324.63936234 C197.9736286 324.72763269 179.49638385 324.79385932 161.01893139 324.83543777 C152.08342615 324.85607836 143.1480615 324.88422741 134.21264648 324.9299469 C126.42611309 324.96976902 118.63968149 324.99561101 110.8530491 325.00454307 C106.72860225 325.00976571 102.60444666 325.02207147 98.480093 325.05110931 C94.60016753 325.07820561 90.72065403 325.08664598 86.84064293 325.08061981 C85.41476708 325.08172266 83.98887784 325.08971133 82.56308365 325.10501099 C80.61993052 325.12484408 78.67655766 325.11775928 76.73332214 325.10920715 C75.64468463 325.11289433 74.55604712 325.1165815 73.43442059 325.1203804 C70.75390625 324.62818909 70.75390625 324.62818909 68.87238026 322.82468796 C67.177136 319.49550724 67.83795445 317.16114604 68.75390625 313.62818909 C72.00780613 311.4589225 72.88786582 311.3873886 76.640625 311.43287659 C77.57841797 311.4393219 78.51621094 311.44576721 79.48242188 311.45240784 C80.45888672 311.46916565 81.43535156 311.48592346 82.44140625 311.50318909 C83.42947266 311.51221252 84.41753906 311.52123596 85.43554688 311.53053284 C87.8752439 311.55410479 90.31445322 311.58700886 92.75390625 311.62818909 C92.78959717 310.8715094 92.82528809 310.11482971 92.86206055 309.33522034 C93.25410466 301.85331828 94.75002237 295.06441923 96.71875 287.87818909 C97.6292668 284.40082225 98.2400435 280.90973656 98.81860352 277.36256409 C98.99488785 276.2871637 99.17117218 275.21176331 99.35279846 274.10377502 C99.48516403 273.28683167 99.6175296 272.46988831 99.75390625 271.62818909 C99.18682796 271.63371984 98.61974966 271.6392506 98.03548717 271.64494896 C84.19541483 271.77783364 70.35545524 271.87654235 56.51488018 271.93906212 C49.82143632 271.96991462 43.12848287 272.01268569 36.43530273 272.08082581 C29.97080281 272.14622277 23.506746 272.18193882 17.04194069 272.19745255 C14.58084962 272.20850219 12.11978164 272.23007962 9.65888023 272.26256943 C6.2000405 272.30640058 2.74301021 272.31211171 -0.71606445 272.30934143 C-1.72379913 272.33091309 -2.73153381 272.35248474 -3.76980591 272.37471008 C-11.35544397 272.3093672 -17.12463539 270.15179429 -23.24609375 265.62818909 C-27.78622115 260.3420574 -30.36518098 255.50291321 -30.37752151 248.48267555 C-30.38136266 247.65981359 -30.3852038 246.83695163 -30.38916135 245.98915446 C-30.38829487 245.09052569 -30.38742838 244.19189693 -30.38653564 243.26603699 C-30.39099233 241.82780832 -30.39099233 241.82780832 -30.39553905 240.36052454 C-30.40422865 237.13935315 -30.40573451 233.91821892 -30.40722656 230.69703674 C-30.41185448 228.39093954 -30.41687911 226.0848431 -30.42227173 223.77874756 C-30.4353987 217.50812067 -30.44184107 211.2375045 -30.44628239 204.96686602 C-30.44921214 201.05108909 -30.45331672 197.1353151 -30.45778656 193.21953964 C-30.46989437 182.37634451 -30.48027722 171.5331526 -30.48366165 160.68995094 C-30.48388122 159.99621215 -30.48410078 159.30247337 -30.484327 158.58771219 C-30.48454528 157.89232457 -30.48476356 157.19693695 -30.48498845 156.48047698 C-30.48543192 155.07138101 -30.48587848 153.66228505 -30.48632812 152.25318909 C-30.48654955 151.55423048 -30.48677098 150.85527188 -30.48699912 150.13513272 C-30.49094806 138.80682308 -30.50840604 127.47857774 -30.53168765 116.15029295 C-30.55540145 104.51778602 -30.56760549 92.88531453 -30.56902957 81.25278318 C-30.57007892 74.72226782 -30.57601465 68.19184318 -30.59384918 61.66135025 C-30.61029434 55.52018541 -30.61250261 49.37917984 -30.60371017 43.23800087 C-30.60293794 40.98293316 -30.60730692 38.72785702 -30.61716843 36.47281075 C-30.6298337 33.39645232 -30.62404042 30.32066261 -30.61358643 27.24430847 C-30.62164283 26.35014115 -30.62969923 25.45597383 -30.63799977 24.53471053 C-30.58166016 17.45509495 -28.5827875 12.45778801 -23.79151917 7.07080358 C-16.68809031 0.4399372 -9.356921 -0.09073592 0 0 Z " fill="#B7E0E9" transform="translate(48.24609375,96.37181091308594)"/>
<path d="M0 0 C1.31624359 -0.00709439 2.63248718 -0.01418877 3.98861694 -0.02149814 C7.6224455 -0.04035218 11.25559712 -0.02822614 14.88940811 -0.01077521 C18.81587454 0.00263275 22.74224414 -0.01285054 26.66870117 -0.02459717 C34.35283739 -0.04295265 42.03671891 -0.0344755 49.72084713 -0.01650894 C55.96723665 -0.0024693 62.21355715 0.00140692 68.45996094 -0.00195122 C69.34980934 -0.00242866 70.23965775 -0.0029061 71.15647125 -0.00339801 C72.96431988 -0.00442437 74.77216849 -0.00547973 76.58001709 -0.00656378 C92.55730186 -0.01512661 108.53446386 0.0015306 124.51171875 0.03126526 C140.00656287 0.06010163 155.50123015 0.06718566 170.99609375 0.05177307 C187.87893349 0.03500282 204.76168931 0.03098512 221.64453125 0.04848343 C223.44563801 0.05032777 225.24674478 0.0521625 227.04785156 0.0539875 C227.93397377 0.05489959 228.82009598 0.05581168 229.73307037 0.05675141 C235.97017332 0.06235168 242.20723522 0.05905438 248.44433594 0.05244255 C256.0478554 0.04470203 263.65120093 0.05148781 271.2546854 0.07661759 C275.13230993 0.08909601 279.0096639 0.09527944 282.88729858 0.08407593 C287.09438658 0.07215027 291.30076626 0.09132573 295.5078125 0.11352539 C297.33860855 0.10116424 297.33860855 0.10116424 299.20639038 0.08855337 C307.28243618 0.1672305 313.74757982 1.32414024 320.09375 6.55787659 C320.62097656 7.19982971 321.14820313 7.84178284 321.69140625 8.50318909 C322.50931641 9.4583844 322.50931641 9.4583844 323.34375 10.43287659 C327.46218454 16.84440073 327.0164631 23.45751159 326.94921875 30.80787659 C326.94497391 32.55972763 326.94497391 32.55972763 326.94064331 34.3469696 C326.92947598 38.065815 326.90437729 41.78441685 326.87890625 45.50318909 C326.86887201 48.02922727 326.85974694 50.55526924 326.8515625 53.08131409 C326.8295479 59.26368842 326.7961044 65.44592135 326.75390625 71.62818909 C327.66881836 71.60933655 328.58373047 71.59048401 329.52636719 71.57106018 C344.31598509 71.39402056 357.96698828 73.61012644 369.25390625 83.90943909 C371.47631128 86.10335174 373.62573419 88.34334179 375.75390625 90.62818909 C377.65716817 92.60229202 379.42155656 94.13618389 381.62890625 95.81568909 C387.52308944 100.71284627 390.64223542 107.09438473 391.75390625 114.62818909 C392.0732195 120.67707434 392.11836675 126.7355989 392.13476562 132.79225159 C392.17245758 141.08448182 392.50596206 147.35911366 396.75390625 154.62818909 C397.86668448 162.04963127 397.2636982 169.90461174 393.75390625 176.62818909 C391.09173959 179.95589741 389.18069013 181.44528171 385.25390625 183.12818909 C380.52359407 185.65645939 379.71681286 190.26715137 378.078125 195.08522034 C375.75931061 201.28924586 372.47797282 207.90412251 367.75390625 212.62818909 C367.44791562 215.19735566 367.24303538 217.67577293 367.12890625 220.25318909 C367.09023438 220.95959534 367.0515625 221.66600159 367.01171875 222.39381409 C366.91742901 224.13817433 366.83457734 225.883146 366.75390625 227.62818909 C367.5015625 227.91822815 368.24921875 228.20826721 369.01953125 228.50709534 C371.26932142 229.42950931 373.36169886 230.4259249 375.50390625 231.56568909 C379.77451469 233.74174339 384.17800629 235.22999743 388.75390625 236.62818909 C388.75390625 237.28818909 388.75390625 237.94818909 388.75390625 238.62818909 C389.57181641 238.77514221 389.57181641 238.77514221 390.40625 238.92506409 C404.67658409 241.75473717 418.00747602 249.83273016 427.75390625 260.62818909 C429.03125 263.40162659 429.03125 263.40162659 429.75390625 265.62818909 C430.41390625 265.62818909 431.07390625 265.62818909 431.75390625 265.62818909 C432.5946004 267.22851046 433.4262213 268.8336008 434.25390625 270.44068909 C434.71796875 271.3340094 435.18203125 272.22732971 435.66015625 273.14772034 C436.75390625 275.62818909 436.75390625 275.62818909 436.75390625 278.62818909 C437.41390625 278.62818909 438.07390625 278.62818909 438.75390625 278.62818909 C442.15334669 288.63614175 442.24885012 298.36645039 442.19995117 308.83082581 C442.19133743 311.65071771 442.22046039 314.46864729 442.25195312 317.28834534 C442.25356296 319.08912599 442.25299177 320.8899102 442.25 322.69068909 C442.26123398 323.52922424 442.27246796 324.3677594 442.28404236 325.23170471 C442.23822616 329.05006519 442.20942518 331.00237197 439.91430664 334.15553284 C436.97444563 336.15951539 435.23535719 336.22077648 431.75390625 335.62818909 C429.06401043 333.22141929 428.5448846 331.11196928 428.33740234 327.64503479 C428.30275588 326.03159441 428.28369849 324.41777015 428.27734375 322.80397034 C428.25397446 321.51271492 428.25397446 321.51271492 428.23013306 320.19537354 C428.18267078 317.44382197 428.15491008 314.69251982 428.12890625 311.94068909 C428.09219481 309.20689421 428.05128515 306.47323336 428.0062561 303.73956299 C427.9794412 302.04108507 427.95791818 300.34251195 427.94271851 298.64389038 C427.87231335 293.24290312 427.42188966 287.98914121 426.75390625 282.62818909 C426.09390625 282.62818909 425.43390625 282.62818909 424.75390625 282.62818909 C424.54636719 282.07131409 424.33882813 281.51443909 424.125 280.94068909 C421.63370452 274.76978145 418.4403942 270.32464829 413.75390625 265.62818909 C413.23054688 265.09322815 412.7071875 264.55826721 412.16796875 264.00709534 C405.66243212 257.89823777 397.10956362 254.27209848 388.765625 251.35084534 C385.44536916 250.15813207 382.2062962 248.76129445 378.953125 247.39772034 C376.67029167 246.46305121 376.67029167 246.46305121 373.75390625 246.62818909 C373.42777344 247.52022034 373.10164063 248.41225159 372.765625 249.33131409 C372.32863281 250.50178284 371.89164062 251.67225159 371.44140625 252.87818909 C371.01214844 254.03834534 370.58289063 255.19850159 370.140625 256.39381409 C368.91039153 259.26320371 367.63328805 261.18802401 365.75390625 263.62818909 C365.05872829 265.25379533 364.41381358 266.90166609 363.81640625 268.56568909 C362.28080671 272.48871131 360.9795573 275.78202639 357.75390625 278.62818909 C354.87890625 279.25318909 354.87890625 279.25318909 351.75390625 278.62818909 C349.49136948 277.13697167 347.7318753 275.51196913 345.75390625 273.62818909 C345.60451375 280.30331766 346.15059824 286.59338122 347.12890625 293.19068909 C347.40413795 295.13593202 347.67887406 297.08124514 347.953125 299.02662659 C348.08895996 299.97634338 348.22479492 300.92606018 348.36474609 301.90455627 C351.7848983 325.84133046 351.7848983 325.84133046 350.75390625 331.62818909 C347.08959544 334.07106296 344.33038192 333.91757173 340.09375 333.89381409 C339.34807266 333.89572754 338.60239532 333.89764099 337.8341217 333.89961243 C336.25977236 333.9009721 334.68541172 333.89729082 333.11108398 333.88893127 C330.69684804 333.87821325 328.28335365 333.88884126 325.86914062 333.90162659 C324.3398421 333.90030525 322.81054404 333.89774339 321.28125 333.89381409 C320.55727524 333.89786255 319.83330048 333.90191101 319.08738708 333.90608215 C313.9838402 333.85812304 313.9838402 333.85812304 311.75390625 331.62818909 C310.70325527 322.17646668 312.30654688 312.30939535 313.25390625 302.87818909 C313.39896447 301.39126123 313.54349901 299.9042822 313.6875 298.41725159 C314.03695024 294.82028883 314.39342384 291.22406502 314.75390625 287.62818909 C315.41390625 287.62818909 316.07390625 287.62818909 316.75390625 287.62818909 C316.74230469 287.04811096 316.73070312 286.46803284 316.71875 285.87037659 C316.66628451 281.32836448 316.83639562 277.10105339 317.75390625 272.62818909 C316.64015625 273.24693909 315.52640625 273.86568909 314.37890625 274.50318909 C313.75242187 274.85123596 313.1259375 275.19928284 312.48046875 275.55787659 C310.59264485 276.63716182 310.59264485 276.63716182 308.75390625 278.62818909 C305.87890625 279.12818909 305.87890625 279.12818909 302.75390625 278.62818909 C298.54661502 273.3579092 295.9348727 267.06686122 293.06640625 261.00318909 C292.56818359 259.96678284 292.06996094 258.93037659 291.55664062 257.86256409 C287.56330394 249.47493154 287.56330394 249.47493154 286.75390625 245.62818909 C286.26921875 245.90533752 285.78453125 246.18248596 285.28515625 246.46803284 C280.34006895 249.14028193 276.35846492 250.22786347 270.75390625 250.62818909 C270.75390625 251.28818909 270.75390625 251.94818909 270.75390625 252.62818909 C265.80390625 253.61818909 265.80390625 253.61818909 260.75390625 254.62818909 C260.75390625 255.28818909 260.75390625 255.94818909 260.75390625 256.62818909 C260.04105469 256.98010315 259.32820313 257.33201721 258.59375 257.69459534 C252.29425456 260.94184534 247.26826436 264.13836666 242.75390625 269.62818909 C242.22023438 270.27272034 241.6865625 270.91725159 241.13671875 271.58131409 C236.95424636 277.19956058 235.22410828 283.03701145 233.515625 289.78443909 C232.75390625 292.62818909 232.75390625 292.62818909 231.75390625 293.62818909 C231.61833756 296.47570362 231.54328247 299.30235963 231.5078125 302.15162659 C231.47487272 303.9120482 231.4416611 305.67246475 231.40820312 307.43287659 C231.3607688 310.21995019 231.31635253 313.00700342 231.27709961 315.79420471 C231.23742287 318.47606734 231.18586406 321.15749992 231.1328125 323.83912659 C231.12439835 324.67358307 231.11598419 325.50803955 231.10731506 326.36778259 C231.02362959 330.27676787 230.9693543 332.305017 228.75390625 335.62818909 C225.3851504 335.99568972 222.87718163 336.20794412 219.81640625 334.62818909 C218.11384354 331.42336517 218.69228366 328.22404865 218.75390625 324.62818909 C217.99391925 324.63187626 217.23393225 324.63556343 216.45091534 324.63936234 C197.9736286 324.72763269 179.49638385 324.79385932 161.01893139 324.83543777 C152.08342615 324.85607836 143.1480615 324.88422741 134.21264648 324.9299469 C126.42611309 324.96976902 118.63968149 324.99561101 110.8530491 325.00454307 C106.72860225 325.00976571 102.60444666 325.02207147 98.480093 325.05110931 C94.60016753 325.07820561 90.72065403 325.08664598 86.84064293 325.08061981 C85.41476708 325.08172266 83.98887784 325.08971133 82.56308365 325.10501099 C80.61993052 325.12484408 78.67655766 325.11775928 76.73332214 325.10920715 C75.64468463 325.11289433 74.55604712 325.1165815 73.43442059 325.1203804 C70.75390625 324.62818909 70.75390625 324.62818909 68.87238026 322.82468796 C67.177136 319.49550724 67.83795445 317.16114604 68.75390625 313.62818909 C72.00780613 311.4589225 72.88786582 311.3873886 76.640625 311.43287659 C77.57841797 311.4393219 78.51621094 311.44576721 79.48242188 311.45240784 C80.45888672 311.46916565 81.43535156 311.48592346 82.44140625 311.50318909 C83.42947266 311.51221252 84.41753906 311.52123596 85.43554688 311.53053284 C87.8752439 311.55410479 90.31445322 311.58700886 92.75390625 311.62818909 C92.78959717 310.8715094 92.82528809 310.11482971 92.86206055 309.33522034 C93.25410466 301.85331828 94.75002237 295.06441923 96.71875 287.87818909 C97.6292668 284.40082225 98.2400435 280.90973656 98.81860352 277.36256409 C98.99488785 276.2871637 99.17117218 275.21176331 99.35279846 274.10377502 C99.48516403 273.28683167 99.6175296 272.46988831 99.75390625 271.62818909 C99.18682796 271.63371984 98.61974966 271.6392506 98.03548717 271.64494896 C84.19541483 271.77783364 70.35545524 271.87654235 56.51488018 271.93906212 C49.82143632 271.96991462 43.12848287 272.01268569 36.43530273 272.08082581 C29.97080281 272.14622277 23.506746 272.18193882 17.04194069 272.19745255 C14.58084962 272.20850219 12.11978164 272.23007962 9.65888023 272.26256943 C6.2000405 272.30640058 2.74301021 272.31211171 -0.71606445 272.30934143 C-1.72379913 272.33091309 -2.73153381 272.35248474 -3.76980591 272.37471008 C-11.35544397 272.3093672 -17.12463539 270.15179429 -23.24609375 265.62818909 C-27.78622115 260.3420574 -30.36518098 255.50291321 -30.37752151 248.48267555 C-30.38136266 247.65981359 -30.3852038 246.83695163 -30.38916135 245.98915446 C-30.38829487 245.09052569 -30.38742838 244.19189693 -30.38653564 243.26603699 C-30.39099233 241.82780832 -30.39099233 241.82780832 -30.39553905 240.36052454 C-30.40422865 237.13935315 -30.40573451 233.91821892 -30.40722656 230.69703674 C-30.41185448 228.39093954 -30.41687911 226.0848431 -30.42227173 223.77874756 C-30.4353987 217.50812067 -30.44184107 211.2375045 -30.44628239 204.96686602 C-30.44921214 201.05108909 -30.45331672 197.1353151 -30.45778656 193.21953964 C-30.46989437 182.37634451 -30.48027722 171.5331526 -30.48366165 160.68995094 C-30.48388122 159.99621215 -30.48410078 159.30247337 -30.484327 158.58771219 C-30.48454528 157.89232457 -30.48476356 157.19693695 -30.48498845 156.48047698 C-30.48543192 155.07138101 -30.48587848 153.66228505 -30.48632812 152.25318909 C-30.48654955 151.55423048 -30.48677098 150.85527188 -30.48699912 150.13513272 C-30.49094806 138.80682308 -30.50840604 127.47857774 -30.53168765 116.15029295 C-30.55540145 104.51778602 -30.56760549 92.88531453 -30.56902957 81.25278318 C-30.57007892 74.72226782 -30.57601465 68.19184318 -30.59384918 61.66135025 C-30.61029434 55.52018541 -30.61250261 49.37917984 -30.60371017 43.23800087 C-30.60293794 40.98293316 -30.60730692 38.72785702 -30.61716843 36.47281075 C-30.6298337 33.39645232 -30.62404042 30.32066261 -30.61358643 27.24430847 C-30.62164283 26.35014115 -30.62969923 25.45597383 -30.63799977 24.53471053 C-30.58166016 17.45509495 -28.5827875 12.45778801 -23.79151917 7.07080358 C-16.68809031 0.4399372 -9.356921 -0.09073592 0 0 Z M-16.24609375 16.62818909 C-19.00209341 20.06744196 -18.51963292 24.26143633 -18.48660278 28.47419739 C-18.48831482 29.26790741 -18.49002686 30.06161743 -18.49179077 30.87937927 C-18.49510376 33.54997204 -18.48404995 36.22031452 -18.47314453 38.8908844 C-18.47253195 40.83375923 -18.47279869 42.7766345 -18.47387505 44.71950912 C-18.47432704 49.92798832 -18.46272541 55.13637583 -18.44865417 60.34483337 C-18.43727427 65.23014112 -18.43672848 70.11542644 -18.43530273 75.00074768 C-18.42480315 89.29324032 -18.3968809 103.58571586 -18.37109375 117.87818909 C-18.32984375 149.80568909 -18.28859375 181.73318909 -18.24609375 214.62818909 C84.38390625 214.62818909 187.01390625 214.62818909 292.75390625 214.62818909 C291.83888462 210.96810257 290.91772374 209.04776038 288.94140625 205.94068909 C285.37219336 200.12038989 282.38885261 194.44009438 280.87890625 187.75318909 C280.05616896 184.39248662 280.05616896 184.39248662 276.94140625 183.06568909 C275.88953125 182.59131409 274.83765625 182.11693909 273.75390625 181.62818909 C268.1928003 176.19641118 265.69110641 169.90604527 265.37890625 162.12818909 C265.59094357 156.08512542 267.41402699 150.63800798 270.75390625 145.62818909 C270.98214904 142.42618534 270.98214904 142.42618534 270.84375 138.75709534 C270.82329158 137.36321915 270.80311904 135.96933875 270.78320312 134.57545471 C270.74014431 132.39697064 270.69211082 130.21876681 270.63745117 128.0405426 C270.28091766 112.72365215 272.16628143 99.07771056 282.89453125 87.27272034 C290.21075594 80.45532915 297.42600928 76.78306793 307.0625 74.48756409 C307.80334839 74.3069342 308.54419678 74.12630432 309.30749512 73.94020081 C311.12190451 73.49848244 312.93776456 73.06273014 314.75390625 72.62818909 C314.83000304 65.4566274 314.88252587 58.28516995 314.91870117 51.11329651 C314.93378279 48.6738038 314.95425094 46.23433818 314.98022461 43.79493713 C315.01663437 40.2874635 315.03363914 36.78034854 315.046875 33.27272034 C315.06235886 32.18296402 315.07784271 31.0932077 315.09379578 29.97042847 C315.24857046 22.7266799 315.24857046 22.7266799 311.75390625 16.62818909 C308.10982205 14.05614723 305.64723454 13.25292471 301.2047205 13.25066566 C300.09422905 13.24284242 298.9837376 13.23501918 297.8395949 13.22695887 C296.01743437 13.23699712 296.01743437 13.23699712 294.15846252 13.24723816 C292.21667528 13.2402182 292.21667528 13.2402182 290.23566002 13.23305643 C286.64416222 13.22052523 283.05290337 13.22672635 279.46140468 13.23601508 C275.58743279 13.24279666 271.71350227 13.23232873 267.83953857 13.22407532 C260.25083688 13.21072587 252.66222414 13.21362121 245.07351894 13.22231324 C238.90615686 13.22908512 232.73881973 13.23000865 226.571455 13.22674179 C225.69407528 13.22628209 224.81669555 13.22582239 223.91272856 13.22534876 C222.13040161 13.2243896 220.34807467 13.22341696 218.56574773 13.22243099 C201.84708666 13.21387342 185.12847491 13.22371672 168.40982192 13.23983209 C154.06282206 13.25323326 139.71589503 13.25090954 125.36889648 13.23707581 C108.71209623 13.22102244 92.05533924 13.21469989 75.39853233 13.2239126 C73.62241265 13.22486825 71.84629296 13.22581136 70.07017326 13.22674179 C69.19626952 13.22720462 68.32236578 13.22766744 67.4219801 13.2281443 C61.26216545 13.23073509 55.10237823 13.22636121 48.94256783 13.21930313 C41.43551849 13.21089054 33.92856326 13.2131631 26.42152471 13.22914536 C22.59091493 13.2370317 18.76046207 13.2401136 14.92985344 13.23019791 C10.77854344 13.21961459 6.62762994 13.23224844 2.47633362 13.24723816 C1.26379066 13.24054599 0.05124769 13.23385383 -1.198039 13.22695887 C-9.18475272 13.19999897 -9.18475272 13.19999897 -16.24609375 16.62818909 Z " fill="#25323E" transform="translate(48.24609375,96.37181091308594)"/>
<path d="M0 0 C1.11761719 -0.02578125 2.23523438 -0.0515625 3.38671875 -0.078125 C6.74062457 0.29801397 7.89289981 0.95090038 10.3125 3.25 C10.81420898 5.2824707 10.81420898 5.2824707 10.80859375 7.67578125 C10.81149414 8.59979736 10.81439453 9.52381348 10.81738281 10.47583008 C10.79514648 11.49443115 10.77291016 12.51303223 10.75 13.5625 C10.73678711 14.62815186 10.72357422 15.69380371 10.70996094 16.79174805 C10.50545156 26.53525636 9.92915871 36.26513595 9.24343872 45.98544312 C9.12302672 47.70043572 9.00783371 49.4158029 8.8979187 51.13150024 C8.73788531 53.56482692 8.55247217 55.99488113 8.359375 58.42578125 C8.31436356 59.15708252 8.26935211 59.88838379 8.22297668 60.6418457 C7.92692813 64.01561609 7.51311678 65.99084843 5.41894531 68.69604492 C3.3125 70.25 3.3125 70.25 0.5625 70.9375 C-5.27429386 69.70279361 -9.04915177 65.07038692 -12.9375 60.75 C-14.53358736 59.02772824 -14.53358736 59.02772824 -16.49609375 59.37109375 C-19.53686172 60.5906531 -21.22485981 62.46570185 -23.5 64.8125 C-24.31082031 65.63878906 -25.12164062 66.46507812 -25.95703125 67.31640625 C-27.91534185 69.38061015 -29.76473821 71.51443169 -31.60546875 73.68359375 C-38.03113833 81.07516238 -45.19656335 87.81111683 -52.15380859 94.69580078 C-61.52840073 103.89470325 -61.52840073 103.89470325 -70.31201172 113.6496582 C-72.92383664 116.6884428 -75.82539616 119.44952041 -78.6875 122.25 C-79.595 123.1575 -80.5025 124.065 -81.4375 125 C-82.18 125.7425 -82.9225 126.485 -83.6875 127.25 C-84.14125 127.86875 -84.595 128.4875 -85.0625 129.125 C-86.6875 130.25 -86.6875 130.25 -89.91796875 130.171875 C-94.45157168 129.06313895 -96.61028932 126.97814797 -99.625 123.625 C-100.66599233 122.52416931 -101.70896066 121.42520383 -102.75390625 120.328125 C-103.50438232 119.53051758 -103.50438232 119.53051758 -104.27001953 118.71679688 C-106.67581872 116.2272961 -109.30040851 114.01692769 -111.9453125 111.7890625 C-113.73810093 110.20529873 -115.32091126 108.51135788 -116.9375 106.75 C-119.3050702 104.00613129 -119.3050702 104.00613129 -121.6015625 104.33984375 C-124.31336304 105.52308256 -125.80572769 107.14930628 -127.8125 109.3125 C-129.06762669 110.65998507 -130.35257028 111.98152782 -131.6875 113.25 C-132.3475 113.25 -133.0075 113.25 -133.6875 113.25 C-133.94321777 113.84353271 -134.19893555 114.43706543 -134.46240234 115.04858398 C-135.81034799 117.47074937 -137.15287901 118.72333853 -139.2890625 120.47265625 C-144.59590338 124.96296784 -149.37610583 129.92066027 -154.21484375 134.90429688 C-154.89417969 135.59458984 -155.57351562 136.28488281 -156.2734375 136.99609375 C-156.8823584 137.62185303 -157.4912793 138.2476123 -158.11865234 138.89233398 C-159.6875 140.25 -159.6875 140.25 -161.6875 140.25 C-161.89375 140.806875 -162.1 141.36375 -162.3125 141.9375 C-164.27351607 145.23557248 -166.54339694 147.07331327 -169.6875 149.25 C-172.625 149.9375 -172.625 149.9375 -175.6875 149.25 C-178.28583516 147.5062284 -180.46861729 145.44790036 -182.6875 143.25 C-183.925 142.074375 -183.925 142.074375 -185.1875 140.875 C-186.0125 140.00875 -186.8375 139.1425 -187.6875 138.25 C-188.30238281 137.6415625 -188.91726562 137.033125 -189.55078125 136.40625 C-190.19402344 135.7359375 -190.83726562 135.065625 -191.5 134.375 C-192.10457031 133.75882813 -192.70914063 133.14265625 -193.33203125 132.5078125 C-195.28178153 129.26010165 -195.04023778 126.98805103 -194.6875 123.25 C-192.95703125 120.67102051 -192.95703125 120.67102051 -190.5 118.25195312 C-189.58484619 117.33410034 -188.66969238 116.41624756 -187.72680664 115.47058105 C-186.71412931 114.4903649 -185.70101585 113.51059913 -184.6875 112.53125 C-183.65145665 111.5057421 -182.61689224 110.47873812 -181.58374023 109.45031738 C-178.85998301 106.747582 -176.11545935 104.06690901 -173.36639404 101.38995361 C-171.14375407 99.21886577 -168.93582454 97.03316243 -166.72866821 94.84635162 C-149.04430206 77.32602372 -149.04430206 77.32602372 -141.31863403 70.67953491 C-139.38277444 68.98293683 -137.60918728 67.18292598 -135.87109375 65.28515625 C-135.25169922 64.63095703 -134.63230469 63.97675781 -133.99414062 63.30273438 C-132.73252442 61.95938337 -131.48271825 60.60485624 -130.24414062 59.24023438 C-127.09218698 55.95023896 -125.56357646 54.39494249 -120.95703125 53.6328125 C-117.60333407 54.26588795 -116.33003312 54.71935403 -113.9375 57.0625 C-113.27234375 57.69800781 -112.6071875 58.33351562 -111.921875 58.98828125 C-111.18453125 59.73464844 -110.4471875 60.48101562 -109.6875 61.25 C-108.80578125 62.13042969 -107.9240625 63.01085937 -107.015625 63.91796875 C-105.13316157 65.80010531 -103.25859425 67.68927011 -101.38671875 69.58203125 C-97.95705758 72.97198578 -94.379587 76.15033957 -90.6875 79.25 C-84.22431238 73.86401032 -78.19772445 68.20959489 -72.75 61.7890625 C-69.50306706 58.05214101 -66.0449685 54.5900107 -62.5 51.140625 C-61.94884521 50.60206879 -61.39769043 50.06351257 -60.82983398 49.50863647 C-58.5297852 47.26285524 -56.22841198 45.01893696 -53.90869141 42.79345703 C-52.19857409 41.14960499 -50.5045405 39.49055037 -48.8125 37.828125 C-48.28245361 37.32702209 -47.75240723 36.82591919 -47.20629883 36.30963135 C-45.57337244 34.74678429 -45.57337244 34.74678429 -43.6875 32.25 C-43.68512119 29.61962915 -44.31880716 28.69329596 -45.97851562 26.69775391 C-46.51154297 26.21226074 -47.04457031 25.72676758 -47.59375 25.2265625 C-48.46193359 24.40671875 -48.46193359 24.40671875 -49.34765625 23.5703125 C-50.57033284 22.44368482 -51.79688539 21.32124852 -53.02734375 20.203125 C-55.79667529 17.57565231 -57.49240576 15.77332711 -58.84375 12.1484375 C-58.63321061 8.24293189 -57.45009527 6.97718811 -54.6875 4.25 C-51.53393555 3.42285156 -51.53393555 3.42285156 -47.82421875 3.140625 C-47.15518021 3.08348328 -46.48614166 3.02634155 -45.79682922 2.96746826 C-43.65730343 2.78997762 -41.5169745 2.64458751 -39.375 2.5 C-37.97834737 2.38881238 -36.5818584 2.27554849 -35.18554688 2.16015625 C-31.02165387 1.82352141 -26.85528056 1.53369573 -22.6875 1.25 C-21.31484775 1.15349471 -19.94220761 1.05681714 -18.56958008 0.95996094 C-5.88072167 0.08351321 -5.88072167 0.08351321 0 0 Z " fill="#24313F" transform="translate(277.6875,141.75)"/>
<path d="M0 0 C102.3 0 204.6 0 310 0 C304.35690236 5.64309764 304.35690236 5.64309764 301.0625 7 C299.90427734 7.47953125 299.90427734 7.47953125 298.72265625 7.96875 C294.29531648 9.6456764 289.82835577 11.20816252 285.36328125 12.78125 C281.12831709 14.31587116 277.04432183 16.01972942 273 18 C272.26394531 18.35578125 271.52789062 18.7115625 270.76953125 19.078125 C266.12831326 21.42130617 266.12831326 21.42130617 262.42528152 24.98439407 C258.97663509 29.23676693 255.6413199 31.1502646 250.23964691 31.73860931 C243.92668775 32.12421334 237.61319721 32.03608576 231.29199219 31.97167969 C228.85545029 31.97597383 226.4189124 31.98373283 223.98239136 31.99468994 C218.06401574 32.01203944 212.14645545 31.99237912 206.22823521 31.95528874 C199.33315471 31.91363721 192.43826552 31.91403644 185.54308286 31.91597906 C173.24142341 31.91797873 160.94018092 31.88140737 148.63867188 31.82324219 C136.70565195 31.76684872 124.77299875 31.7385614 112.83984375 31.74121094 C112.10426037 31.74137076 111.368677 31.74153059 110.61080322 31.74169526 C109.87648107 31.74185667 109.14215892 31.74201809 108.38558459 31.7421844 C94.78964894 31.74494398 81.19386881 31.72138895 67.59798358 31.68557154 C62.79270127 31.67351208 57.98744756 31.66925407 53.18215179 31.66744232 C46.71744226 31.66442825 40.25304204 31.63904616 33.78845596 31.59877777 C31.4136631 31.58708007 29.03882583 31.58217586 26.66400528 31.58448792 C23.42750777 31.58644679 20.19209594 31.56387072 16.95574951 31.53485107 C15.53937167 31.54414269 15.53937167 31.54414269 14.09438014 31.55362201 C10.01252301 31.49298893 7.59582523 31.34210619 4.00276566 29.27907181 C-3.35268756 20.90884336 0 11.34455944 0 0 Z " fill="#EAECEC" transform="translate(30,324)"/>
<path d="M0 0 C0.12375 0.8971875 0.2475 1.794375 0.375 2.71875 C2.05989408 12.9123592 4.81712171 22.56394845 11 31 C13.66498049 32.19687331 15.14890399 32.33926247 18.01953125 31.953125 C20 32 20 32 21.734375 33.6796875 C23.91705346 37.68126468 23.60892356 41.56955613 23 46 C21.53719333 49.35226528 20.53968683 51.38040772 17.05859375 52.78125 C14.9375 53.4375 14.9375 53.4375 12.90234375 53.87109375 C9.83908409 55.68892135 9.14115231 58.79058428 8 62 C3.22342076 74.90662708 -1.72868736 87.725096 -15 94 C-25.63054204 97.75119249 -39.50157785 97.79737296 -49.8515625 93.1796875 C-59.61230679 87.82015154 -65.84924161 78.06257029 -69.26953125 67.65234375 C-70.16829785 64.3889078 -70.87234251 61.11904038 -71.41015625 57.77734375 C-71.92958535 55.60278983 -71.92958535 55.60278983 -75 54 C-75.99 53.71125 -76.98 53.4225 -78 53.125 C-81.30544413 51.88545845 -82.26840184 51.00751259 -84 48 C-84.91476665 45.25570004 -85.19238444 43.40966906 -85.25 40.5625 C-85.27578125 39.80066406 -85.3015625 39.03882813 -85.328125 38.25390625 C-84.90433277 35.34285727 -84.10163794 34.05138138 -82 32 C-79.625 31.4609375 -79.625 31.4609375 -77 31.375 C-73.28920422 31.23142754 -72.20997413 31.13998275 -69 29 C-68.67 28.01 -68.34 27.02 -68 26 C-67.34 26 -66.68 26 -66 26 C-65.81824219 25.43152344 -65.63648438 24.86304688 -65.44921875 24.27734375 C-63.86170499 19.40082713 -62.29609647 14.59219294 -60 10 C-56.77113178 8.92371059 -54.85373189 9.27516736 -51.5546875 9.734375 C-38.95751911 11.04417233 -25.65261328 10.23178556 -14 5 C-13.20335937 4.65453125 -12.40671875 4.3090625 -11.5859375 3.953125 C-2.5625 0 -2.5625 0 0 0 Z " fill="#FCD1AA" transform="translate(410,217)"/>
<path d="M0 0 C0.16013011 8.60810545 -0.34168013 17.1071012 -1 25.6875 C-1.09539062 26.97333984 -1.19078125 28.25917969 -1.2890625 29.58398438 C-1.52244241 32.7229442 -1.75949331 35.86157958 -2 39 C-5.67148109 37.25391682 -7.71154294 35.30243747 -10.33984375 32.2421875 C-11.96218815 30.84129396 -11.96218815 30.84129396 -14.21508789 30.56420898 C-18.34528431 31.21051394 -20.44433152 33.82565911 -23.21875 36.73046875 C-24.08929016 37.61162102 -24.08929016 37.61162102 -24.97741699 38.51057434 C-26.83035216 40.391463 -28.66519565 42.28893704 -30.5 44.1875 C-31.73451338 45.44710512 -32.97017884 46.7055822 -34.20703125 47.96289062 C-36.48966206 50.28628818 -38.76528638 52.61609794 -41.03320312 54.95385742 C-42.92612016 56.90410957 -44.83403466 58.83322226 -46.75708008 60.75439453 C-48.99459659 62.99459012 -51.0947861 65.31209304 -53.1875 67.6875 C-57.19185641 72.17157964 -61.38805535 76.40943313 -65.6640625 80.6328125 C-68.28768348 83.29153208 -70.7100252 86.07395298 -73.1328125 88.9140625 C-76.25126822 92.39786031 -79.61567754 95.63402975 -82.9609375 98.8984375 C-85.04126091 100.83096046 -85.04126091 100.83096046 -86 103 C-89.41177437 102.41956979 -91.00759261 101.34474086 -93.390625 98.8671875 C-94.01420898 98.2287793 -94.63779297 97.59037109 -95.28027344 96.93261719 C-95.9302832 96.25360352 -96.58029297 95.57458984 -97.25 94.875 C-98.59186933 93.50076527 -99.93560008 92.12834549 -101.28125 90.7578125 C-101.92320312 90.10329102 -102.56515625 89.44876953 -103.2265625 88.77441406 C-105.86116483 86.13836096 -108.6290949 83.68913671 -111.484375 81.296875 C-113 80 -113 80 -114.265625 78.328125 C-116.07968609 76.73053735 -116.07968609 76.73053735 -119.25390625 76.40234375 C-124.47237042 77.23490373 -126.49531094 79.74085702 -129.9375 83.5625 C-131.08967023 84.79557007 -132.24463569 86.02603407 -133.40234375 87.25390625 C-133.99096191 87.88167969 -134.57958008 88.50945312 -135.18603516 89.15625 C-136.95477023 90.95402757 -138.78648253 92.58932472 -140.70703125 94.22265625 C-144.1970425 97.21499669 -147.45243806 100.40169798 -150.671875 103.6796875 C-151.16635635 104.18207443 -151.66083771 104.68446136 -152.17030334 105.20207214 C-154.22238463 107.29052912 -156.27121223 109.38198488 -158.31103516 111.48242188 C-159.8204406 113.03408498 -161.33908656 114.57619621 -162.859375 116.1171875 C-163.75108398 117.03097168 -164.64279297 117.94475586 -165.56152344 118.88623047 C-167.85240354 120.87205745 -169.00143689 121.82459545 -172 122 C-173.921875 120.56640625 -173.921875 120.56640625 -175.75 118.5625 C-176.36359375 117.90378906 -176.9771875 117.24507813 -177.609375 116.56640625 C-178.06828125 116.04949219 -178.5271875 115.53257812 -179 115 C-174.98455792 110.18769447 -170.79016026 105.64181061 -166.3515625 101.21875 C-165.73534027 100.60157104 -165.11911804 99.98439209 -164.48422241 99.34851074 C-163.18960252 98.05321515 -161.89373823 96.75916221 -160.59667969 95.46630859 C-158.63361828 93.5085948 -156.67594262 91.54561029 -154.71875 89.58203125 C-149.2168278 84.07743821 -143.73781718 78.62091293 -137.80224609 73.57958984 C-134.19722392 70.41994565 -130.86776011 66.97079797 -127.5 63.5625 C-126.77296875 62.83095703 -126.0459375 62.09941406 -125.296875 61.34570312 C-123.52890501 59.56610176 -121.76333622 57.78419082 -120 56 C-116.26371451 57.26234433 -114.24342384 58.46916504 -111.8125 61.5625 C-108.32376828 65.75964231 -104.46119122 69.29694889 -100.3515625 72.87890625 C-98.34587592 74.68802222 -96.59261863 76.53963792 -94.8125 78.5625 C-92.18879167 81.29253841 -92.18879167 81.29253841 -88.63867188 81.421875 C-84.22379111 80.91000477 -83.01593694 79.85027837 -79.96875 76.6875 C-79.07542969 75.77613281 -78.18210937 74.86476563 -77.26171875 73.92578125 C-76.34088774 72.95076451 -75.42031618 71.97550269 -74.5 71 C-73.58863281 70.06542969 -72.67726563 69.13085938 -71.73828125 68.16796875 C-67.96872089 64.27873981 -64.2689362 60.36042364 -60.7734375 56.22265625 C-57.39604503 52.30100627 -53.71552119 48.72566951 -50.0078125 45.12109375 C-49.05446014 44.19014389 -49.05446014 44.19014389 -48.08184814 43.24038696 C-45.42292354 40.644699 -42.76389218 38.04975895 -40.08105469 35.47875977 C-38.105168 33.58167049 -36.14906837 31.66593319 -34.1953125 29.74609375 C-33.58809357 29.17297958 -32.98087463 28.59986542 -32.35525513 28.00938416 C-28.54758877 24.22683832 -27.05562414 21.59935497 -27 16 C-28.20443403 13.66186125 -28.20443403 13.66186125 -30.1875 11.875 C-32.98767746 9.03355677 -35.54317869 6.14865347 -38 3 C-12.23623663 -0.58165209 -12.23623663 -0.58165209 0 0 Z " fill="#5BB2A3" transform="translate(276,154)"/>
<path d="M0 0 C22.77 0 45.54 0 69 0 C71.00912801 8.70622137 72.94189722 17.37061748 74.6875 26.125 C75.02491211 27.78789062 75.02491211 27.78789062 75.36914062 29.484375 C75.6872168 31.07378906 75.6872168 31.07378906 76.01171875 32.6953125 C76.20209717 33.64422363 76.39247559 34.59313477 76.58862305 35.57080078 C77 38 77 38 77 41 C49.28 41 21.56 41 -7 41 C-5.03927451 27.27492157 -2.71903703 13.59518517 0 0 Z " fill="#BDC5C9" transform="translate(160,368)"/>
<path d="M0 0 C0.87720703 -0.020625 1.75441406 -0.04125 2.65820312 -0.0625 C13.00429245 -0.12349389 21.52024502 2.69272571 29.5625 9.25 C30.91636936 10.90002828 32.24928142 12.5674387 33.5625 14.25 C35.02472995 15.37649973 36.50614415 16.47828935 38 17.5625 C43.06890266 21.37044005 45.76871847 25.66243693 48.5625 31.25 C48.80123623 34.53613396 48.74769014 37.83114583 48.75 41.125 C48.76224609 42.03636719 48.77449219 42.94773438 48.78710938 43.88671875 C48.78904297 44.76714844 48.79097656 45.64757812 48.79296875 46.5546875 C48.79707764 47.35890137 48.80118652 48.16311523 48.80541992 48.99169922 C48.53840333 51.47401431 47.80316762 53.10180414 46.5625 55.25 C43.20986558 48.21790202 40.40095481 41.98388119 39.5 34.1875 C38.92616743 29.13048409 38.92616743 29.13048409 36.375 24.875 C33.64214594 23.01555822 33.64214594 23.01555822 30.375 23.0625 C27.01792256 24.10814707 24.96909825 25.14421173 22.0625 27 C9.13738514 35.07342902 -2.84588859 35.88132105 -17.625 35.3125 C-20.12227089 35.22394087 -22.61853785 35.14363077 -25.11677551 35.08824158 C-26.65436774 35.05370935 -28.1916911 35.00031537 -29.72782898 34.92506409 C-33.14176533 34.84396146 -35.02747865 34.94289693 -37.80102539 37.02026367 C-39.2746816 39.02815599 -40.49512887 40.902433 -41.578125 43.140625 C-41.92617188 43.84960938 -42.27421875 44.55859375 -42.6328125 45.2890625 C-42.98085938 46.01867187 -43.32890625 46.74828125 -43.6875 47.5 C-44.23277344 48.61761719 -44.23277344 48.61761719 -44.7890625 49.7578125 C-45.67922145 51.58498087 -46.5593739 53.41701834 -47.4375 55.25 C-48.4275 54.92 -49.4175 54.59 -50.4375 54.25 C-50.55511144 50.29192285 -50.62521882 46.33430379 -50.6875 42.375 C-50.72101563 41.26640625 -50.75453125 40.1578125 -50.7890625 39.015625 C-50.92552152 27.41660811 -47.53775283 18.62293461 -39.4375 10.25 C-28.38661426 0.68231443 -13.9684281 0.08174647 0 0 Z " fill="#3E505B" transform="translate(380.4375,179.75)"/>
<path d="M0 0 C10.56 0 21.12 0 32 0 C28 13 28 13 26.7890625 16.66015625 C25.70575959 21.24542352 25.53730803 25.74071143 25.375 30.4375 C25.33632813 31.35982422 25.29765625 32.28214844 25.2578125 33.23242188 C25.16431783 35.48798068 25.08110639 37.74396176 25 40 C19.06 40 13.12 40 7 40 C0 8.47328244 0 8.47328244 0 0 Z " fill="#F7F6F6" transform="translate(242,368)"/>
<path d="M0 0 C1.98 0 3.96 0 6 0 C6.08302368 0.88522339 6.08302368 0.88522339 6.16772461 1.78833008 C6.42067687 4.46341208 6.679027 7.13794603 6.9375 9.8125 C7.02451172 10.74126953 7.11152344 11.67003906 7.20117188 12.62695312 C7.28818359 13.51962891 7.37519531 14.41230469 7.46484375 15.33203125 C7.543396 16.15421143 7.62194824 16.9763916 7.70288086 17.82348633 C7.95551045 20.17487422 7.95551045 20.17487422 9 23 C9.20108813 24.53102778 9.36345362 26.06734081 9.5 27.60546875 C9.62375 28.95801758 9.62375 28.95801758 9.75 30.33789062 C9.87375 31.74844727 9.87375 31.74844727 10 33.1875 C10.32293092 36.79272096 10.65585717 40.39674268 11 44 C11.07089844 44.80002441 11.14179688 45.60004883 11.21484375 46.42431641 C11.40477728 48.29157956 11.69247883 50.14846627 12 52 C12.66 52.33 13.32 52.66 14 53 C7.07 53 0.14 53 -7 53 C-6.67 51.68 -6.34 50.36 -6 49 C-5.34 49 -4.68 49 -4 49 C-3.98018066 48.34741211 -3.96036133 47.69482422 -3.93994141 47.02246094 C-3.57633947 35.55192466 -3.15765333 24.10939312 -2 12.6875 C-1.8755249 11.45435059 -1.8755249 11.45435059 -1.74853516 10.19628906 C-1.37432546 6.71885905 -0.90109865 3.37771197 0 0 Z " fill="#5D6D76" transform="translate(376,377)"/>
<path d="M0 0 C1.29744141 0.44472656 1.29744141 0.44472656 2.62109375 0.8984375 C15.59409389 5.12778552 28.69571436 6.96923439 42 3 C42.68964844 2.64679688 43.37929688 2.29359375 44.08984375 1.9296875 C46 1 46 1 49 1 C49.23510742 3.30053711 49.23510742 3.30053711 49 6 C47.42700195 7.69750977 47.42700195 7.69750977 45.23828125 9.19140625 C44.44873047 9.74376953 43.65917969 10.29613281 42.84570312 10.86523438 C42.00974609 11.42533203 41.17378906 11.98542969 40.3125 12.5625 C38.68295437 13.68787682 37.05403153 14.81415606 35.42578125 15.94140625 C34.65830566 16.46621582 33.89083008 16.99102539 33.10009766 17.53173828 C30.64337271 19.24933231 28.30290865 21.08169116 26 23 C21.35301571 20.76447972 17.21775106 17.95484279 13 15 C12.1661377 14.41774658 12.1661377 14.41774658 11.31542969 13.82373047 C9.50795437 12.54766275 7.72134532 11.24635116 5.9375 9.9375 C5.35299072 9.52628906 4.76848145 9.11507813 4.16625977 8.69140625 C2.52734375 7.46484375 2.52734375 7.46484375 0 5 C-0.37109375 2.19140625 -0.37109375 2.19140625 0 0 Z " fill="#F3D4B0" transform="translate(353,320)"/>
<path d="M0 0 C102.3 0 204.6 0 310 0 C308.515 1.98 308.515 1.98 307 4 C306.34 4 305.68 4 305 4 C305 3.01 305 2.02 305 1 C204.68 1 104.36 1 1 1 C1 7.93 1 14.86 1 22 C0.67 22 0.34 22 0 22 C0 14.74 0 7.48 0 0 Z " fill="#DDDEDF" transform="translate(30,324)"/>
<path d="M0 0 C0.66 0.33 1.32 0.66 2 1 C1.83776831 1.57666188 1.67553662 2.15332376 1.50838882 2.74746025 C1.01505919 4.93327662 0.87158273 6.80581659 0.86577892 9.04063606 C0.86132108 9.84013085 0.85686324 10.63962565 0.85227031 11.46334755 C0.85245467 12.33590215 0.85263903 13.20845675 0.85282898 14.10745239 C0.84915229 15.03894792 0.8454756 15.97044346 0.8416875 16.93016613 C0.83065306 20.05908115 0.82680721 23.18796296 0.82299805 26.31689453 C0.8167332 28.55738938 0.81008638 30.79788319 0.80308533 33.03837585 C0.78204445 40.40318071 0.77168266 47.76798577 0.76171875 55.1328125 C0.75767115 57.66847622 0.75355423 60.20413982 0.74936867 62.73980331 C0.73249977 73.28789289 0.71786534 83.83598031 0.71061993 94.38408089 C0.70871015 97.11998623 0.7067898 99.85589156 0.70483398 102.59179688 C0.70435024 103.27176255 0.7038665 103.95172822 0.7033681 104.65229891 C0.69507227 115.66106888 0.6697421 126.66973003 0.63725331 137.67845251 C0.6041438 148.99005789 0.58650013 160.30158858 0.58297569 171.61324966 C0.58062571 177.96060381 0.57167178 184.30778594 0.54651451 190.65509415 C0.5232204 196.62886863 0.51900617 202.60235801 0.52927589 208.57616615 C0.52977104 210.76505672 0.52345697 212.95396139 0.50971985 215.14280891 C0.49197207 218.13909398 0.49912169 221.13435901 0.51225281 224.13064575 C0.50128356 224.98981602 0.49031432 225.84898628 0.47901267 226.73419201 C0.53866758 232.40110585 1.79004903 236.70985392 4.14214736 241.86650074 C5 244 5 244 5 247 C4.17977251 245.92250558 3.36913831 244.83770492 2.5625 243.75 C2.11003906 243.14671875 1.65757813 242.5434375 1.19140625 241.921875 C-0.80991437 238.69351518 -1.12498701 235.5853634 -1.12584114 231.84051991 C-1.12844889 231.01457445 -1.13105664 230.18862899 -1.13374341 229.33765489 C-1.13151268 228.43561552 -1.12928196 227.53357616 -1.12698364 226.60420227 C-1.12854363 225.64185533 -1.13010362 224.67950839 -1.13171089 223.68799943 C-1.13570767 220.45515148 -1.13253635 217.22235027 -1.12939453 213.98950195 C-1.13074913 211.67529269 -1.13252939 209.36108364 -1.13470459 207.046875 C-1.13927118 200.75591768 -1.13749273 194.46497672 -1.1343255 188.1740191 C-1.13179883 181.60146048 -1.13414022 175.02890328 -1.13571167 168.4563446 C-1.13784884 156.71366404 -1.13453648 144.97099039 -1.12945233 133.22831102 C-1.1249814 122.57171863 -1.12576317 111.91513712 -1.13037109 101.25854492 C-1.13571657 88.89041184 -1.13771809 76.5222857 -1.13475883 64.15415162 C-1.13319593 57.60426871 -1.13300271 51.05439331 -1.13629532 44.50451088 C-1.13917249 38.35109074 -1.13720121 32.19769127 -1.13140106 26.04427338 C-1.1300728 23.77904736 -1.13046868 21.51381962 -1.13266373 19.24859428 C-1.13537256 16.17065453 -1.13199744 13.09278219 -1.12698364 10.0148468 C-1.12921436 9.10611527 -1.13144509 8.19738374 -1.13374341 7.2611149 C-1.11415008 1.11415008 -1.11415008 1.11415008 0 0 Z " fill="#1C1D1F" transform="translate(19,113)"/>
<path d="M0 0 C0.556875 0.2475 1.11375 0.495 1.6875 0.75 C0.58437801 3.1254901 -0.51996589 5.50039953 -1.625 7.875 C-1.93373047 8.54015625 -2.24246094 9.2053125 -2.56054688 9.890625 C-4.41657651 13.87620443 -6.32650162 17.82688936 -8.3125 21.75 C-12.68701315 21.75 -13.31722003 21.34622397 -16.5625 18.75 C-17.26890625 18.193125 -17.9753125 17.63625 -18.703125 17.0625 C-19.23421875 16.629375 -19.7653125 16.19625 -20.3125 15.75 C-18.79777436 11.78159599 -16.44032167 10.13355169 -13 7.75 C-10.10748727 5.72958183 -7.34782719 3.78135487 -4.70703125 1.4375 C-2.3125 -0.25 -2.3125 -0.25 0 0 Z " fill="#E5E5E5" transform="translate(410.3125,335.25)"/>
<path d="M0 0 C3.48330216 0.64505596 6.09432866 1.98217268 9 4 C9 4.66 9 5.32 9 6 C9.85851562 6.39832031 9.85851562 6.39832031 10.734375 6.8046875 C13.1076012 8.05676891 15.12213286 9.4936352 17.25 11.125 C17.95640625 11.66382813 18.6628125 12.20265625 19.390625 12.7578125 C19.92171875 13.16773438 20.4528125 13.57765625 21 14 C19.33333333 15.66666667 17.66666667 17.33333333 16 19 C15.484375 19.598125 14.96875 20.19625 14.4375 20.8125 C13 22 13 22 9 22 C5.34759558 14.82113615 2.07035826 7.80365807 0 0 Z " fill="#E8E8E8" transform="translate(346,336)"/>
<path d="M0 0 C0.33 0.66 0.66 1.32 1 2 C1.98527679 1.99555878 2.97055359 1.99111755 3.98568726 1.98654175 C13.25622087 1.94605568 22.52673663 1.91604453 31.79733849 1.89637566 C36.56382294 1.88592388 41.33023621 1.87173936 46.09667969 1.84912109 C50.69374927 1.82744227 55.29075024 1.81544188 59.88786697 1.81024551 C61.64460964 1.80654081 63.40134841 1.79930678 65.15806198 1.78853989 C67.61245688 1.77409076 70.06656573 1.77201927 72.52099609 1.77294922 C73.25251389 1.76575867 73.98403168 1.75856812 74.73771667 1.75115967 C79.77189568 1.77189568 79.77189568 1.77189568 82 4 C54.61 4 27.22 4 -1 4 C-0.67 2.68 -0.34 1.36 0 0 Z " fill="#D4DCDF" transform="translate(154,404)"/>
<path d="M0 0 C48.84 0 97.68 0 148 0 C147.01 1.32 146.02 2.64 145 4 C144.34 4 143.68 4 143 4 C143 3.01 143 2.02 143 1 C95.81 1 48.62 1 0 1 C0 0.67 0 0.34 0 0 Z " fill="#E4E4E5" transform="translate(192,324)"/>
<path d="M0 0 C0.33 0 0.66 0 1 0 C1.45502834 12.7155142 0.11220075 25.34723748 -1 38 C-1.66 38 -2.32 38 -3 38 C-3.33 39.32 -3.66 40.64 -4 42 C-7.375 42.125 -7.375 42.125 -11 42 C-13 40 -13 40 -13.265625 37.3203125 C-13.26046875 36.26585937 -13.2553125 35.21140625 -13.25 34.125 C-13.25515625 33.07570313 -13.2603125 32.02640625 -13.265625 30.9453125 C-13 28 -13 28 -11 24 C-11 28.62 -11 33.24 -11 38 C-8.69 38.66 -6.38 39.32 -4 40 C-3.92483154 38.92854736 -3.92483154 38.92854736 -3.84814453 37.83544922 C-1.98528635 11.61603717 -1.98528635 11.61603717 0 0 Z " fill="#212D3B" transform="translate(373,388)"/>
<path d="M0 0 C3.07580162 1.49216398 4.99836273 3.6770332 7.3515625 6.14453125 C8.31959049 7.14519123 9.28965641 8.14388361 10.26171875 9.140625 C10.73883301 9.63030762 11.21594727 10.11999023 11.70751953 10.62451172 C14.68009794 13.5991725 17.88269352 16.317157 21.1015625 19.01953125 C20.4415625 19.67953125 19.7815625 20.33953125 19.1015625 21.01953125 C17.6015625 19.64453125 17.6015625 19.64453125 16.1015625 18.01953125 C16.1015625 17.35953125 16.1015625 16.69953125 16.1015625 16.01953125 C15.5240625 15.75914062 14.9465625 15.49875 14.3515625 15.23046875 C11.94466407 13.93508939 10.13641704 12.46477223 8.1015625 10.64453125 C7.40804687 10.02707031 6.71453125 9.40960938 6 8.7734375 C4.53444216 7.41945505 3.11899558 6.01110731 1.7265625 4.58203125 C0.23700749 2.78849501 0.23700749 2.78849501 -1.8984375 3.01953125 C-3.58717629 4.66382954 -5.25149265 6.33337343 -6.8984375 8.01953125 C-8.21019736 9.04766736 -9.5354268 10.06037557 -10.8984375 11.01953125 C-9.5079876 7.91511094 -7.88272152 5.65388695 -5.5234375 3.20703125 C-4.93820313 2.58183594 -4.35296875 1.95664063 -3.75 1.3125 C-1.8984375 0.01953125 -1.8984375 0.01953125 0 0 Z " fill="#C2E0E4" transform="translate(156.8984375,244.98046875)"/>
<path d="M0 0 C0 0.66 0 1.32 0 2 C-0.66 2 -1.32 2 -2 2 C-2.26554687 2.59167969 -2.53109375 3.18335938 -2.8046875 3.79296875 C-4.03337579 6.06162523 -5.28387757 7.51847605 -7.125 9.3125 C-7.74375 9.91578125 -8.3625 10.5190625 -9 11.140625 C-11.00076102 13.00070751 -13.04985781 14.78605252 -15.125 16.5625 C-22.13156727 22.53052409 -22.13156727 22.53052409 -25 31 C-25.66 31 -26.32 31 -27 31 C-27.52973446 26.88401687 -27.29247077 25.38459748 -24.73681641 22.02392578 C-23.70740073 20.9820041 -22.661169 19.95651549 -21.6015625 18.9453125 C-21.05140472 18.39890106 -20.50124695 17.85248962 -19.93441772 17.28952026 C-18.7728142 16.14132738 -17.60405346 15.00033597 -16.42871094 13.86621094 C-14.62412063 12.1241511 -12.84196613 10.36143159 -11.0625 8.59375 C-9.93092716 7.48050936 -8.79815497 6.36848621 -7.6640625 5.2578125 C-7.12754059 4.72979034 -6.59101868 4.20176819 -6.03823853 3.65774536 C-2.23441915 0 -2.23441915 0 0 0 Z " fill="#1A222E" transform="translate(110,240)"/>
<path d="M0 0 C-1.5847358 3.86328627 -4.05956887 6.28876923 -7.0078125 9.203125 C-7.49329559 9.6857782 -7.97877869 10.1684314 -8.47897339 10.66571045 C-10.02299866 12.19858562 -11.57384824 13.72434004 -13.125 15.25 C-14.17624009 16.29120361 -15.22702657 17.33286541 -16.27734375 18.375 C-18.84633004 20.92199464 -21.42148161 23.46265177 -24 26 C-24.33 25.01 -24.66 24.02 -25 23 C-22.38308836 20.32529045 -19.75518292 17.66165519 -17.125 15 C-16.00544922 13.8553125 -16.00544922 13.8553125 -14.86328125 12.6875 C-14.14785156 11.965625 -13.43242188 11.24375 -12.6953125 10.5 C-12.03547363 9.8296875 -11.37563477 9.159375 -10.69580078 8.46875 C-9 7 -9 7 -7 7 C-6.731875 6.401875 -6.46375 5.80375 -6.1875 5.1875 C-3.37142857 0 -3.37142857 0 0 0 Z " fill="#BDD8DC" transform="translate(108,239)"/>
<path d="M0 0 C4.34429138 6.51643707 4.2877266 14.234583 4.1953125 21.84765625 C4.1924826 22.74495956 4.18965271 23.64226288 4.18673706 24.5667572 C4.17564979 27.39881414 4.15056747 30.23054061 4.125 33.0625 C4.11495537 34.99674019 4.10583213 36.93098539 4.09765625 38.86523438 C4.07574814 43.5769479 4.04129901 48.28841816 4 53 C3.67 53 3.34 53 3 53 C3 40.79 3 28.58 3 16 C2.34 16 1.68 16 1 16 C0.83125293 14.08351538 0.66508357 12.16680367 0.5 10.25 C0.4071875 9.18265625 0.314375 8.1153125 0.21875 7.015625 C0.04947717 4.6820782 0 2.33967818 0 0 Z " fill="#4F5963" transform="translate(486,375)"/>
<path d="M0 0 C2.43359375 1.75 2.43359375 1.75 4.4375 4 C5.45650391 5.11375 5.45650391 5.11375 6.49609375 6.25 C6.99238281 6.8275 7.48867187 7.405 8 8 C7.67 8.66 7.34 9.32 7 10 C6.22076172 9.24203125 6.22076172 9.24203125 5.42578125 8.46875 C4.72839844 7.8190625 4.03101563 7.169375 3.3125 6.5 C2.62800781 5.8503125 1.94351563 5.200625 1.23828125 4.53125 C-0.89508552 2.88181645 -0.89508552 2.88181645 -3.3515625 2.41015625 C-7.47269699 3.32799004 -9.75806285 6.01469804 -12.6875 8.9375 C-18.85600707 14.92800353 -18.85600707 14.92800353 -21 16 C-19.33835823 11.85093086 -16.37756577 8.90177735 -13.3125 5.75 C-12.80783203 5.19570312 -12.30316406 4.64140625 -11.78320312 4.0703125 C-8.04081786 0.22857187 -5.55988432 -1.0015496 0 0 Z " fill="#1D2434" transform="translate(160,230)"/>
<path d="M0 0 C0 0.33 0 0.66 0 1 C-4.47877512 1.33873468 -8.95807297 1.67000737 -13.4375 2 C-14.69755859 2.09539062 -15.95761719 2.19078125 -17.25585938 2.2890625 C-23.85809778 2.77173267 -30.38027835 3.11525087 -37 3 C-33.27448138 -1.0929577 -29.70889773 -0.66189267 -24.33984375 -0.94921875 C-16.2212404 -1.13909395 -8.09699157 -0.52948134 0 0 Z " fill="#A7C4CA" transform="translate(283,141)"/>
<path d="M0 0 C2.64 0.33 5.28 0.66 8 1 C8 1.33 8 1.66 8 2 C-3.71516536 4.17956565 -15.19481629 4.88882939 -27 3 C-27 2.67 -27 2.34 -27 2 C-23.81265063 1.83036895 -20.62510059 1.66483749 -17.4375 1.5 C-16.54224609 1.45230469 -15.64699219 1.40460938 -14.72460938 1.35546875 C-9.80829229 1.10334993 -4.9226912 0.9459787 0 1 C0 0.67 0 0.34 0 0 Z " fill="#4E4D51" transform="translate(380,224)"/>
<path d="M0 0 C0.66 0.33 1.32 0.66 2 1 C1.19175781 1.72445312 0.38351563 2.44890625 -0.44921875 3.1953125 C-1.52883737 4.17166325 -2.60825365 5.14823777 -3.6875 6.125 C-4.21794922 6.599375 -4.74839844 7.07375 -5.29492188 7.5625 C-8.87705758 10.81499131 -11.97749932 14.22047225 -15 18 C-15.66 17.01 -16.32 16.02 -17 15 C-14.73737364 12.67934614 -12.46356994 10.36996401 -10.1875 8.0625 C-9.54490234 7.40314453 -8.90230469 6.74378906 -8.24023438 6.06445312 C-7.61826172 5.43603516 -6.99628906 4.80761719 -6.35546875 4.16015625 C-5.49924927 3.28822632 -5.49924927 3.28822632 -4.62573242 2.39868164 C-3 1 -3 1 0 0 Z M-18 18 C-17.01 18.495 -17.01 18.495 -16 19 C-16.99 19.495 -16.99 19.495 -18 20 C-18 19.34 -18 18.68 -18 18 Z " fill="#202B37" transform="translate(126,224)"/>
<path d="M0 0 C3.83555225 1.5626324 6.13609725 4.06449968 9 7 C9.763125 7.556875 10.52625 8.11375 11.3125 8.6875 C12.1478125 9.3371875 12.1478125 9.3371875 13 10 C13 10.66 13 11.32 13 12 C18.31553629 12.64007081 18.31553629 12.64007081 23.08984375 10.6640625 C24.80497879 9.16989578 26.43160073 7.64681923 28 6 C26.20222373 9.80705564 24.3319739 12.33442088 21 15 C17.49200994 15.62734129 15.12753247 15.78313481 12.12084961 13.69482422 C10.16824884 11.89364129 8.35925144 10.01896268 6.5625 8.0625 C5.60827148 7.0734668 5.60827148 7.0734668 4.63476562 6.06445312 C0 1.2106438 0 1.2106438 0 0 Z " fill="#1D2233" transform="translate(170,221)"/>
<path d="M0 0 C2.18847656 0.34204102 2.18847656 0.34204102 4 1 C4 1.99 4 2.98 4 4 C3.15695312 4.10634766 3.15695312 4.10634766 2.296875 4.21484375 C-0.86549524 5.29585807 -2.45130827 7.1623954 -4.75 9.5625 C-5.54921875 10.38878906 -6.3484375 11.21507812 -7.171875 12.06640625 C-8.07679688 13.02353516 -8.07679688 13.02353516 -9 14 C-9.99 13.34 -10.98 12.68 -12 12 C-10.09797311 9.96339574 -8.18061509 7.94668664 -6.25 5.9375 C-5.71117187 5.35677734 -5.17234375 4.77605469 -4.6171875 4.17773438 C-3.015625 2.52734375 -3.015625 2.52734375 0 0 Z " fill="#BCDDE3" transform="translate(260,200)"/>
<path d="M0 0 C0 5.53653357 -3.73180222 9.06306805 -7.4375 12.875 C-8.19933594 13.67679688 -8.96117187 14.47859375 -9.74609375 15.3046875 C-10.48988281 15.86414063 -11.23367187 16.42359375 -12 17 C-13.32 16.67 -14.64 16.34 -16 16 C-10.72 10.72 -5.44 5.44 0 0 Z " fill="#B9D7DD" transform="translate(232,229)"/>
<path d="M0 0 C-1 2 -1 2 -3.1875 2.8125 C-8.75250138 5.16216725 -12.83507309 9.73821433 -17 14 C-18.60281237 15.60551982 -20.20707959 17.20958806 -21.8125 18.8125 C-22.60269531 19.60269531 -23.39289063 20.39289063 -24.20703125 21.20703125 C-24.79871094 21.79871094 -25.39039063 22.39039063 -26 23 C-26 17.37176413 -20.16894801 13.61436306 -16.375 9.8125 C-15.47136719 8.87212891 -14.56773437 7.93175781 -13.63671875 6.96289062 C-12.75371094 6.07408203 -11.87070313 5.18527344 -10.9609375 4.26953125 C-10.15446777 3.45073486 -9.34799805 2.63193848 -8.51708984 1.78833008 C-5.45179936 -0.38948299 -3.68033818 -0.36509436 0 0 Z " fill="#18212B" transform="translate(159,196)"/>
<path d="M0 0 C4.62 0 9.24 0 14 0 C14.10181226 7.73773151 13.75260039 15.29928525 13 23 C12.67 23 12.34 23 12 23 C11.67 16.4 11.34 9.8 11 3 C7.37 2.34 3.74 1.68 0 1 C0 0.67 0 0.34 0 0 Z " fill="#56A99B" transform="translate(262,154)"/>
<path d="M0 0 C0.33 0 0.66 0 1 0 C0.85969417 3.66689972 0.71174579 7.33345412 0.5625 11 C0.50352539 12.54494141 0.50352539 12.54494141 0.44335938 14.12109375 C0.20814561 19.80241075 -0.19481377 25.37046268 -1 31 C-1.99 30.67 -2.98 30.34 -4 30 C-4 26.04 -4 22.08 -4 18 C-3.34 17.67 -2.68 17.34 -2 17 C-1.52381188 14.12817413 -1.15832403 11.32879853 -0.875 8.4375 C-0.78863281 7.63119141 -0.70226562 6.82488281 -0.61328125 5.99414062 C-0.40056372 3.99695936 -0.19922145 1.99857263 0 0 Z " fill="#465864" transform="translate(287,162)"/>
<path d="M0 0 C2.62187494 1.04874998 3.79371361 1.64931313 5.25 4.125 C5.4975 4.74375 5.745 5.3625 6 6 C4.68 6.99 3.36 7.98 2 9 C0.02 7.68 -1.96 6.36 -4 5 C-2.68 3.35 -1.36 1.7 0 0 Z " fill="#6C7D87" transform="translate(377,356)"/>
<path d="M0 0 C-1.41602213 3.14906415 -3.13735082 5.49523672 -5.4375 8.0625 C-6.03433594 8.73410156 -6.63117188 9.40570313 -7.24609375 10.09765625 C-8.11427734 11.03931641 -8.11427734 11.03931641 -9 12 C-9.52722656 12.57621094 -10.05445313 13.15242188 -10.59765625 13.74609375 C-12 15 -12 15 -14 15 C-13.42433786 11.49997422 -12.2479443 9.91241005 -9.6875 7.5 C-9.0584375 6.90058594 -8.429375 6.30117188 -7.78125 5.68359375 C-7.1934375 5.12800781 -6.605625 4.57242187 -6 4 C-5.236875 3.195625 -4.47375 2.39125 -3.6875 1.5625 C-2 0 -2 0 0 0 Z " fill="#BDDBE1" transform="translate(146,255)"/>
<path d="M0 0 C1.40668945 0.00966797 1.40668945 0.00966797 2.84179688 0.01953125 C4.30649414 0.04466797 4.30649414 0.04466797 5.80078125 0.0703125 C6.78884766 0.07933594 7.77691406 0.08835937 8.79492188 0.09765625 C11.2346189 0.1212282 13.67382822 0.15413228 16.11328125 0.1953125 C16.11328125 0.5253125 16.11328125 0.8553125 16.11328125 1.1953125 C9.51328125 1.1953125 2.91328125 1.1953125 -3.88671875 1.1953125 C-3.88671875 1.8553125 -3.88671875 2.5153125 -3.88671875 3.1953125 C0.07328125 3.1953125 4.03328125 3.1953125 8.11328125 3.1953125 C8.11328125 3.5253125 8.11328125 3.8553125 8.11328125 4.1953125 C6.84871094 4.28619141 6.84871094 4.28619141 5.55859375 4.37890625 C4.46289062 4.46269531 3.3671875 4.54648437 2.23828125 4.6328125 C0.60246094 4.75462891 0.60246094 4.75462891 -1.06640625 4.87890625 C-3.83400846 5.02532953 -3.83400846 5.02532953 -5.88671875 6.1953125 C-6.54671875 4.8753125 -7.20671875 3.5553125 -7.88671875 2.1953125 C-4.63281887 0.02604591 -3.75275918 -0.04548799 0 0 Z " fill="#505963" transform="translate(124.88671875,407.8046875)"/>
<path d="M0 0 C0.33 0 0.66 0 1 0 C0.53378298 6.27980195 -0.98204649 10.87452667 -3.875 16.4375 C-4.22691406 17.15615234 -4.57882812 17.87480469 -4.94140625 18.61523438 C-7.61116308 23.87038769 -7.61116308 23.87038769 -11 25 C-10.7421875 24.49210937 -10.484375 23.98421875 -10.21875 23.4609375 C-8.60459143 20.20157885 -7.04830683 16.91596181 -5.5 13.625 C-5.19191406 12.97789062 -4.88382812 12.33078125 -4.56640625 11.6640625 C-2.76988922 7.83971724 -1.25261528 4.04594735 0 0 Z " fill="#1A202A" transform="translate(427,282)"/>
<path d="M0 0 C0.33 0 0.66 0 1 0 C1 1.65 1 3.3 1 5 C1.66 5 2.32 5 3 5 C3 11.6 3 18.2 3 25 C2.67 25 2.34 25 2 25 C0.7472283 16.61090382 -0.36011137 8.50262969 0 0 Z " fill="#232934" transform="translate(395,402)"/>
<path d="M0 0 C0.66 0 1.32 0 2 0 C0.5460901 8.38136293 -1.18048263 16.69087069 -3 25 C-3.33 25 -3.66 25 -4 25 C-3.55046968 16.39691968 -2.13898002 8.34067679 0 0 Z " fill="#111620" transform="translate(149,367)"/>
<path d="M0 0 C0.99 0.33 1.98 0.66 3 1 C-4.11389522 9.6309795 -4.11389522 9.6309795 -9 12 C-8.45015228 8.12488273 -6.72444669 6.40423494 -3.9375 3.75 C-3.20402344 3.04359375 -2.47054687 2.3371875 -1.71484375 1.609375 C-1.14894531 1.07828125 -0.58304688 0.5471875 0 0 Z " fill="#202A37" transform="translate(220,188)"/>
<path d="M0 0 C1.6026782 -0.10824843 3.20745748 -0.18570645 4.8125 -0.25 C5.70582031 -0.29640625 6.59914063 -0.3428125 7.51953125 -0.390625 C10 0 10 0 11.8125 1.6875 C13.22207489 4.43246163 13.30854638 6.18349161 13.1875 9.25 C13.16042969 10.14203125 13.13335937 11.0340625 13.10546875 11.953125 C13.07066406 12.62859375 13.03585937 13.3040625 13 14 C12.67 14 12.34 14 12 14 C11.86722656 13.37351562 11.73445313 12.74703125 11.59765625 12.1015625 C11.42105469 11.28429687 11.24445313 10.46703125 11.0625 9.625 C10.88847656 8.81289063 10.71445312 8.00078125 10.53515625 7.1640625 C10.07669307 4.970537 10.07669307 4.970537 9 3 C7.13507598 2.61004898 7.13507598 2.61004898 5 2.5 C2.8125 2.34375 2.8125 2.34375 1 2 C0.67 1.34 0.34 0.68 0 0 Z " fill="#D8CAA8" transform="translate(420,249)"/>
<path d="M0 0 C3.42754467 0.58110671 5.04538661 1.68553624 7.453125 4.16015625 C8.071875 4.78857422 8.690625 5.41699219 9.328125 6.06445312 C9.96234375 6.72380859 10.5965625 7.38316406 11.25 8.0625 C11.8996875 8.72572266 12.549375 9.38894531 13.21875 10.07226562 C14.8194676 11.70829317 16.41276193 13.35090912 18 15 C14.37779259 15 13.97556358 14.38698663 11.42578125 11.97265625 C10.75869141 11.34552734 10.09160156 10.71839844 9.40429688 10.07226562 C8.71400391 9.40904297 8.02371094 8.74582031 7.3125 8.0625 C6.61060547 7.40314453 5.90871094 6.74378906 5.18554688 6.06445312 C1.44342256 2.51870851 1.44342256 2.51870851 0 1 C0 0.67 0 0.34 0 0 Z " fill="#1B242F" transform="translate(161,199)"/>
<path d="M0 0 C8.59866352 0.64489976 14.36465297 5.94200195 20 12 C19.67 12.99 19.34 13.98 19 15 C17.9790625 13.6696875 17.9790625 13.6696875 16.9375 12.3125 C12.26848153 6.73598217 6.70855022 3.60127457 0 1 C0 0.67 0 0.34 0 0 Z " fill="#19202A" transform="translate(402,173)"/>
<path d="M0 0 C2.02350324 3.03525486 2.32124018 4.19426202 2.625 7.6875 C2.69976562 8.49574219 2.77453125 9.30398438 2.8515625 10.13671875 C2.90054687 10.75160156 2.94953125 11.36648438 3 12 C4.98 12 6.96 12 9 12 C9 12.66 9 13.32 9 14 C3.25 14.125 3.25 14.125 1 13 C-0.00496852 9.98509443 -0.10335303 7.95818308 -0.0625 4.8125 C-0.05347656 3.91144531 -0.04445313 3.01039063 -0.03515625 2.08203125 C-0.02355469 1.39496094 -0.01195312 0.70789063 0 0 Z " fill="#1D2735" transform="translate(387,416)"/>
<path d="M0 0 C3.19633309 1.41348952 5.36488337 3.14815087 7.875 5.5625 C11.16537937 8.5324679 13.42801556 9.88570039 18 10 C18 10.33 18 10.66 18 11 C10.7796034 11.48951841 10.7796034 11.48951841 7.3125 9.3125 C6.549375 8.549375 5.78625 7.78625 5 7 C4.071875 6.13375 3.14375 5.2675 2.1875 4.375 C0 2 0 2 0 0 Z " fill="#CAE8EC" transform="translate(264,203)"/>
<path d="M0 0 C5.58823264 1.35472306 8.69001754 5.58113173 12 10 C12.70280975 11.31464089 13.38245147 12.6432185 14 14 C13.56429687 13.62488281 13.12859375 13.24976563 12.6796875 12.86328125 C11.4377862 11.79610632 10.19281114 10.73250137 8.9453125 9.671875 C7.71684365 8.61608249 6.50126296 7.54493118 5.3046875 6.453125 C3.60109991 4.88913274 3.60109991 4.88913274 1 3 C0.01 3.33 -0.98 3.66 -2 4 C-1.34 2.68 -0.68 1.36 0 0 Z " fill="#60BEAC" transform="translate(156,210)"/>
<path d="M0 0 C2.70331527 4.05497291 2.41695903 7.2466671 2 12 C1.125 15 1.125 15 0 17 C-0.66 17.33 -1.32 17.66 -2 18 C-1.34 12.06 -0.68 6.12 0 0 Z " fill="#161D27" transform="translate(443,252)"/>
<path d="M0 0 C0.99 0.33 1.98 0.66 3 1 C-1.12324647 5.25209792 -5.51282966 9.13635705 -10 13 C-10 10 -10 10 -7.8125 7.51953125 C-6.884375 6.62621094 -5.95625 5.73289063 -5 4.8125 C-4.071875 3.91144531 -3.14375 3.01039063 -2.1875 2.08203125 C-1.1046875 1.05142578 -1.1046875 1.05142578 0 0 Z " fill="#61BFAC" transform="translate(149,217)"/>
<path d="M0 0 C5.32697239 1.45281065 8.36402802 5.08111378 12 9 C11.34 9.66 10.68 10.32 10 11 C9.45730469 10.44570312 8.91460937 9.89140625 8.35546875 9.3203125 C7.64003906 8.59585938 6.92460937 7.87140625 6.1875 7.125 C5.12595703 6.04605469 5.12595703 6.04605469 4.04296875 4.9453125 C1.95600806 2.84641063 1.95600806 2.84641063 -1 1 C-0.67 0.67 -0.34 0.34 0 0 Z " fill="#1D2834" transform="translate(155,242)"/>
<path d="M0 0 C0.66 0 1.32 0 2 0 C0.52296046 3.85205198 -1.48702291 5.25475324 -5 7.3125 C-5.886875 7.84488281 -6.77375 8.37726563 -7.6875 8.92578125 C-8.450625 9.28027344 -9.21375 9.63476562 -10 10 C-10.66 9.67 -11.32 9.34 -12 9 C-11.21753906 8.43410156 -10.43507813 7.86820312 -9.62890625 7.28515625 C-8.61699219 6.55167969 -7.60507812 5.81820313 -6.5625 5.0625 C-5.55316406 4.33160156 -4.54382813 3.60070312 -3.50390625 2.84765625 C-1.17707392 1.22678115 -1.17707392 1.22678115 0 0 Z " fill="#212836" transform="translate(405,303)"/>
<path d="M0 0 C0.66 0.33 1.32 0.66 2 1 C1.27683594 1.63615234 1.27683594 1.63615234 0.5390625 2.28515625 C-3.82104256 6.33382524 -5.92107928 9.12587608 -7 15 C-7.66 15 -8.32 15 -9 15 C-9.39804797 11.1853736 -9.41653192 9.54049976 -7.03125 6.4453125 C-6.1959375 5.67960937 -5.360625 4.91390625 -4.5 4.125 C-3.6646875 3.34382813 -2.829375 2.56265625 -1.96875 1.7578125 C-1.3190625 1.17773438 -0.669375 0.59765625 0 0 Z " fill="#161D26" transform="translate(92,256)"/>
<path d="M0 0 C0.33 0 0.66 0 1 0 C1.24878997 2.43694274 1.47463404 4.87238389 1.6875 7.3125 C1.79674805 8.34793945 1.79674805 8.34793945 1.90820312 9.40429688 C2.07421875 11.42578125 2.07421875 11.42578125 2 15 C1.01 15.99 0.02 16.98 -1 18 C-0.505 9.09 -0.505 9.09 0 0 Z " fill="#414851" transform="translate(363,384)"/>
<path d="M0 0 C2.69282475 4.03923713 3.13300939 6.95536152 3.0625 11.75 C3.05347656 12.54921875 3.04445313 13.3484375 3.03515625 14.171875 C3.01775391 15.07679688 3.01775391 15.07679688 3 16 C2.34 16 1.68 16 1 16 C0.83125293 14.08351538 0.66508357 12.16680367 0.5 10.25 C0.4071875 9.18265625 0.314375 8.1153125 0.21875 7.015625 C0.04947717 4.6820782 0 2.33967818 0 0 Z " fill="#464B53" transform="translate(486,375)"/>
<path d="M0 0 C1.98 0.66 3.96 1.32 6 2 C5.01 3.485 5.01 3.485 4 5 C5.32 5.99 6.64 6.98 8 8 C4 8 4 8 1.75 6.8125 C0 5 0 5 -0.25 2.3125 C-0.1675 1.549375 -0.085 0.78625 0 0 Z " fill="#DFD0AF" transform="translate(353,320)"/>
<path d="M0 0 C4.49797113 1.68673918 8.72886302 3.81673892 13 6 C10.60042386 6.84119973 9.35077442 7.11193544 6.89453125 6.328125 C6.20746094 5.97234375 5.52039063 5.6165625 4.8125 5.25 C4.11769531 4.90453125 3.42289062 4.5590625 2.70703125 4.203125 C1 3 1 3 0 0 Z " fill="#DDD0AD" transform="translate(356,305)"/>
<path d="M0 0 C0.66 0.33 1.32 0.66 2 1 C1.04882866 2.1725131 0.08882991 3.33787015 -0.875 4.5 C-1.67550781 5.47453125 -1.67550781 5.47453125 -2.4921875 6.46875 C-2.98976562 6.9740625 -3.48734375 7.479375 -4 8 C-4.66 8 -5.32 8 -6 8 C-6.66 9.32 -7.32 10.64 -8 12 C-8.66 12 -9.32 12 -10 12 C-8.52278578 8.54798361 -6.56205999 6.35038064 -3.875 3.75 C-3.15054688 3.04359375 -2.42609375 2.3371875 -1.6796875 1.609375 C-1.12539062 1.07828125 -0.57109375 0.5471875 0 0 Z " fill="#1E2435" transform="translate(207,238)"/>
<path d="M0 0 C2.84383123 1.2748209 5.13754018 2.45137078 7 5 C6.875 7.0625 6.875 7.0625 6 9 C5.01 9.66 4.02 10.32 3 11 C3 10.01 3 9.02 3 8 C3.66 8 4.32 8 5 8 C4.175 7.05125 3.35 6.1025 2.5 5.125 C0 2.25 0 2.25 0 0 Z " fill="#BFDDE2" transform="translate(228,166)"/>
<path d="M0 0 C0.99 0 1.98 0 3 0 C2.67 4.95 2.34 9.9 2 15 C1.67 15 1.34 15 1 15 C0.95101563 14.14535156 0.90203125 13.29070312 0.8515625 12.41015625 C0.77679688 11.30542969 0.70203125 10.20070313 0.625 9.0625 C0.55539062 7.96035156 0.48578125 6.85820312 0.4140625 5.72265625 C0.27742188 4.82417969 0.14078125 3.92570312 0 3 C-0.66 2.67 -1.32 2.34 -2 2 C-1.34 1.34 -0.68 0.68 0 0 Z " fill="#BCBFC1" transform="translate(363,369)"/>
<path d="M0 0 C0.66 0.33 1.32 0.66 2 1 C0 4 0 4 -2.875 4.625 C-3.90625 4.74875 -4.9375 4.8725 -6 5 C-6.70125 5.20625 -7.4025 5.4125 -8.125 5.625 C-10.3736009 6.07472018 -11.8147176 5.60752664 -14 5 C-13.07316406 4.72285156 -12.14632813 4.44570313 -11.19140625 4.16015625 C-9.99386719 3.79792969 -8.79632813 3.43570312 -7.5625 3.0625 C-6.36753906 2.70285156 -5.17257812 2.34320313 -3.94140625 1.97265625 C-1.14132455 1.29110858 -1.14132455 1.29110858 0 0 Z " fill="#3B424B" transform="translate(320,334)"/>
<path d="M0 0 C0.66 0 1.32 0 2 0 C1.67 0.99 1.34 1.98 1 3 C-4.04473164 5.308606 -9.46271835 6.43715381 -15 6 C-12.00725283 4.38852075 -9.0804082 3.35946524 -5.8125 2.4375 C-2.62876155 1.71633212 -2.62876155 1.71633212 0 0 Z " fill="#172031" transform="translate(398,219)"/>
<path d="M0 0 C0.66 0.33 1.32 0.66 2 1 C-0.97 4.3 -3.94 7.6 -7 11 C-7.33 10.01 -7.66 9.02 -8 8 C-5.36 5.36 -2.72 2.72 0 0 Z " fill="#1D2732" transform="translate(203,206)"/>
<path d="M0 0 C0.33 0 0.66 0 1 0 C1 5.66666667 1 11.33333333 1 17 C0.34 16.67 -0.32 16.34 -1 16 C-1.02712153 14.083412 -1.04645097 12.1667127 -1.0625 10.25 C-1.07410156 9.18265625 -1.08570313 8.1153125 -1.09765625 7.015625 C-1.01510087 4.46631499 -0.74617558 2.42066409 0 0 Z " fill="#1B212D" transform="translate(361,412)"/>
<path d="M0 0 C0.66 0.66 1.32 1.32 2 2 C1.96712417 4.72869407 1.43602229 7.2966618 1 10 C0.67 10 0.34 10 0 10 C0 7.36 0 4.72 0 2 C-4.95 2 -9.9 2 -15 2 C-15 1.67 -15 1.34 -15 1 C-12.54220024 0.77873822 -10.08472352 0.57249605 -7.625 0.375 C-6.57699219 0.27832031 -6.57699219 0.27832031 -5.5078125 0.1796875 C-3.67630889 0.03880261 -1.83687252 0.01238341 0 0 Z " fill="#3A3C44" transform="translate(267,419)"/>
<path d="M0 0 C2.55803184 3.83704776 4.34505724 7.75712791 3.625 12.4375 C3.41875 12.953125 3.2125 13.46875 3 14 C0.56574762 9.03006806 -0.34615998 5.65394631 0 0 Z " fill="#C7CFD2" transform="translate(228,371)"/>
<path d="M0 0 C0 2 0 2 -1.64453125 3.65625 C-2.35996094 4.2646875 -3.07539063 4.873125 -3.8125 5.5 C-4.87404297 6.41265625 -4.87404297 6.41265625 -5.95703125 7.34375 C-8 9 -8 9 -11 11 C-9.60249952 7.84164893 -7.94801766 5.67727175 -5.5 3.25 C-4.8915625 2.63640625 -4.283125 2.0228125 -3.65625 1.390625 C-2 0 -2 0 0 0 Z " fill="#D1ECEE" transform="translate(157,245)"/>
<path d="M0 0 C1.31896465 0.92838287 2.62998689 1.86805732 3.9375 2.8125 C4.66839844 3.33457031 5.39929688 3.85664063 6.15234375 4.39453125 C8 6 8 6 9 9 C9.66 9.33 10.32 9.66 11 10 C8 10 8 10 5.95703125 8.3203125 C5.24933594 7.59585938 4.54164063 6.87140625 3.8125 6.125 C2.73935547 5.04605469 2.73935547 5.04605469 1.64453125 3.9453125 C0 2 0 2 0 0 Z " fill="#60BEAB" transform="translate(170,238)"/>
<path d="M0 0 C0.99 0.33 1.98 0.66 3 1 C-0.32307692 5.8 -0.32307692 5.8 -3.75 6.8125 C-4.4925 6.874375 -5.235 6.93625 -6 7 C-4.02 4.69 -2.04 2.38 0 0 Z " fill="#2E3A44" transform="translate(130,218)"/>
<path d="M0 0 C0.66 0.66 1.32 1.32 2 2 C0.515 7.445 0.515 7.445 -1 13 C-3 9 -3 9 -2.5390625 6.640625 C-2.23742187 5.85171875 -1.93578125 5.0628125 -1.625 4.25 C-1.32851563 3.45078125 -1.03203125 2.6515625 -0.7265625 1.828125 C-0.48679687 1.22484375 -0.24703125 0.6215625 0 0 Z " fill="#343B44" transform="translate(282,376)"/>
<path d="M0 0 C0.33 0.66 0.66 1.32 1 2 C-0.43160268 3.00842453 -1.87051453 4.00647891 -3.3125 5 C-4.51326172 5.8353125 -4.51326172 5.8353125 -5.73828125 6.6875 C-8 8 -8 8 -11 8 C-9.73427767 6.84852339 -8.46222094 5.70400686 -7.1875 4.5625 C-6.47980469 3.92441406 -5.77210938 3.28632813 -5.04296875 2.62890625 C-3 1 -3 1 0 0 Z " fill="#1E2632" transform="translate(367,352)"/>
<path d="M0 0 C0.33 0 0.66 0 1 0 C1 1.65 1 3.3 1 5 C-1.31 6.32 -3.62 7.64 -6 9 C-4.47300326 5.56425733 -2.44973747 2.84485642 0 0 Z " fill="#EEDCBA" transform="translate(401,321)"/>
<path d="M0 0 C3.53233755 1.17744585 3.86308075 1.95605641 5.6875 5.0625 C6.12449219 5.79597656 6.56148438 6.52945312 7.01171875 7.28515625 C7.33785156 7.85105469 7.66398437 8.41695313 8 9 C7.01 9 6.02 9 5 9 C3.61328125 7.5390625 3.61328125 7.5390625 2.3125 5.625 C1.65701172 4.68527344 1.65701172 4.68527344 0.98828125 3.7265625 C0 2 0 2 0 0 Z " fill="#DACDA9" transform="translate(344,291)"/>
<path d="M0 0 C1.051875 0.680625 1.051875 0.680625 2.125 1.375 C5.02984591 3.01686943 7.8139348 4.03677099 11 5 C10.67 5.66 10.34 6.32 10 7 C2.18363463 5.08277831 2.18363463 5.08277831 0 2 C0 1.34 0 0.68 0 0 Z " fill="#212736" transform="translate(325,266)"/>
<path d="M0 0 C0.66 0.33 1.32 0.66 2 1 C0.38405168 3.04119788 -1.2856382 5.04072937 -3 7 C-3.66 7 -4.32 7 -5 7 C-5.66 8.32 -6.32 9.64 -7 11 C-7.33 10.01 -7.66 9.02 -8 8 C-5.36 5.36 -2.72 2.72 0 0 Z " fill="#1E2636" transform="translate(256,187)"/>
<path d="M0 0 C1 3 1 3 0.00390625 5.26171875 C-0.47175781 6.06222656 -0.94742187 6.86273438 -1.4375 7.6875 C-1.91058594 8.49574219 -2.38367188 9.30398438 -2.87109375 10.13671875 C-3.24363281 10.75160156 -3.61617188 11.36648438 -4 12 C-5 9 -5 9 -4.2578125 6.9921875 C-3.88398438 6.29351562 -3.51015625 5.59484375 -3.125 4.875 C-2.75632812 4.17117188 -2.38765625 3.46734375 -2.0078125 2.7421875 C-1 1 -1 1 0 0 Z " fill="#18202C" transform="translate(407,347)"/>
<path d="M0 0 C1.48117801 0.28127421 2.95993249 0.57533732 4.4375 0.875 C5.67306641 1.11863281 5.67306641 1.11863281 6.93359375 1.3671875 C7.61550781 1.57601563 8.29742187 1.78484375 9 2 C9.33 2.66 9.66 3.32 10 4 C7.03 3.67 4.06 3.34 1 3 C0.67 2.01 0.34 1.02 0 0 Z " fill="#363C45" transform="translate(435,345)"/>
<path d="M0 0 C0.99 0.33 1.98 0.66 3 1 C1.71034824 2.37562854 0.37310707 3.70766393 -1 5 C-1.66 5 -2.32 5 -3 5 C-3.66 6.32 -4.32 7.64 -5 9 C-5.33 8.01 -5.66 7.02 -6 6 C-4.02 4.02 -2.04 2.04 0 0 Z " fill="#60BBAA" transform="translate(111,254)"/>
<path d="M0 0 C0.33 0.99 0.66 1.98 1 3 C-2.35327639 5.23551759 -2.90743657 5.17283528 -6.6875 4.625 C-7.49574219 4.51414063 -8.30398438 4.40328125 -9.13671875 4.2890625 C-10.05904297 4.14597656 -10.05904297 4.14597656 -11 4 C-11 3.67 -11 3.34 -11 3 C-10.37351562 2.95101562 -9.74703125 2.90203125 -9.1015625 2.8515625 C-8.28429687 2.77679688 -7.46703125 2.70203125 -6.625 2.625 C-5.81289063 2.55539063 -5.00078125 2.48578125 -4.1640625 2.4140625 C-1.79665809 2.17107412 -1.79665809 2.17107412 0 0 Z " fill="#1C2434" transform="translate(340,244)"/>
<path d="M0 0 C4.5 3 4.5 3 9 6 C8.67 6.99 8.34 7.98 8 9 C6.84775972 8.07038578 5.70340824 7.1309875 4.5625 6.1875 C3.60537109 5.40439453 3.60537109 5.40439453 2.62890625 4.60546875 C1 3 1 3 0 0 Z " fill="#C9E5E9" transform="translate(180,213)"/>
<path d="M0 0 C3.36591866 1.44253657 5.51047079 3.33264727 8 6 C7.67 6.99 7.34 7.98 7 9 C5.82737096 7.88121617 4.66204862 6.75476949 3.5 5.625 C2.8503125 4.99851563 2.200625 4.37203125 1.53125 3.7265625 C0 2 0 2 0 0 Z " fill="#BDDCE0" transform="translate(166,200)"/>
<path d="M0 0 C0.66 0.33 1.32 0.66 2 1 C1.67 2.32 1.34 3.64 1 5 C0.34 5 -0.32 5 -1 5 C-1 5.99 -1 6.98 -1 8 C-1.66 8 -2.32 8 -3 8 C-3.33 8.66 -3.66 9.32 -4 10 C-3.5205537 5.78087253 -2.83374881 3.20336822 0 0 Z " fill="#1C2630" transform="translate(326,190)"/>
<path d="M0 0 C-1.2065625 0.6496875 -1.2065625 0.6496875 -2.4375 1.3125 C-5.27846354 2.80474002 -5.27846354 2.80474002 -6 6 C-6.66 6 -7.32 6 -8 6 C-8 4.35 -8 2.7 -8 1 C-4.93251126 -0.86240388 -3.40254489 -1.2151946 0 0 Z " fill="#1A242F" transform="translate(228,148)"/>
<path d="M0 0 C-3.96 1.65 -7.92 3.3 -12 5 C-11 2 -11 2 -8 0 C-2.47887324 -1.23943662 -2.47887324 -1.23943662 0 0 Z " fill="#1C232D" transform="translate(312,340)"/>
<path d="M0 0 C4.20626034 1.50223584 5.73900021 4.28550034 8 8 C7.01 8 6.02 8 5 8 C2.58085776 5.36740403 1.13523734 3.40571201 0 0 Z " fill="#222C35" transform="translate(315,269)"/>
<path d="M0 0 C0.99 0 1.98 0 3 0 C3 0.66 3 1.32 3 2 C3.928125 2.37125 3.928125 2.37125 4.875 2.75 C7.35068687 4.20628639 7.95125002 5.37812506 9 8 C4.7257442 6.4169423 2.73468206 3.49431596 0 0 Z " fill="#5FBCAB" transform="translate(97,268)"/>
<path d="M0 0 C0.66 0.33 1.32 0.66 2 1 C-0.97 4.3 -3.94 7.6 -7 11 C-7.33 10.01 -7.66 9.02 -8 8 C-5.36 5.36 -2.72 2.72 0 0 Z " fill="#C6E2E7" transform="translate(241,220)"/>
<path d="M0 0 C0 3.12900213 -0.42451317 4.37418862 -2 7 C-2.99 7.495 -2.99 7.495 -4 8 C-4.66 7.34 -5.32 6.68 -6 6 C-4.02 4.02 -2.04 2.04 0 0 Z " fill="#ACCAD1" transform="translate(254,206)"/>
<path d="M0 0 C0.66 0 1.32 0 2 0 C1.34 3.63 0.68 7.26 0 11 C-2 7 -2 7 -1.125 3.25 C-0.75375 2.1775 -0.3825 1.105 0 0 Z " fill="#161F2C" transform="translate(149,367)"/>
<path d="M0 0 C0.99 0.33 1.98 0.66 3 1 C3.6875 3.0625 3.6875 3.0625 4 5 C4.66 5 5.32 5 6 5 C6.33 6.65 6.66 8.3 7 10 C6.34 10 5.68 10 5 10 C1.125 3.375 1.125 3.375 0 0 Z " fill="#1C232E" transform="translate(466,364)"/>
<path d="M0 0 C3.65316671 1.24976756 4.78065836 1.67098753 7 5 C6.4225 4.835 5.845 4.67 5.25 4.5 C2.73335631 3.85537969 2.73335631 3.85537969 -1 4 C-1.66 3.67 -2.32 3.34 -3 3 C-2.01 2.01 -1.02 1.02 0 0 Z " fill="#1C2937" transform="translate(377,354)"/>
<path d="M0 0 C3.81936528 1.55603771 6.26044438 3.95604931 9 7 C9 7.66 9 8.32 9 9 C5.18063472 7.44396229 2.73955562 5.04395069 0 2 C0 1.34 0 0.68 0 0 Z " fill="#1E2535" transform="translate(178,249)"/>
<path d="M0 0 C4.24822374 0.47202486 6.19989709 2.96655518 9 6 C4.58763974 6 3.21615077 3.9302707 0 1 C0 0.67 0 0.34 0 0 Z " fill="#212937" transform="translate(353,326)"/>
<path d="M0 0 C0.66 0 1.32 0 2 0 C2 0.66 2 1.32 2 2 C2.66 2 3.32 2 4 2 C3.67 3.65 3.34 5.3 3 7 C1.35 7.33 -0.3 7.66 -2 8 C-1.67 7.34 -1.34 6.68 -1 6 C-0.34 6 0.32 6 1 6 C0.67 4.02 0.34 2.04 0 0 Z " fill="#474B52" transform="translate(401,320)"/>
<path d="M0 0 C-0.99 0.495 -0.99 0.495 -2 1 C-2 1.66 -2 2.32 -2 3 C-4.97 3 -7.94 3 -11 3 C-7.11595442 0.41063628 -4.5725325 -0.12358196 0 0 Z " fill="#F5E4BC" transform="translate(397,324)"/>
<path d="M0 0 C3.91593446 0.78318689 7.36406635 2.39179858 11 4 C10.01 4.66 9.02 5.32 8 6 C6.66402348 5.19185349 5.331275 4.37836819 4 3.5625 C3.2575 3.11003906 2.515 2.65757812 1.75 2.19140625 C1.1725 1.79824219 0.595 1.40507812 0 1 C0 0.67 0 0.34 0 0 Z " fill="#1A2233" transform="translate(354,307)"/>
<path d="M0 0 C0.91058531 3.07322544 1.08886184 5.80097361 1 9 C0.01 9.33 -0.98 9.66 -2 10 C-1.85950482 8.52031676 -1.71245174 7.04125484 -1.5625 5.5625 C-1.48128906 4.73878906 -1.40007812 3.91507812 -1.31640625 3.06640625 C-1 1 -1 1 0 0 Z " fill="#202737" transform="translate(419,274)"/>
<path d="M0 0 C0.66 0.33 1.32 0.66 2 1 C1.07038578 2.15224028 0.1309875 3.29659176 -0.8125 4.4375 C-1.59560547 5.39462891 -1.59560547 5.39462891 -2.39453125 6.37109375 C-4 8 -4 8 -7 9 C-5.44499019 5.18315774 -2.96404505 2.80804268 0 0 Z " fill="#1E2536" transform="translate(225,219)"/>
<path d="M0 0 C0.33 0 0.66 0 1 0 C0.25 7.75 0.25 7.75 -2 10 C-2.25 3.375 -2.25 3.375 0 0 Z " fill="#18202B" transform="translate(271,378)"/>
<path d="M0 0 C2.78637633 4.1795645 1.79562512 6.14668677 1 11 C0.34 10.67 -0.32 10.34 -1 10 C-0.67 6.7 -0.34 3.4 0 0 Z " fill="#B8BFC3" transform="translate(160,368)"/>
<path d="M0 0 C2.31 0.66 4.62 1.32 7 2 C7.33 3.65 7.66 5.3 8 7 C7.67 6.34 7.34 5.68 7 5 C6.195625 4.690625 5.39125 4.38125 4.5625 4.0625 C2 3 2 3 0 0 Z " fill="#B7D1D6" transform="translate(321,279)"/>
<path d="M0 0 C2.76223278 2.76223278 2.57856291 5.20706617 3 9 C2.01 8.67 1.02 8.34 0 8 C-0.38063221 5.6739143 -0.71269945 3.33944736 -1 1 C-0.67 0.67 -0.34 0.34 0 0 Z " fill="#373D45" transform="translate(442,246)"/>
<path d="M0 0 C0.99 0.33 1.98 0.66 3 1 C-0.465 3.97 -0.465 3.97 -4 7 C-4 4 -4 4 -2 1.8125 C-1.34 1.214375 -0.68 0.61625 0 0 Z " fill="#B2CFD4" transform="translate(140,206)"/>
<path d="M0 0 C-1.0625 1.5625 -1.0625 1.5625 -3 3 C-6.6875 2.6875 -6.6875 2.6875 -10 2 C-3.24137931 -1.62068966 -3.24137931 -1.62068966 0 0 Z " fill="#BBBDBF" transform="translate(329,346)"/>
<path d="M0 0 C3.83736322 0.95934081 4.59660228 1.23609263 7 4 C6.67 4.99 6.34 5.98 6 7 C4.02 4.69 2.04 2.38 0 0 Z " fill="#1F2939" transform="translate(96,270)"/>
<path d="M0 0 C2.5 1.375 2.5 1.375 5 3 C5 3.66 5 4.32 5 5 C5.99 5.33 6.98 5.66 8 6 C7.34 6.66 6.68 7.32 6 8 C4.99403703 7.0479279 3.99538437 6.08812654 3 5.125 C2.443125 4.59132813 1.88625 4.05765625 1.3125 3.5078125 C0 2 0 2 0 0 Z " fill="#1D2731" transform="translate(171,256)"/>
<path d="M0 0 C0.66 0 1.32 0 2 0 C3.06775224 1.96466413 4.06553465 3.96855359 5 6 C4.67 6.66 4.34 7.32 4 8 C1.10067643 5.60490662 0.49831724 3.68754757 0 0 Z " fill="#CABD9D" transform="translate(413,237)"/>
<path d="M0 0 C-0.66 0.66 -1.32 1.32 -2 2 C-2.37125 1.525625 -2.7425 1.05125 -3.125 0.5625 C-5.62646962 -1.52205802 -7.81593418 -1.64621491 -11 -2 C-11 -2.33 -11 -2.66 -11 -3 C-6.06995512 -4.74001584 -3.98367078 -3.05723572 0 0 Z " fill="#57AA9C" transform="translate(165,232)"/>
<path d="M0 0 C-1.39332574 3.36720387 -2.9789286 4.9859524 -6 7 C-6 4 -6 4 -4.125 1.8125 C-2 0 -2 0 0 0 Z " fill="#B8D2D8" transform="translate(203,205)"/>
<path d="M0 0 C0.99 0.33 1.98 0.66 3 1 C-0.465 3.97 -0.465 3.97 -4 7 C-3.04065919 3.16263678 -2.76390737 2.40339772 0 0 Z " fill="#1B2530" transform="translate(230,178)"/>
<path d="M0 0 C3.40320742 1.01176437 4.75725331 1.64843582 6.8125 4.625 C7.204375 5.40875 7.59625 6.1925 8 7 C7.34 7.66 6.68 8.32 6 9 C5.566875 8.2575 5.13375 7.515 4.6875 6.75 C3.23420091 4.38166074 1.70392394 2.19075935 0 0 Z " fill="#1F2833" transform="translate(356,109)"/>
<path d="M0 0 C0.33 0.99 0.66 1.98 1 3 C-2.73487777 2.5020163 -4.81237635 2.12508244 -8 0 C-4.71023192 -1.09658936 -3.28696233 -0.79953138 0 0 Z " fill="#47494F" transform="translate(364,321)"/>
<path d="M0 0 C4.42857143 5.14285714 4.42857143 5.14285714 5 9 C4.01 9.495 4.01 9.495 3 10 C0 3.375 0 3.375 0 0 Z " fill="#1B242E" transform="translate(332,291)"/>
<path d="M0 0 C0.66 0.99 1.32 1.98 2 3 C1.01 3.66 0.02 4.32 -1 5 C-1.66 4.34 -2.32 3.68 -3 3 C-2.01 2.01 -1.02 1.02 0 0 Z " fill="#273C48" transform="translate(228,215)"/>
</svg>
