<?xml version="1.0" encoding="UTF-8"?>
<svg version="1.1" xmlns="http://www.w3.org/2000/svg" width="500" height="500">
<path d="M0 0 C165 0 330 0 500 0 C500 165 500 330 500 500 C335 500 170 500 0 500 C0 335 0 170 0 0 Z " fill="#FDFCFA" transform="translate(0,0)"/>
<path d="M0 0 C1.57504499 -0.00457076 3.150088 -0.00987897 4.72512817 -0.0158844 C8.01491432 -0.02478126 11.30445727 -0.02243231 14.59423828 -0.01245117 C18.78240207 -0.00097425 22.96972104 -0.02117031 27.15777397 -0.05036831 C30.40773738 -0.06883388 33.65750226 -0.06841727 36.90750504 -0.06273079 C38.45026966 -0.06257879 39.9930488 -0.06852116 41.53576279 -0.08102226 C53.41540193 -0.16373421 64.02972803 0.85347323 73.03515625 9.43359375 C78.85878363 16.19481193 81.32151382 23.37640858 81.2265625 32.21875 C80.09887667 39.95279535 75.98715404 48.21204366 69.8203125 53.12109375 C63.26591342 57.23340978 58.60086297 58.43359375 50.7578125 58.43359375 C50.7578125 63.38359375 50.7578125 68.33359375 50.7578125 73.43359375 C52.44970703 73.36978516 52.44970703 73.36978516 54.17578125 73.3046875 C59.01930741 73.3121309 63.40042824 74.28138665 68.0703125 75.49609375 C68.93043945 75.71579834 69.79056641 75.93550293 70.67675781 76.16186523 C82.83515748 79.38098217 94.5839886 83.65708072 105.7578125 89.43359375 C105.7578125 90.09359375 105.7578125 90.75359375 105.7578125 91.43359375 C106.60214844 91.67207031 107.44648438 91.91054687 108.31640625 92.15625 C112.1894063 93.59378804 115.42641322 95.56445228 118.8203125 97.87109375 C119.47298096 98.31138916 120.12564941 98.75168457 120.7980957 99.20532227 C126.94789888 103.43214736 132.63855915 108.09694622 138.20800781 113.05566406 C139.73203964 114.41067913 141.27124535 115.74667318 142.8125 117.08203125 C163.94648141 135.62259225 179.80642506 159.80709619 188.64941406 186.42211914 C189.37668649 188.60272591 190.12134318 190.77685858 190.8671875 192.95117188 C193.4465497 200.59786033 195.43209223 207.93497499 196.41162109 215.9855957 C196.62571819 218.43404308 196.62571819 218.43404308 197.7578125 220.43359375 C202.63948473 249.11148091 197.97327943 278.96508599 189.7578125 306.43359375 C189.22994141 308.23183594 189.22994141 308.23183594 188.69140625 310.06640625 C186.4456297 317.26416706 183.35528623 323.81694582 179.7578125 330.43359375 C179.3880127 331.12340332 179.01821289 331.81321289 178.63720703 332.52392578 C161.66805102 363.94098955 137.39122992 388.3436648 106.7578125 406.43359375 C105.95988281 406.94277344 105.16195313 407.45195312 104.33984375 407.9765625 C101.1990615 409.74889499 97.94758606 411.01324039 94.5703125 412.24609375 C93.88702881 412.49963623 93.20374512 412.75317871 92.49975586 413.0144043 C86.19419868 415.32874228 79.82593803 417.45188028 73.43481445 419.5168457 C69.81321389 420.46215671 69.81321389 420.46215671 66.7578125 422.43359375 C64.95503373 422.79148039 63.14107346 423.09336531 61.32421875 423.37109375 C59.6371582 423.63019531 59.6371582 423.63019531 57.91601562 423.89453125 C56.72943359 424.07242187 55.54285156 424.2503125 54.3203125 424.43359375 C53.16853516 424.61148437 52.01675781 424.789375 50.83007812 424.97265625 C20.06682036 429.64909022 -15.20279999 429.66145664 -43.765625 415.6328125 C-46.06333961 414.52019675 -48.34690058 413.62271937 -50.7421875 412.74609375 C-60.75116186 408.83305369 -71.36060148 403.50477933 -80.2421875 397.43359375 C-80.2421875 396.77359375 -80.2421875 396.11359375 -80.2421875 395.43359375 C-80.82742187 395.15644531 -81.41265625 394.87929688 -82.015625 394.59375 C-89.65060189 390.6155252 -96.00527156 384.2610633 -102.2421875 378.43359375 C-103.03496094 377.7065625 -103.82773438 376.97953125 -104.64453125 376.23046875 C-112.50253522 368.74180371 -118.82567405 360.15420879 -125.2421875 351.43359375 C-125.94730469 350.49 -126.65242188 349.54640625 -127.37890625 348.57421875 C-134.57853922 338.67270104 -139.80587161 327.80339706 -144.2421875 316.43359375 C-144.71398437 315.29019531 -145.18578125 314.14679688 -145.671875 312.96875 C-162.75113725 270.63801006 -161.47378316 221.44278601 -144.4921875 179.24609375 C-143.39040272 176.72052371 -142.23268251 174.41813536 -140.7890625 172.0703125 C-138.96667549 168.963971 -137.65983402 165.74378079 -136.2421875 162.43359375 C-131.51854932 153.0081524 -126.15815298 144.41067307 -119.2421875 136.43359375 C-118.35198008 135.3637949 -117.46409931 134.29205719 -116.578125 133.21875 C-111.41427723 126.9889909 -106.16058874 120.96816562 -100.2421875 115.43359375 C-99.66726562 114.88832031 -99.09234375 114.34304687 -98.5 113.78125 C-78.95839278 95.95896874 -55.67093922 83.56141356 -30.4296875 76.12109375 C-29.56988281 75.86602051 -28.71007812 75.61094727 -27.82421875 75.34814453 C-21.95271426 73.69396105 -16.32571889 72.89653034 -10.2421875 72.43359375 C-10.2421875 67.81359375 -10.2421875 63.19359375 -10.2421875 58.43359375 C-11.3765625 58.51609375 -12.5109375 58.59859375 -13.6796875 58.68359375 C-21.03452806 58.65760491 -27.33156557 55.09173193 -32.671875 50.2109375 C-39.14320449 42.88642278 -40.65788242 35.34500727 -40.59375 25.83203125 C-39.86901629 18.82627203 -36.11554759 12.45463142 -31.2421875 7.43359375 C-21.77450242 -0.05248283 -11.57094287 -0.02956147 0 0 Z " fill="#B4DFE8" transform="translate(229.2421875,42.56640625)"/>
<path d="M0 0 C1.57504499 -0.00457076 3.150088 -0.00987897 4.72512817 -0.0158844 C8.01491432 -0.02478126 11.30445727 -0.02243231 14.59423828 -0.01245117 C18.78240207 -0.00097425 22.96972104 -0.02117031 27.15777397 -0.05036831 C30.40773738 -0.06883388 33.65750226 -0.06841727 36.90750504 -0.06273079 C38.45026966 -0.06257879 39.9930488 -0.06852116 41.53576279 -0.08102226 C53.41540193 -0.16373421 64.02972803 0.85347323 73.03515625 9.43359375 C78.85878363 16.19481193 81.32151382 23.37640858 81.2265625 32.21875 C80.09887667 39.95279535 75.98715404 48.21204366 69.8203125 53.12109375 C63.26591342 57.23340978 58.60086297 58.43359375 50.7578125 58.43359375 C50.7578125 63.38359375 50.7578125 68.33359375 50.7578125 73.43359375 C52.44970703 73.36978516 52.44970703 73.36978516 54.17578125 73.3046875 C59.01930741 73.3121309 63.40042824 74.28138665 68.0703125 75.49609375 C68.93043945 75.71579834 69.79056641 75.93550293 70.67675781 76.16186523 C82.83515748 79.38098217 94.5839886 83.65708072 105.7578125 89.43359375 C105.7578125 90.09359375 105.7578125 90.75359375 105.7578125 91.43359375 C106.60214844 91.67207031 107.44648438 91.91054687 108.31640625 92.15625 C112.1894063 93.59378804 115.42641322 95.56445228 118.8203125 97.87109375 C119.47298096 98.31138916 120.12564941 98.75168457 120.7980957 99.20532227 C126.94789888 103.43214736 132.63855915 108.09694622 138.20800781 113.05566406 C139.73203964 114.41067913 141.27124535 115.74667318 142.8125 117.08203125 C163.94648141 135.62259225 179.80642506 159.80709619 188.64941406 186.42211914 C189.37668649 188.60272591 190.12134318 190.77685858 190.8671875 192.95117188 C193.4465497 200.59786033 195.43209223 207.93497499 196.41162109 215.9855957 C196.62571819 218.43404308 196.62571819 218.43404308 197.7578125 220.43359375 C202.63948473 249.11148091 197.97327943 278.96508599 189.7578125 306.43359375 C189.22994141 308.23183594 189.22994141 308.23183594 188.69140625 310.06640625 C186.4456297 317.26416706 183.35528623 323.81694582 179.7578125 330.43359375 C179.3880127 331.12340332 179.01821289 331.81321289 178.63720703 332.52392578 C161.66805102 363.94098955 137.39122992 388.3436648 106.7578125 406.43359375 C105.95988281 406.94277344 105.16195313 407.45195312 104.33984375 407.9765625 C101.1990615 409.74889499 97.94758606 411.01324039 94.5703125 412.24609375 C93.88702881 412.49963623 93.20374512 412.75317871 92.49975586 413.0144043 C86.19419868 415.32874228 79.82593803 417.45188028 73.43481445 419.5168457 C69.81321389 420.46215671 69.81321389 420.46215671 66.7578125 422.43359375 C64.95503373 422.79148039 63.14107346 423.09336531 61.32421875 423.37109375 C59.6371582 423.63019531 59.6371582 423.63019531 57.91601562 423.89453125 C56.72943359 424.07242187 55.54285156 424.2503125 54.3203125 424.43359375 C53.16853516 424.61148437 52.01675781 424.789375 50.83007812 424.97265625 C20.06682036 429.64909022 -15.20279999 429.66145664 -43.765625 415.6328125 C-46.06333961 414.52019675 -48.34690058 413.62271937 -50.7421875 412.74609375 C-60.75116186 408.83305369 -71.36060148 403.50477933 -80.2421875 397.43359375 C-80.2421875 396.77359375 -80.2421875 396.11359375 -80.2421875 395.43359375 C-80.82742187 395.15644531 -81.41265625 394.87929688 -82.015625 394.59375 C-89.65060189 390.6155252 -96.00527156 384.2610633 -102.2421875 378.43359375 C-103.03496094 377.7065625 -103.82773438 376.97953125 -104.64453125 376.23046875 C-112.50253522 368.74180371 -118.82567405 360.15420879 -125.2421875 351.43359375 C-125.94730469 350.49 -126.65242188 349.54640625 -127.37890625 348.57421875 C-134.57853922 338.67270104 -139.80587161 327.80339706 -144.2421875 316.43359375 C-144.71398437 315.29019531 -145.18578125 314.14679688 -145.671875 312.96875 C-162.75113725 270.63801006 -161.47378316 221.44278601 -144.4921875 179.24609375 C-143.39040272 176.72052371 -142.23268251 174.41813536 -140.7890625 172.0703125 C-138.96667549 168.963971 -137.65983402 165.74378079 -136.2421875 162.43359375 C-131.51854932 153.0081524 -126.15815298 144.41067307 -119.2421875 136.43359375 C-118.35198008 135.3637949 -117.46409931 134.29205719 -116.578125 133.21875 C-111.41427723 126.9889909 -106.16058874 120.96816562 -100.2421875 115.43359375 C-99.66726562 114.88832031 -99.09234375 114.34304687 -98.5 113.78125 C-78.95839278 95.95896874 -55.67093922 83.56141356 -30.4296875 76.12109375 C-29.56988281 75.86602051 -28.71007812 75.61094727 -27.82421875 75.34814453 C-21.95271426 73.69396105 -16.32571889 72.89653034 -10.2421875 72.43359375 C-10.2421875 67.81359375 -10.2421875 63.19359375 -10.2421875 58.43359375 C-11.3765625 58.51609375 -12.5109375 58.59859375 -13.6796875 58.68359375 C-21.03452806 58.65760491 -27.33156557 55.09173193 -32.671875 50.2109375 C-39.14320449 42.88642278 -40.65788242 35.34500727 -40.59375 25.83203125 C-39.86901629 18.82627203 -36.11554759 12.45463142 -31.2421875 7.43359375 C-21.77450242 -0.05248283 -11.57094287 -0.02956147 0 0 Z M-20.2421875 90.43359375 C-21.00225098 90.62083008 -21.76231445 90.80806641 -22.54541016 91.00097656 C-60.33628679 100.50821861 -94.51409442 126.55454956 -115.2421875 159.43359375 C-115.65210937 160.078125 -116.06203125 160.72265625 -116.484375 161.38671875 C-124.6617571 174.37141033 -130.77670011 187.67051488 -134.9921875 202.43359375 C-135.27219604 203.40897095 -135.27219604 203.40897095 -135.55786133 204.40405273 C-139.3032896 218.38507888 -140.79184268 232.06822467 -140.6796875 246.49609375 C-140.67764313 247.29464783 -140.67559875 248.0932019 -140.67349243 248.91595459 C-140.59087875 268.83900155 -138.40964268 289.05681959 -130.2421875 307.43359375 C-129.79531612 308.84733229 -129.3584934 310.26427131 -128.9296875 311.68359375 C-127.07340019 317.33813047 -124.22311234 322.30302595 -121.2421875 327.43359375 C-120.90912598 328.01979492 -120.57606445 328.60599609 -120.23291016 329.20996094 C-112.51769728 342.77260476 -102.88981401 354.09850787 -92.2421875 365.43359375 C-91.61054688 366.13097656 -90.97890625 366.82835937 -90.328125 367.546875 C-70.1398728 389.02468516 -40.67268585 402.2428454 -12.2421875 408.43359375 C-11.44941406 408.61092041 -10.65664062 408.78824707 -9.83984375 408.97094727 C-0.85366422 410.74341438 8.0689254 410.77167542 17.19140625 410.74926758 C19.85719383 410.74612396 22.52185004 410.76958393 25.1875 410.79492188 C40.29237316 410.85230802 54.94918604 409.34049636 69.2578125 404.24609375 C70.12744629 403.94493652 70.99708008 403.6437793 71.89306641 403.33349609 C113.93907232 388.44650328 147.57478876 359.62862177 167.0703125 319.12109375 C183.82119579 282.89854633 188.31350739 237.55432242 175.7578125 199.43359375 C175.27316088 197.85815799 174.78877249 196.28264121 174.3046875 194.70703125 C169.65218539 180.16876432 162.65959905 166.81501602 153.7578125 154.43359375 C153.04753906 153.43714844 152.33726562 152.44070312 151.60546875 151.4140625 C144.30735842 141.42244924 136.31451266 132.30902259 126.7578125 124.43359375 C125.93796875 123.72589844 125.118125 123.01820313 124.2734375 122.2890625 C85.31942687 89.24570377 29.037805 77.85976007 -20.2421875 90.43359375 Z " fill="#273845" transform="translate(229.2421875,42.56640625)"/>
<path d="M0 0 C0.74916687 0.00248749 1.49833374 0.00497498 2.27020264 0.00753784 C41.43310796 0.20814079 78.90999493 12.06131169 108.5625 38.3125 C109.06265625 38.75239258 109.5628125 39.19228516 110.078125 39.64550781 C130.25135325 57.45936716 146.19004954 79.64513363 154.5625 105.3125 C155.03563039 106.56429958 155.51380975 107.81419847 155.99609375 109.0625 C162.21596499 125.62261231 164.13629432 141.4446341 164.0625 159 C164.05976578 160.28003906 164.05976578 160.28003906 164.05697632 161.5859375 C163.82741175 205.49345995 147.93292552 246.40866425 117.06787109 277.77197266 C115.84100234 279.02749355 114.64431632 280.31245143 113.45703125 281.60546875 C95.31451508 301.02957547 69.30947225 313.03725739 44.125 320.1875 C43.45275391 320.37868408 42.78050781 320.56986816 42.08789062 320.7668457 C28.99636514 324.25001366 16.0201216 324.72039255 2.5625 324.6875 C1.65042786 324.6862915 0.73835571 324.68508301 -0.20135498 324.68383789 C-13.6393819 324.63546253 -26.48850678 324.23699269 -39.4375 320.3125 C-40.36079102 320.03873535 -41.28408203 319.7649707 -42.23535156 319.48291016 C-55.40504677 315.47464759 -67.58907854 310.30830317 -79.4375 303.3125 C-80.42621094 302.73886719 -81.41492188 302.16523438 -82.43359375 301.57421875 C-107.89303314 286.09162789 -127.59789648 263.52583003 -141.4375 237.3125 C-141.94410156 236.36375 -142.45070313 235.415 -142.97265625 234.4375 C-145.77217253 229.04482 -148.14164923 223.83765086 -149.69921875 217.95703125 C-150.34826202 215.63215137 -151.09635159 213.38864857 -151.88671875 211.109375 C-153.47626732 206.38367688 -154.57263645 201.63200704 -155.5625 196.75 C-155.73136719 195.95142578 -155.90023437 195.15285156 -156.07421875 194.33007812 C-157.66016011 186.66885746 -158.58870459 179.14320359 -158.7109375 171.31640625 C-158.72346558 170.57396667 -158.73599365 169.8315271 -158.74890137 169.06658936 C-158.99083625 151.26212881 -158.27771261 134.58391213 -153.4375 117.3125 C-153.20756348 116.47750977 -152.97762695 115.64251953 -152.74072266 114.78222656 C-146.79510368 93.83580669 -135.76352995 73.70784539 -121.4375 57.3125 C-120.61765625 56.37148437 -119.7978125 55.43046875 -118.953125 54.4609375 C-116.18766438 51.34007019 -113.33694418 48.30894447 -110.4375 45.3125 C-109.96779785 44.82523438 -109.4980957 44.33796875 -109.01416016 43.8359375 C-95.32815467 29.87462539 -78.25966553 19.19114011 -60.4375 11.3125 C-59.54933594 10.91933594 -58.66117187 10.52617187 -57.74609375 10.12109375 C-48.39983577 6.39136639 -38.26620265 4.3672472 -28.4375 2.3125 C-27.52846924 2.12051025 -26.61943848 1.92852051 -25.68286133 1.73071289 C-17.12804695 0.10450719 -8.67170387 -0.04601234 0 0 Z M-38.4375 26.3125 C-39.93974563 26.77590348 -41.44234897 27.23814896 -42.9453125 27.69921875 C-78.49300855 39.03594527 -106.32724421 65.39756314 -124.05957031 97.64355469 C-130.85629005 110.80828541 -134.7202708 124.82061091 -137.4375 139.3125 C-137.6125708 140.07361084 -137.7876416 140.83472168 -137.96801758 141.61889648 C-144.05423463 176.53789429 -133.7378757 214.99499765 -113.9609375 243.89453125 C-92.86786286 273.25149152 -60.90946139 295.54387271 -24.95556641 301.90600586 C-16.17793387 303.32298842 -7.43562253 303.46955379 1.43945312 303.44287109 C3.5586665 303.4375097 5.67766802 303.44284741 7.796875 303.44921875 C25.97426615 303.4609225 41.79578545 300.31777115 58.5625 293.3125 C58.5625 292.6525 58.5625 291.9925 58.5625 291.3125 C59.22121094 291.23 59.87992188 291.1475 60.55859375 291.0625 C87.76799841 284.26899455 111.29058656 257.04047381 125.41650391 234.25195312 C143.10348332 204.31898242 149.12957446 164.38207216 140.765625 130.625 C133.89284878 105.34219698 122.76190742 83.26369017 104.5625 64.3125 C103.78261719 63.48105469 103.00273437 62.64960938 102.19921875 61.79296875 C85.8267273 44.79377907 64.94054407 33.36166538 42.5625 26.3125 C41.71365234 26.04147461 40.86480469 25.77044922 39.99023438 25.49121094 C15.55539441 18.06785081 -14.23688234 18.19022801 -38.4375 26.3125 Z " fill="#B4DEE7" transform="translate(247.4375,128.6875)"/>
<path d="M0 0 C0.75060196 -0.01261871 1.50120392 -0.02523743 2.27455139 -0.03823853 C45.0245472 -0.61679293 80.90107032 11.50404445 112.12890625 41.2734375 C112.92296875 42.00304687 113.71703125 42.73265625 114.53515625 43.484375 C137.97189614 65.68325891 152.44433042 100.62850353 153.4140625 132.609375 C153.82232672 152.80370692 151.96276426 171.20523622 145.12890625 190.2734375 C144.90332031 190.90878418 144.67773438 191.54413086 144.4453125 192.19873047 C131.9721569 226.73774397 106.12445468 253.01449654 73.5546875 269.27734375 C71.12890625 270.2734375 71.12890625 270.2734375 68.12890625 270.2734375 C68.12890625 270.9334375 68.12890625 271.5934375 68.12890625 272.2734375 C50.72135938 279.54645366 34.37179276 282.46095133 15.52661133 282.45874023 C13.46218881 282.4609156 11.39831222 282.47910809 9.33398438 282.49804688 C-29.05821446 282.66219676 -62.70530351 266.83721577 -89.87109375 240.2734375 C-116.19509154 213.29338992 -129.35668167 176.94119559 -129.24609375 139.5859375 C-129.24554993 138.88789001 -129.2450061 138.18984253 -129.2444458 137.47064209 C-129.20350204 125.99099309 -128.18984883 115.29806911 -124.87109375 104.2734375 C-124.65678711 103.52497559 -124.44248047 102.77651367 -124.22167969 102.00537109 C-113.91416882 66.45421098 -90.04865957 35.54598492 -57.68359375 17.3359375 C-55.10230049 15.93378826 -52.49827482 14.58737236 -49.87109375 13.2734375 C-48.76894531 12.72171875 -47.66679687 12.17 -46.53125 11.6015625 C-32.26119478 5.01799362 -15.74847161 0.24036259 0 0 Z M-10.87109375 18.2734375 C-12.40995333 18.57956942 -13.95199161 18.86995209 -15.49609375 19.1484375 C-25.01959312 21.0038529 -34.14721444 24.03548063 -42.87109375 28.2734375 C-41.53694373 31.09832791 -39.99040043 33.54398311 -38.18359375 36.0859375 C-36.17025001 39.26333839 -35.87109375 40.19282316 -35.87109375 44.1484375 C-36.87109375 47.2734375 -36.87109375 47.2734375 -39.87109375 49.2734375 C-43.18359375 49.9609375 -43.18359375 49.9609375 -46.87109375 49.2734375 C-50.3650556 45.46978358 -52.61855522 40.88426755 -54.87109375 36.2734375 C-59.10542254 36.79254992 -61.77349916 39.38924073 -64.87109375 42.0859375 C-65.43852295 42.57513672 -66.00595215 43.06433594 -66.59057617 43.56835938 C-76.22454967 51.97755071 -84.73478992 60.61096001 -91.87109375 71.2734375 C-89.05363787 74.30105326 -86.26453257 76.40335227 -82.68359375 78.4609375 C-77.94053819 81.20399306 -77.94053819 81.20399306 -76.87109375 82.2734375 C-76.4752059 85.83642815 -76.44441867 87.64983545 -78.49609375 90.6484375 C-81.59999963 92.77216258 -83.14741709 92.64043448 -86.87109375 92.2734375 C-90.08203125 90.7421875 -90.08203125 90.7421875 -93.24609375 88.7734375 C-94.30570313 88.12375 -95.3653125 87.4740625 -96.45703125 86.8046875 C-97.65199219 86.04671875 -97.65199219 86.04671875 -98.87109375 85.2734375 C-109.10962394 94.4388073 -110.70473707 115.15192486 -111.87109375 128.2734375 C-111.89839496 130.27325115 -111.90761734 132.27377102 -111.87109375 134.2734375 C-110.60652344 134.31082031 -109.34195313 134.34820312 -108.0390625 134.38671875 C-106.37887645 134.45237583 -104.71872153 134.51882326 -103.05859375 134.5859375 C-102.22521484 134.60849609 -101.39183594 134.63105469 -100.53320312 134.65429688 C-99.32954102 134.7074707 -99.32954102 134.7074707 -98.1015625 134.76171875 C-96.99397583 134.80099487 -96.99397583 134.80099487 -95.86401367 134.84106445 C-93.3261739 135.39166034 -92.41730448 136.20833602 -90.87109375 138.2734375 C-90.43359375 141.7734375 -90.43359375 141.7734375 -90.87109375 145.2734375 C-93.28347912 148.00407951 -95.48968211 148.49136753 -98.98046875 148.78515625 C-100.52674554 148.85784448 -102.0737609 148.91603149 -103.62109375 148.9609375 C-104.41386719 148.99509766 -105.20664063 149.02925781 -106.0234375 149.06445312 C-107.97216879 149.14662854 -109.92160737 149.21171795 -111.87109375 149.2734375 C-112.88943569 164.46370471 -107.71854158 182.57854184 -100.87109375 196.2734375 C-97.21063549 195.93026954 -94.95804137 194.75087808 -91.99609375 192.7109375 C-88.17012106 190.21573792 -85.49996253 189.54734044 -80.87109375 190.2734375 C-78.99609375 191.2734375 -78.99609375 191.2734375 -77.87109375 193.2734375 C-77.33685829 195.95519372 -77.09538109 198.53713198 -76.87109375 201.2734375 C-77.4228125 201.53898438 -77.97453125 201.80453125 -78.54296875 202.078125 C-81.141489 203.41226459 -83.6223233 204.88602381 -86.12109375 206.3984375 C-87.013125 206.93726563 -87.90515625 207.47609375 -88.82421875 208.03125 C-89.4996875 208.44117188 -90.17515625 208.85109375 -90.87109375 209.2734375 C-89.54922606 218.82769638 -80.30725455 226.02445157 -73.80859375 232.5859375 C-73.13626709 233.26760986 -72.46394043 233.94928223 -71.77124023 234.65161133 C-64.85806954 242.10052928 -64.85806954 242.10052928 -55.87109375 245.2734375 C-53.97755881 242.8515897 -53.97755881 242.8515897 -52.24609375 239.8359375 C-48.89051123 234.29285498 -48.89051123 234.29285498 -47.87109375 233.2734375 C-43.97455329 232.90583934 -41.70785066 232.69414425 -38.43359375 234.9609375 C-36.53644343 237.76871998 -36.51159342 238.93944125 -36.87109375 242.2734375 C-38.18359375 244.625 -38.18359375 244.625 -39.87109375 246.8984375 C-42.4268114 250.20658065 -42.4268114 250.20658065 -42.87109375 254.2734375 C-27.86977195 261.06594352 -11.4981942 266.54439766 5.12890625 266.2734375 C5.14348877 265.65299561 5.15807129 265.03255371 5.1730957 264.39331055 C5.24757213 261.58189117 5.34423189 258.77166001 5.44140625 255.9609375 C5.46396484 254.98447266 5.48652344 254.00800781 5.50976562 253.00195312 C5.54521484 252.06416016 5.58066406 251.12636719 5.6171875 250.16015625 C5.64337158 249.29608154 5.66955566 248.43200684 5.6965332 247.54174805 C6.21640193 244.81441864 6.86338105 243.85691141 9.12890625 242.2734375 C12.70334549 242.52875459 15.73255702 243.14132109 19.12890625 244.2734375 C19.45890625 251.2034375 19.78890625 258.1334375 20.12890625 265.2734375 C36.79884986 265.94924602 53.34411894 260.88076237 68.12890625 253.2734375 C66.98173992 249.93622636 65.46933787 247.23675867 63.50390625 244.3359375 C61.27786218 240.84539502 60.34467316 238.48869037 61.12890625 234.2734375 C62.19140625 232.3984375 62.19140625 232.3984375 64.12890625 231.2734375 C67.85877147 231.00701856 70.57536696 231.0889244 74.12890625 232.2734375 C74.81237307 233.93328548 75.4747894 235.60180555 76.12890625 237.2734375 C77.70574523 239.68360594 79.40659413 241.96191333 81.12890625 244.2734375 C92.55117999 242.47963931 106.21808496 225.40422337 112.94140625 216.4609375 C113.66328125 215.4090625 114.38515625 214.3571875 115.12890625 213.2734375 C113.64312344 209.35404491 111.54033351 208.07171103 108.00390625 205.9609375 C103.22616083 202.75971038 103.22616083 202.75971038 102.37890625 198.5234375 C103.12890625 195.2734375 103.12890625 195.2734375 105.12890625 192.2734375 C110.67646577 191.39750705 113.45571318 192.15059284 118.12890625 195.2734375 C119.4752245 196.25588595 120.81331922 197.25020314 122.12890625 198.2734375 C125.65549935 195.05487345 126.89177487 191.53714252 128.56640625 187.1484375 C128.8713501 186.35236084 129.17629395 185.55628418 129.49047852 184.73608398 C133.74628544 173.28596369 137.0876253 161.60362973 136.12890625 149.2734375 C134.86433594 149.24765625 133.59976563 149.221875 132.296875 149.1953125 C130.63668407 149.13903484 128.97652915 149.08168743 127.31640625 149.0234375 C126.48302734 149.00925781 125.64964844 148.99507812 124.79101562 148.98046875 C118.63720606 148.7333278 118.63720606 148.7333278 116.078125 146.41796875 C114.7875794 143.50229166 114.72649394 141.42566724 115.12890625 138.2734375 C116.68144926 136.23679731 117.59886736 135.38843185 120.12182617 134.84106445 C120.86021729 134.81488037 121.5986084 134.78869629 122.359375 134.76171875 C123.16181641 134.72626953 123.96425781 134.69082031 124.79101562 134.65429688 C125.62439453 134.63173828 126.45777344 134.60917969 127.31640625 134.5859375 C128.16138672 134.55177734 129.00636719 134.51761719 129.87695312 134.48242188 C131.96047274 134.40002279 134.04466841 134.33505105 136.12890625 134.2734375 C137.00628628 116.82332351 131.58821357 102.16567567 125.12890625 86.2734375 C120.77319772 86.2734375 118.26331893 88.60666949 114.69921875 90.9609375 C111.85483052 92.41339107 110.27459934 92.60565591 107.12890625 92.2734375 C106.13890625 91.9434375 105.14890625 91.6134375 104.12890625 91.2734375 C103.56131126 87.79078673 103.37273582 84.73669809 104.12890625 81.2734375 C106.74728738 78.30486136 109.76287242 76.31980004 113.12890625 74.2734375 C114.11890625 73.6134375 115.10890625 72.9534375 116.12890625 72.2734375 C114.46275145 68.34131217 111.81862642 65.29389157 109.06640625 62.0859375 C108.57543457 61.51149902 108.08446289 60.93706055 107.57861328 60.34521484 C100.98790482 52.70903952 93.88131555 44.47802506 85.12890625 39.2734375 C83.80890625 39.2734375 82.48890625 39.2734375 81.12890625 39.2734375 C78.9101433 41.66921148 78.9101433 41.66921148 76.94140625 44.7109375 C76.24660156 45.72027344 75.55179688 46.72960937 74.8359375 47.76953125 C74.27261719 48.59582031 73.70929688 49.42210937 73.12890625 50.2734375 C72.12890625 51.2734375 72.12890625 51.2734375 69.25390625 51.5234375 C66.12890625 51.2734375 66.12890625 51.2734375 64.25390625 50.2734375 C62.38980791 46.95948489 62.32447392 43.89026502 63.12890625 40.2734375 C64.52384261 37.734249 66.07507773 35.46995965 67.81640625 33.15625 C69.31952694 31.38250987 69.31952694 31.38250987 69.12890625 29.2734375 C52.99543363 22.44197867 37.96134862 16.70028371 20.12890625 17.2734375 C20.103125 18.58699219 20.07734375 19.90054688 20.05078125 21.25390625 C19.99448796 22.989616 19.9371409 24.7252918 19.87890625 26.4609375 C19.86472656 27.32525391 19.85054687 28.18957031 19.8359375 29.08007812 C19.67625151 33.24788242 19.46373283 35.71797783 17.2734375 39.3515625 C15.12890625 41.2734375 15.12890625 41.2734375 12.06640625 41.8359375 C9.12890625 41.2734375 9.12890625 41.2734375 7.47729492 39.54980469 C5.92262548 36.92519163 5.70958896 35.3198304 5.6171875 32.2890625 C5.58173828 31.35449219 5.54628906 30.41992188 5.50976562 29.45703125 C5.48720703 28.48894531 5.46464844 27.52085937 5.44140625 26.5234375 C5.40724609 25.53988281 5.37308594 24.55632812 5.33789062 23.54296875 C5.25555352 21.11990551 5.18635787 18.69719752 5.12890625 16.2734375 C3.70060241 16.24966074 2.27218291 16.23277248 0.84375 16.21875 C-0.34939819 16.20352295 -0.34939819 16.20352295 -1.56665039 16.18798828 C-4.86549314 16.31031003 -7.73199286 17.28214248 -10.87109375 18.2734375 Z " fill="#273946" transform="translate(237.87109375,149.7265625)"/>
<path d="M0 0 C3.92589493 1.21345843 5.1174543 1.69323773 7.4375 5.0625 C8.00258764 8.76633979 7.90155525 12.43309304 7.828125 16.171875 C7.82246521 17.25382141 7.81680542 18.33576782 7.81097412 19.45050049 C7.78858999 22.90495107 7.73838791 26.35836311 7.6875 29.8125 C7.66743772 32.15493293 7.64918648 34.49738213 7.6328125 36.83984375 C7.58871855 42.5810833 7.52178555 48.32171745 7.4375 54.0625 C8.89089086 54.42764222 10.34710118 54.78157714 11.80444336 55.13061523 C12.61505722 55.32888412 13.42567108 55.52715302 14.260849 55.73143005 C16.50494163 56.28965229 16.50494163 56.28965229 18.56640625 54.97265625 C19.03949219 54.36292969 19.51257813 53.75320313 20 53.125 C22.16836552 50.45127015 24.39599698 48.18444162 27.0078125 45.953125 C32.19270892 41.48754125 36.94956658 36.62128853 41.75 31.75 C43.5145879 29.95993068 45.28141304 28.17206319 47.05078125 26.38671875 C47.82204346 25.60385498 48.59330566 24.82099121 49.38793945 24.0144043 C52.25787882 21.28121011 53.88218203 20.12308014 57.875 19.6875 C61.4375 20.0625 61.4375 20.0625 63.875 21.6875 C65.4375 24.0625 65.4375 24.0625 66.125 26.8125 C64.50694416 34.46149126 55.91010536 40.74619709 50.5 46.125 C49.83548828 46.79337891 49.17097656 47.46175781 48.48632812 48.15039062 C43.23536174 53.39117085 37.84281536 58.46188358 31.94140625 62.96875 C28.35623504 65.91190866 26.62327347 67.8762037 25.890625 72.5546875 C25.79633655 75.15809634 25.72629245 77.7624887 25.6796875 80.3671875 C25.19146104 87.81657829 21.86788592 93.04424649 16.5 98.0625 C10.22401087 103.42350919 3.155681 103.62870125 -4.79296875 103.49609375 C-11.55065705 102.71878453 -16.11176399 99.97023802 -20.46875 94.80078125 C-25.99074929 86.9215134 -26.47586246 79.60556292 -25.5625 70.0625 C-23.46778464 63.55291369 -19.14897944 58.87430364 -13.5625 55.0625 C-12.23421674 54.3858274 -10.90142143 53.71787136 -9.5625 53.0625 C-9.56107498 52.4722554 -9.55964996 51.8820108 -9.55818176 51.27388 C-9.53848083 45.12523041 -9.48419898 38.97757305 -9.40991211 32.8293457 C-9.38672858 30.53547283 -9.37233559 28.24149345 -9.36694336 25.94750977 C-9.3576568 22.64792484 -9.31667012 19.35001586 -9.26953125 16.05078125 C-9.2734639 15.02664627 -9.27739655 14.00251129 -9.28144836 12.94734192 C-9.18429898 8.19638595 -9.10280355 5.80326532 -6.2409668 1.87963867 C-3.5625 0.0625 -3.5625 0.0625 0 0 Z " fill="#273946" transform="translate(250.5625,213.9375)"/>
<path d="M0 0 C1.63710464 0.00731657 3.27422591 0.01151388 4.91134644 0.01274109 C8.33305825 0.0234801 11.75308345 0.06046829 15.17431641 0.1184082 C19.55367501 0.19208023 23.93158863 0.21765589 28.31151009 0.22582722 C31.68828584 0.2344224 35.06476425 0.25955631 38.44140244 0.29057884 C40.05607548 0.30512336 41.67077894 0.31662878 43.28549576 0.32500648 C45.54258343 0.34097326 47.79844408 0.37702652 50.05517578 0.41918945 C51.33756134 0.43665726 52.6199469 0.45412506 53.94119263 0.47212219 C58.64562322 1.05200734 61.18678515 2.85945713 64.6171875 6.01171875 C66.97940125 10.03623106 66.96408038 13.32725822 66.3046875 17.88671875 C64.60630068 22.71371286 62.87941151 24.6902731 58.3046875 26.88671875 C54.97242737 27.2743988 54.97242737 27.2743988 51.13110352 27.29077148 C50.42800049 27.29763474 49.72489746 27.30449799 49.00048828 27.31156921 C46.68631548 27.32980558 44.37282269 27.32600443 42.05859375 27.3203125 C40.44343344 27.32487594 38.82827507 27.330182 37.21311951 27.3361969 C33.83137107 27.34512184 30.44985887 27.34271213 27.06811523 27.33276367 C22.74259192 27.32127638 18.41788527 27.34148428 14.09246922 27.37068081 C10.7577754 27.38906121 7.42327662 27.3887467 4.08854485 27.38304329 C2.49419955 27.38289029 0.89984085 27.38891703 -0.6944561 27.40133476 C-2.92759727 27.41627816 -5.15923851 27.40554526 -7.39233398 27.38842773 C-8.66076645 27.38826157 -9.92919891 27.3880954 -11.23606873 27.38792419 C-15.33965151 26.79336129 -17.48655761 25.4680942 -20.6953125 22.88671875 C-23.24634123 19.14520994 -24.46701779 15.56213822 -24.20285034 10.96968079 C-21.2523244 -1.13943308 -10.04513961 -0.21238293 0 0 Z " fill="#778B9E" transform="translate(227.6953125,58.11328125)"/>
<path d="M0 0 C3.5420773 3.09931764 4.84372778 4.88656044 5.5 9.5625 C4.96980455 13.20759371 4.29088372 15.13639535 2 18 C-2.15037421 20.51860316 -6.25997105 20.88004214 -11 20 C-14.55510649 16.62264883 -15.89833477 14.0335965 -16.375 9.1875 C-16.34252457 5.61520314 -16.05167881 5.06564606 -13.6875 2.0625 C-9.27842472 -1.32120893 -5.24846602 -1.64397476 0 0 Z " fill="#B5DDE5" transform="translate(256,282)"/>
<path d="M0 0 C9.57 0 19.14 0 29 0 C29 3.96 29 7.92 29 12 C19.43 12 9.86 12 0 12 C0 8.04 0 4.08 0 0 Z " fill="#768A9D" transform="translate(235,101)"/>
<path d="M0 0 C0.33 0 0.66 0 1 0 C2.64395451 5.0318558 3.29711313 9.53162688 3.265625 14.83984375 C3.26753845 15.56563126 3.2694519 16.29141876 3.27142334 17.03919983 C3.2727759 18.56446685 3.26914485 20.08974576 3.26074219 21.61499023 C3.25004468 23.9278394 3.26066082 26.23990923 3.2734375 28.55273438 C3.27211544 30.04427252 3.26955207 31.53581019 3.265625 33.02734375 C3.26967346 33.70780258 3.27372192 34.38826141 3.27789307 35.08934021 C3.23043763 40.03869156 2.32821065 44.27047535 1 49 C0.67 49 0.34 49 0 49 C0 32.83 0 16.66 0 0 Z " fill="#343E49" transform="translate(425,266)"/>
<path d="M0 0 C0.89267578 0.00966797 1.78535156 0.01933594 2.70507812 0.02929688 C4.09823242 0.06700195 4.09823242 0.06700195 5.51953125 0.10546875 C6.45990234 0.11900391 7.40027344 0.13253906 8.36914062 0.14648438 C10.69068163 0.18183779 13.01106778 0.23118201 15.33203125 0.29296875 C15.33203125 0.62296875 15.33203125 0.95296875 15.33203125 1.29296875 C8.73203125 1.62296875 2.13203125 1.95296875 -4.66796875 2.29296875 C-4.66796875 4.93296875 -4.66796875 7.57296875 -4.66796875 10.29296875 C-2.43149244 11.4112069 -1.01905346 11.48692936 1.46484375 11.609375 C2.27050781 11.65126953 3.07617188 11.69316406 3.90625 11.73632812 C4.74800781 11.77564453 5.58976562 11.81496094 6.45703125 11.85546875 C7.73126953 11.92024414 7.73126953 11.92024414 9.03125 11.98632812 C11.13131348 12.09251111 13.23165073 12.19325372 15.33203125 12.29296875 C15.33203125 12.62296875 15.33203125 12.95296875 15.33203125 13.29296875 C12.06149608 13.40905601 8.79148945 13.48017586 5.51953125 13.54296875 C4.59076172 13.57648438 3.66199219 13.61 2.70507812 13.64453125 C1.36606445 13.66386719 1.36606445 13.66386719 0 13.68359375 C-0.82218018 13.70454102 -1.64436035 13.72548828 -2.49145508 13.74707031 C-4.66796875 13.29296875 -4.66796875 13.29296875 -6.4362793 11.45996094 C-8.09608487 8.53975593 -8.09006794 6.59941244 -7.66796875 3.29296875 C-5.40105035 0.22802318 -3.72167839 -0.07111487 0 0 Z " fill="#1A2834" transform="translate(359.66796875,284.70703125)"/>
<path d="M0 0 C5.28 0 10.56 0 16 0 C16.18004053 7.11160094 15.80366114 13.1235419 14 20 C11.43175994 16.14763991 12.17264951 13.63558834 12.875 9.3125 C12.97941406 8.61060547 13.08382813 7.90871094 13.19140625 7.18554688 C13.45033804 5.45541171 13.72377657 3.72745882 14 2 C12.80375 2.020625 11.6075 2.04125 10.375 2.0625 C6.81995131 2.06882571 3.49444376 1.69888875 0 1 C0 0.67 0 0.34 0 0 Z " fill="#B4D1D7" transform="translate(358,299)"/>
<path d="M0 0 C0 0.33 0 0.66 0 1 C-12.6858203 1.20100772 -25.33105335 0.58707468 -38 0 C-38 -0.33 -38 -0.66 -38 -1 C-25.17519274 -2.68985696 -12.70960425 -2.40046488 0 0 Z " fill="#BDE4EA" transform="translate(272,149)"/>
<path d="M0 0 C1.25393555 0.02707031 1.25393555 0.02707031 2.53320312 0.0546875 C4.58513228 0.10158874 6.63646756 0.17332589 8.6875 0.25 C8.6875 0.91 8.6875 1.57 8.6875 2.25 C7.42292969 2.28738281 6.15835937 2.32476562 4.85546875 2.36328125 C3.1952827 2.42893833 1.53512778 2.49538576 -0.125 2.5625 C-0.95837891 2.58505859 -1.79175781 2.60761719 -2.65039062 2.63085938 C-3.45283203 2.66630859 -4.25527344 2.70175781 -5.08203125 2.73828125 C-5.82042236 2.76446533 -6.55881348 2.79064941 -7.31958008 2.81762695 C-9.83678288 3.36374556 -10.74108239 4.2392936 -12.3125 6.25 C-13.03447162 8.85611077 -13.03447162 8.85611077 -13.3125 11.25 C-13.6425 11.25 -13.9725 11.25 -14.3125 11.25 C-14.625 8 -14.625 8 -14.3125 4.25 C-10.10021686 -0.5737436 -5.94204571 -0.24387244 0 0 Z " fill="#BCDCE2" transform="translate(365.3125,281.75)"/>
<path d="M0 0 C1.09054688 0.09087891 1.09054688 0.09087891 2.203125 0.18359375 C3.71132812 0.30927734 3.71132812 0.30927734 5.25 0.4375 C8.65625 0.72135417 12.0625 1.00520833 15.46875 1.2890625 C17.09296875 1.42441406 17.09296875 1.42441406 18.75 1.5625 C21.375 1.78125 21.375 1.78125 24 2 C22 4 22 4 20.0390625 4.265625 C13.20717089 4.22140564 6.70343407 3.29000793 0 2 C0 1.34 0 0.68 0 0 Z " fill="#B0CFD6" transform="translate(217,449)"/>
<path d="M0 0 C2.52181288 0.28457432 5.04221196 0.57745058 7.5625 0.875 C8.26697266 0.95363281 8.97144531 1.03226562 9.69726562 1.11328125 C14.3131709 1.66633903 18.56176603 2.61195836 23 4 C23 4.66 23 5.32 23 6 C15.27991084 5.25768373 6.53668728 4.35779152 0 0 Z " fill="#4F5760" transform="translate(191,460)"/>
<path d="M0 0 C8.33484239 3.80863659 14.68743963 11.55592795 21 18 C20.34 18.66 19.68 19.32 19 20 C18.61070312 19.52691406 18.22140625 19.05382812 17.8203125 18.56640625 C9.91439658 9.08200688 9.91439658 9.08200688 0 2 C0 1.34 0 0.68 0 0 Z " fill="#23313D" transform="translate(336,180)"/>
<path d="M0 0 C0.99 0.33 1.98 0.66 3 1 C-0.3810038 5.13621084 -3.66590534 8.81316569 -8 12 C-8.66 11.34 -9.32 10.68 -10 10 C-6.7 6.7 -3.4 3.4 0 0 Z " fill="#333E4A" transform="translate(129,158)"/>
<path d="M0 0 C0.69649658 0.17805176 1.39299316 0.35610352 2.1105957 0.53955078 C2.86791992 0.72646484 3.62524414 0.91337891 4.40551758 1.10595703 C5.19120117 1.31349609 5.97688477 1.52103516 6.78637695 1.73486328 C7.58366211 1.93466797 8.38094727 2.13447266 9.20239258 2.34033203 C11.17080519 2.83538191 13.1352557 3.34613751 15.09887695 3.85986328 C14.76887695 4.51986328 14.43887695 5.17986328 14.09887695 5.85986328 C7.40894476 5.32035262 1.46426967 3.97280157 -4.90112305 1.85986328 C-1.90112305 -0.14013672 -1.90112305 -0.14013672 0 0 Z " fill="#2B3C48" transform="translate(209.901123046875,424.14013671875)"/>
<path d="M0 0 C1.66362417 0.34820041 3.32995171 0.68404492 5 1 C5 1.33 5 1.66 5 2 C-6.55 1.67 -18.1 1.34 -30 1 C-30 0.67 -30 0.34 -30 0 C-25.56285102 -0.19652332 -21.12527385 -0.38067922 -16.6875 -0.5625 C-14.79354492 -0.64661133 -14.79354492 -0.64661133 -12.86132812 -0.73242188 C-11.65283203 -0.78076172 -10.44433594 -0.82910156 -9.19921875 -0.87890625 C-8.08377686 -0.9260376 -6.96833496 -0.97316895 -5.8190918 -1.02172852 C-3 -1 -3 -1 0 0 Z " fill="#50636C" transform="translate(268,128)"/>
<path d="M0 0 C1.96282811 2.79597098 2.00108464 3.99187436 1.5390625 7.453125 C1.23742187 8.70609375 0.93578125 9.9590625 0.625 11.25 C0.32851563 12.51328125 0.03203125 13.7765625 -0.2734375 15.078125 C-0.51320313 16.04234375 -0.75296875 17.0065625 -1 18 C-1.66 18 -2.32 18 -3 18 C-2.41509121 11.85845775 -1.45933748 5.99320151 0 0 Z " fill="#334450" transform="translate(409,317)"/>
<path d="M0 0 C1.32 0.33 2.64 0.66 4 1 C0.66666667 4.33333333 -2.66666667 7.66666667 -6 11 C-5.55530671 5.96014269 -3.28656638 3.62365012 0 0 Z " fill="#22313D" transform="translate(233,272)"/>
<path d="M0 0 C2.74792483 3.40219265 6 7.48464588 6 12 C3 11 3 11 1.796875 9.00390625 C1.45140625 8.19824219 1.1059375 7.39257812 0.75 6.5625 C0.39421875 5.75941406 0.0384375 4.95632813 -0.328125 4.12890625 C-1 2 -1 2 0 0 Z " fill="#A7C6CD" transform="translate(121,350)"/>
<path d="M0 0 C-1.6188996 1.03048037 -3.24532489 2.04914678 -4.875 3.0625 C-5.77992188 3.63097656 -6.68484375 4.19945312 -7.6171875 4.78515625 C-8.40351563 5.18605469 -9.18984375 5.58695312 -10 6 C-10.66 5.67 -11.32 5.34 -12 5 C-8.42937391 1.05351854 -5.33493882 -1.67637143 0 0 Z " fill="#344B5A" transform="translate(341,446)"/>
<path d="M0 0 C0 0.66 0 1.32 0 2 C-1.8984375 3.5078125 -1.8984375 3.5078125 -4.375 5.125 C-5.59316406 5.93324219 -5.59316406 5.93324219 -6.8359375 6.7578125 C-9 8 -9 8 -11 8 C-9.83630874 4.50892621 -9.11026462 4.14777237 -6.0625 2.3125 C-5.35222656 1.87550781 -4.64195312 1.43851562 -3.91015625 0.98828125 C-2 0 -2 0 0 0 Z " fill="#2A3F4E" transform="translate(352,437)"/>
<path d="M0 0 C0 0.66 0 1.32 0 2 C0.99 2.33 1.98 2.66 3 3 C-7.55808656 2.03644647 -7.55808656 2.03644647 -12 1 C-12 0.67 -12 0.34 -12 0 C-7.74433453 -1.16063604 -4.3164922 -0.76173392 0 0 Z " fill="#A9C9CF" transform="translate(279,150)"/>
<path d="M0 0 C0.33 0 0.66 0 1 0 C1.05437607 1.58294782 1.09296271 3.16644256 1.125 4.75 C1.14820313 5.63171875 1.17140625 6.5134375 1.1953125 7.421875 C0.99139502 10.1135858 0.36551721 11.69904974 -1 14 C-2.59789351 9.04653013 -1.28306814 4.86717585 0 0 Z " fill="#B6D8DF" transform="translate(372,305)"/>
<path d="M0 0 C2.64 0.33 5.28 0.66 8 1 C8 1.33 8 1.66 8 2 C2.72 2.66 -2.56 3.32 -8 4 C-7.34 3.01 -6.68 2.02 -6 1 C-2.875 0.8125 -2.875 0.8125 0 1 C0 0.67 0 0.34 0 0 Z " fill="#40515B" transform="translate(223,128)"/>
<path d="M0 0 C4.06623972 1.35541324 5.53046818 3.57009469 8 7 C7.67 7.99 7.34 8.98 7 10 C5.82739389 8.71372289 4.6620717 7.42080217 3.5 6.125 C2.8503125 5.40570313 2.200625 4.68640625 1.53125 3.9453125 C0 2 0 2 0 0 Z " fill="#323C47" transform="translate(193,86)"/>
<path d="M0 0 C0.66 0 1.32 0 2 0 C2 2.64 2 5.28 2 8 C1.67 8 1.34 8 1 8 C0.67 9.65 0.34 11.3 0 13 C-0.33 13 -0.66 13 -1 13 C-1.07654536 8.48382401 -1.10228696 4.40914783 0 0 Z " fill="#3F515D" transform="translate(110,268)"/>
<path d="M0 0 C0.66 0.33 1.32 0.66 2 1 C0.73657512 2.48549956 -0.5360103 3.96321189 -1.8125 5.4375 C-2.52019531 6.26121094 -3.22789062 7.08492188 -3.95703125 7.93359375 C-6 10 -6 10 -9 11 C-7.59155282 7.78475695 -5.89655214 5.67816132 -3.375 3.25 C-2.74335938 2.63640625 -2.11171875 2.0228125 -1.4609375 1.390625 C-0.73777344 0.70226562 -0.73777344 0.70226562 0 0 Z " fill="#1E2B36" transform="translate(285,253)"/>
<path d="M0 0 C0.66 0 1.32 0 2 0 C3.7265625 1.96875 3.7265625 1.96875 5.625 4.5 C6.25664062 5.3353125 6.88828125 6.170625 7.5390625 7.03125 C8.02117187 7.6809375 8.50328125 8.330625 9 9 C8.34 9.66 7.68 10.32 7 11 C5.82750647 9.54634731 4.66216184 8.08692581 3.5 6.625 C2.52546875 5.40683594 2.52546875 5.40683594 1.53125 4.1640625 C0 2 0 2 0 0 Z " fill="#23323E" transform="translate(373,183)"/>
<path d="M0 0 C3 3 3 3 3.1875 5.6875 C3.0946875 6.8321875 3.0946875 6.8321875 3 8 C2.01 8.33 1.02 8.66 0 9 C0 6.03 0 3.06 0 0 Z " fill="#3A4B56" transform="translate(199,384)"/>
<path d="M0 0 C2.04795423 1.9626228 2.94976638 3.4277307 3.19921875 6.26953125 C3.18858877 8.51954383 3.12958525 10.75385562 3 13 C2.67 13 2.34 13 2 13 C1.67 11.35 1.34 9.7 1 8 C0.67 8 0.34 8 0 8 C0 5.36 0 2.72 0 0 Z " fill="#454E57" transform="translate(424,259)"/>
<path d="M0 0 C-1.32 0.33 -2.64 0.66 -4 1 C-4 1.66 -4 2.32 -4 3 C-5.65 3 -7.3 3 -9 3 C-9.33 3.66 -9.66 4.32 -10 5 C-10.66 4.34 -11.32 3.68 -12 3 C-10.75823305 2.29773859 -9.50614401 1.61370891 -8.25 0.9375 C-7.20585937 0.36322266 -7.20585937 0.36322266 -6.140625 -0.22265625 C-3.63859372 -1.1312406 -2.4667645 -0.88336837 0 0 Z " fill="#545C64" transform="translate(181,127)"/>
<path d="M0 0 C1.670625 0.061875 1.670625 0.061875 3.375 0.125 C3.375 0.455 3.375 0.785 3.375 1.125 C2.26125 1.24875 2.26125 1.24875 1.125 1.375 C-2.13721354 2.2646946 -3.43454878 3.61003749 -5.625 6.125 C-5.625 0.92300404 -5.21373417 0.17978394 0 0 Z " fill="#32444F" transform="translate(193.625,381.875)"/>
<path d="M0 0 C0.66 0.99 1.32 1.98 2 3 C1.125 6.6875 1.125 6.6875 0 10 C-0.99 10 -1.98 10 -3 10 C-2.01 6.7 -1.02 3.4 0 0 Z " fill="#A3C1C9" transform="translate(100,228)"/>
<path d="M0 0 C-1.49097658 3.7952131 -3.75700849 5.61042731 -7 8 C-7 5 -7 5 -4.625 2.3125 C-2 0 -2 0 0 0 Z " fill="#31424C" transform="translate(165,198)"/>
<path d="M0 0 C1.17539996 0.92652701 2.34010577 1.86663387 3.5 2.8125 C4.1496875 3.33457031 4.799375 3.85664063 5.46875 4.39453125 C7 6 7 6 7 9 C6.01 8.34 5.02 7.68 4 7 C4 6.34 4 5.68 4 5 C2.68 4.34 1.36 3.68 0 3 C0 2.01 0 1.02 0 0 Z " fill="#353F49" transform="translate(372,160)"/>
<path d="M0 0 C0.99 0.33 1.98 0.66 3 1 C2.0479279 2.00596297 1.08812654 3.00461563 0.125 4 C-0.40867187 4.556875 -0.94234375 5.11375 -1.4921875 5.6875 C-3 7 -3 7 -5 7 C-3.70700306 4.11562221 -2.34058637 2.12780579 0 0 Z " fill="#21313D" transform="translate(360,410)"/>
<path d="M0 0 C0.66 0 1.32 0 2 0 C3.25 7.625 3.25 7.625 1 11 C0.67 7.37 0.34 3.74 0 0 Z " fill="#ADCED5" transform="translate(406,253)"/>
<path d="M0 0 C4.41889613 1.35021826 6.34345343 3.26115668 9 7 C6 7 6 7 4.3125 5.625 C3 4 3 4 3 2 C2.01 1.67 1.02 1.34 0 1 C0 0.67 0 0.34 0 0 Z " fill="#B9D9DF" transform="translate(328,195)"/>
<path d="M0 0 C0.6875 1.6875 0.6875 1.6875 1 4 C-0.3125 6.75 -0.3125 6.75 -2 9 C-2.66 9 -3.32 9 -4 9 C-2.80100302 5.9168649 -1.52299523 2.93720508 0 0 Z " fill="#32424E" transform="translate(392,368)"/>
<path d="M0 0 C0.99 0 1.98 0 3 0 C3.33 2.64 3.66 5.28 4 8 C1.10067643 5.60490662 0.49831724 3.68754757 0 0 Z " fill="#A0BFC6" transform="translate(100,352)"/>
<path d="M0 0 C0.6875 1.6875 0.6875 1.6875 1 4 C-0.3125 6.75 -0.3125 6.75 -2 9 C-2.66 9 -3.32 9 -4 9 C-2.94124926 5.59687262 -1.99097846 2.98646769 0 0 Z " fill="#B1CFD6" transform="translate(112,205)"/>
<path d="M0 0 C2.31 0.33 4.62 0.66 7 1 C7.33 1.99 7.66 2.98 8 4 C5.125 3.6875 5.125 3.6875 2 3 C1.34 2.01 0.68 1.02 0 0 Z " fill="#35444F" transform="translate(298,134)"/>
<path d="M0 0 C0.66 0.99 1.32 1.98 2 3 C-4.625 2.25 -4.625 2.25 -8 0 C-4.67212881 -1.1092904 -3.3006216 -1.01557588 0 0 Z " fill="#3E4F5B" transform="translate(213,425)"/>
<path d="M0 0 C0.93065133 2.60582371 1.14917407 3.64198224 0.0625 6.25 C-0.4634375 7.11625 -0.4634375 7.11625 -1 8 C-2.32 7.67 -3.64 7.34 -5 7 C-4.34 7 -3.68 7 -3 7 C-2.690625 6.21625 -2.38125 5.4325 -2.0625 4.625 C-1 2 -1 2 0 0 Z " fill="#32424E" transform="translate(185,388)"/>
<path d="M0 0 C3.99500618 1.3697164 6.80009492 3.25722422 10 6 C5.96825194 5.72510809 4.43105369 5.46508424 1.625 2.4375 C0.820625 1.2309375 0.820625 1.2309375 0 0 Z " fill="#1E2D39" transform="translate(173,391)"/>
<path d="M0 0 C0 3.38023517 -0.87455622 5.83468937 -2 9 C-3.125 7.25 -3.125 7.25 -4 5 C-3.07451225 2.30066074 -2.57626463 1.28813232 0 0 Z " fill="#4D565F" transform="translate(414,359)"/>
<path d="M0 0 C0.66 0 1.32 0 2 0 C1.67 2.64 1.34 5.28 1 8 C0.34 8 -0.32 8 -1 8 C-0.67 5.36 -0.34 2.72 0 0 Z " fill="#32434F" transform="translate(371,319)"/>
<path d="M0 0 C0.66 0.66 1.32 1.32 2 2 C1.525625 2.391875 1.05125 2.78375 0.5625 3.1875 C-1.35179633 5.40808374 -1.61266988 7.13375709 -2 10 C-2.33 10 -2.66 10 -3 10 C-3.36923077 3.47692308 -3.36923077 3.47692308 -1.5 1.0625 C-1.005 0.711875 -0.51 0.36125 0 0 Z " fill="#AAC9D0" transform="translate(354,283)"/>
<path d="M0 0 C0.66 0.33 1.32 0.66 2 1 C0.3125 3.0625 0.3125 3.0625 -2 5 C-4.75 4.75 -4.75 4.75 -7 4 C-6.1028125 3.566875 -6.1028125 3.566875 -5.1875 3.125 C-2.80672208 1.95257974 -2.80672208 1.95257974 0 0 Z " fill="#ACCDD4" transform="translate(353,240)"/>
<path d="M0 0 C1.5 1.3125 1.5 1.3125 3 3 C3 3.99 3 4.98 3 6 C2.34 6 1.68 6 1 6 C1 5.01 1 4.02 1 3 C-0.65 3.33 -2.3 3.66 -4 4 C-2.68 2.68 -1.36 1.36 0 0 Z " fill="#B7D5DB" transform="translate(361,235)"/>
<path d="M0 0 C1.98 0.99 1.98 0.99 4 2 C4 3.98 4 5.96 4 8 C3.34 8 2.68 8 2 8 C1.34 5.36 0.68 2.72 0 0 Z " fill="#2F3E4A" transform="translate(312,236)"/>
<path d="M0 0 C0.88492145 2.47778006 1.11637742 3.66056586 0.25 6.1875 C-1 8 -1 8 -4 9 C-2.80100302 5.9168649 -1.52299523 2.93720508 0 0 Z " fill="#394A55" transform="translate(127,220)"/>
<path d="M0 0 C0.99 0.66 1.98 1.32 3 2 C1.35 3.65 -0.3 5.3 -2 7 C-2 3 -2 3 0 0 Z " fill="#AFD2DA" transform="translate(317,192)"/>
<path d="M0 0 C3.93673644 1.31224548 6.22719294 2.91910327 9 6 C4.75177626 5.52797514 2.80010291 3.03344482 0 0 Z " fill="#BCD9DE" transform="translate(341,157)"/>
<path d="M0 0 C6.75 0.75 6.75 0.75 9 3 C3.46153846 3.36923077 3.46153846 3.36923077 1.125 1.5 C0.75375 1.005 0.3825 0.51 0 0 Z " fill="#475059" transform="translate(320,127)"/>
<path d="M0 0 C1.66362417 0.34820041 3.32995171 0.68404492 5 1 C5 1.33 5 1.66 5 2 C-3.57142857 2.28571429 -3.57142857 2.28571429 -7 0 C-3.98968256 -0.93423645 -3.13349732 -1.04449911 0 0 Z " fill="#3D505B" transform="translate(268,128)"/>
</svg>
