<?xml version="1.0" encoding="UTF-8"?>
<svg version="1.1" xmlns="http://www.w3.org/2000/svg" width="500" height="500">
<path d="M0 0 C165 0 330 0 500 0 C500 165 500 330 500 500 C335 500 170 500 0 500 C0 335 0 170 0 0 Z " fill="#FCFBFA" transform="translate(0,0)"/>
<path d="M0 0 C0 0.66 0 1.32 0 2 C0.83402344 2.0928125 1.66804687 2.185625 2.52734375 2.28125 C6.54797441 3.11341653 9.93572199 4.64623501 13.5625 6.5 C14.61087036 7.03185913 14.61087036 7.03185913 15.68041992 7.57446289 C22.55317224 11.1487316 28.8068344 15.33700535 35 20 C35.89847656 20.67417969 36.79695312 21.34835938 37.72265625 22.04296875 C57.40043542 37.48959069 73.32332179 56.81953291 83 80 C83.49371094 81.09441406 83.98742187 82.18882812 84.49609375 83.31640625 C98.46061413 115.59847706 97.67667556 155.2094434 86 188 C85.75797852 188.70979004 85.51595703 189.41958008 85.26660156 190.15087891 C78.66092012 209.41107364 67.64015255 228.50357755 52.5703125 242.4375 C50.86361322 244.07085267 50.86361322 244.07085267 49.10546875 246.42578125 C35.23287285 263.38689571 10.59663445 275.87244534 -10 282 C-11.48670385 282.50610839 -12.97233219 283.01538402 -14.45703125 283.52734375 C-40.27232352 292.13516172 -76.67875765 291.67078581 -102.0012207 281.77905273 C-104.02867686 280.98882278 -106.07043066 280.25499839 -108.12109375 279.52734375 C-146.75640932 265.46478333 -176.52185504 236.40591239 -194.6875 199.875 C-200.6892829 186.95485476 -204.23860138 172.87827678 -205.67578125 158.73828125 C-205.83829474 156.04095736 -205.83829474 156.04095736 -207 154 C-208.86761113 125.43969821 -205.15285555 97.5389527 -192 72 C-191.29230469 70.57300781 -191.29230469 70.57300781 -190.5703125 69.1171875 C-181.88748704 52.2911472 -169.04030038 35.5425561 -154 24 C-153.34 24 -152.68 24 -152 24 C-152 23.34 -152 22.68 -152 22 C-149.86743241 20.35154976 -147.74859267 18.85148053 -145.5 17.375 C-144.83524658 16.93494629 -144.17049316 16.49489258 -143.4855957 16.04150391 C-124.88922337 4 -124.88922337 4 -119 4 C-119 3.34 -119 2.68 -119 2 C-111.2596076 -1.00593094 -103.51637356 -3.28745949 -95.4375 -5.1875 C-94.37853516 -5.44724609 -93.31957031 -5.70699219 -92.22851562 -5.97460938 C-61.52872 -13.29489336 -29.7176373 -9.19502334 0 0 Z " fill="#25313F" transform="translate(308,126)"/>
<path d="M0 0 C1.5205942 2.33960731 2.79319115 4.59277523 4.0625 7.0625 C8.11321801 14.33524471 12.27287388 18.5178187 20 22 C20.76699219 22.35449219 21.53398437 22.70898438 22.32421875 23.07421875 C31.70174211 26.59278015 44.01604205 26.80949778 53.1875 22.75 C54.81173889 21.86938856 56.41963696 20.95712128 58 20 C59.051875 19.4225 60.10375 18.845 61.1875 18.25 C66.91404913 13.66876069 72.47951216 8.41237823 74 1 C79.97416055 0.5666412 83.61610401 1.77730882 88.75 4.5 C89.79607422 5.0424939 89.79607422 5.0424939 90.86328125 5.59594727 C103.63716567 12.38133822 116.21659583 21.87853262 121.625 35.8125 C126.16811095 50.66970069 125.84728318 67.62735368 127 83 C113.24155069 92.64672883 99.65221577 100.37194254 83.42578125 104.9921875 C80.11913995 105.89883185 80.11913995 105.89883185 77.51171875 107.03125 C53.53915328 116.27727836 15.54219576 113.97583548 -8.0012207 104.77905273 C-10.02867686 103.98882278 -12.07043066 103.25499839 -14.12109375 102.52734375 C-28.57120978 97.26564386 -41.420003 89.81675004 -54 81 C-53.01 80.505 -53.01 80.505 -52 80 C-52.02578125 78.78828125 -52.0515625 77.5765625 -52.078125 76.328125 C-52.06216101 55.91017973 -50.34812552 33.99014245 -35.74609375 18.62890625 C-26.84594781 10.15733877 -12.73561448 0 0 0 Z " fill="#EB846C" transform="translate(214,303)"/>
<path d="M0 0 C0 0.66 0 1.32 0 2 C0.83402344 2.0928125 1.66804687 2.185625 2.52734375 2.28125 C6.54797441 3.11341653 9.93572199 4.64623501 13.5625 6.5 C14.61087036 7.03185913 14.61087036 7.03185913 15.68041992 7.57446289 C22.55317224 11.1487316 28.8068344 15.33700535 35 20 C35.89847656 20.67417969 36.79695312 21.34835938 37.72265625 22.04296875 C57.40043542 37.48959069 73.32332179 56.81953291 83 80 C83.49371094 81.09441406 83.98742187 82.18882812 84.49609375 83.31640625 C91.91442284 100.46551114 94.2035555 118.7509543 94.25 137.3125 C94.25233643 137.97219788 94.25467285 138.63189575 94.25708008 139.31158447 C94.27193815 150.44939487 93.30527024 161.10485375 91 172 C90.67 171.01 90.34 170.02 90 169 C88.34750513 168.29894157 86.67632417 167.64199649 85 167 C83.79246573 166.22908242 82.5968896 165.43928768 81.41015625 164.63671875 C76.98656007 161.83168418 72.48276289 160.22533969 67.5 158.6875 C66.67757813 158.42388672 65.85515625 158.16027344 65.0078125 157.88867188 C63.0083204 157.2492994 61.00458528 156.62322042 59 156 C58.61436093 150.201131 58.56139539 146.4508514 62.375 141.75 C67.77538242 134.94951843 69.03955529 128.65515951 69.24609375 120.05078125 C69.27896484 118.95572266 69.31183594 117.86066406 69.34570312 116.73242188 C69.40721266 114.44086454 69.46446198 112.14918912 69.51757812 109.85742188 C69.55173828 108.76623047 69.58589844 107.67503906 69.62109375 106.55078125 C69.6461499 105.55731689 69.67120605 104.56385254 69.69702148 103.5402832 C70 101 70 101 72 98 C73.02359797 90.73959576 72.12456191 84.12329919 68 78 C61.71654372 70.9941507 54.44796276 67.36338453 45.01953125 66.83203125 C32.96587483 66.75862287 23.72798535 68.34216399 13.75 75.25 C7.54790906 81.45209094 6.18607812 88.51017766 5 97 C4.34 97 3.68 97 3 97 C2.9906543 95.97753174 2.98130859 94.95506348 2.97167969 93.90161133 C2.93128424 90.04507606 2.86539916 86.18929782 2.79248047 82.33325195 C2.76455408 80.67612562 2.74320132 79.01887309 2.72900391 77.36157227 C2.59027656 62.06919437 0.73044992 47.50465963 -10.0703125 35.74609375 C-14.35987844 31.68819427 -18.41555676 29.12342371 -23.89453125 26.9921875 C-26.15131801 25.92869244 -27.5323937 24.73269427 -29.3125 23 C-38.31443773 14.67268056 -52.51066161 14.56138263 -64 15 C-78.48256856 15.95207783 -92.00342727 23.26202317 -101.76953125 33.93359375 C-110.42619576 44.82565011 -115.0001078 58.3954702 -117 72 C-117.74443359 71.41992188 -117.74443359 71.41992188 -118.50390625 70.828125 C-130.65023741 61.51670605 -141.81652242 58.50076746 -157 60 C-166.46227853 62.13781903 -174.42025218 68.18835305 -180 76 C-182.83909055 81.18868273 -184.05443041 86.14894497 -183 92 C-182.50886719 92.69351563 -182.01773438 93.38703125 -181.51171875 94.1015625 C-179.21364484 98.50768871 -179.50611271 102.84909242 -179.4375 107.75 C-179.17677221 122.00311902 -176.59658837 137.40341163 -166 148 C-165.85884839 150.67058851 -165.95752893 153.32432238 -166 156 C-167.07636719 156.35191406 -168.15273437 156.70382812 -169.26171875 157.06640625 C-179.44229074 160.47709092 -189.60558147 164.10619808 -198.23046875 170.70703125 C-200 172 -200 172 -202 172 C-202.33 172.99 -202.66 173.98 -203 175 C-203.08564209 174.43490723 -203.17128418 173.86981445 -203.25952148 173.28759766 C-203.64869818 170.73285367 -204.04303485 168.17893253 -204.4375 165.625 C-204.57220703 164.73554688 -204.70691406 163.84609375 -204.84570312 162.9296875 C-204.97783203 162.07890625 -205.10996094 161.228125 -205.24609375 160.3515625 C-205.36654053 159.56604004 -205.4869873 158.78051758 -205.61108398 157.97119141 C-205.92238238 155.93388316 -205.92238238 155.93388316 -207 154 C-208.86761113 125.43969821 -205.15285555 97.5389527 -192 72 C-191.29230469 70.57300781 -191.29230469 70.57300781 -190.5703125 69.1171875 C-181.88748704 52.2911472 -169.04030038 35.5425561 -154 24 C-153.34 24 -152.68 24 -152 24 C-152 23.34 -152 22.68 -152 22 C-149.86743241 20.35154976 -147.74859267 18.85148053 -145.5 17.375 C-144.83524658 16.93494629 -144.17049316 16.49489258 -143.4855957 16.04150391 C-124.88922337 4 -124.88922337 4 -119 4 C-119 3.34 -119 2.68 -119 2 C-111.2596076 -1.00593094 -103.51637356 -3.28745949 -95.4375 -5.1875 C-94.37853516 -5.44724609 -93.31957031 -5.70699219 -92.22851562 -5.97460938 C-61.52872 -13.29489336 -29.7176373 -9.19502334 0 0 Z " fill="#EB846C" transform="translate(308,126)"/>
<path d="M0 0 C1.33910869 1.82686351 2.59657799 3.71393328 3.8125 5.625 C8.41065082 13.30381694 8.41065082 13.30381694 14.9699707 19.14697266 C18.39553449 21.17210946 20.63755726 22.64976781 21.69873047 26.60302734 C21.89994351 29.77069544 21.85037624 32.83014171 21.6875 36 C21.63952271 37.67533813 21.63952271 37.67533813 21.59057617 39.38452148 C21.02855107 53.95801237 19.06083099 65.245841 8.4375 75.75 C0.22197362 82.77627736 -8.84490395 84.83870309 -19.53125 84.51953125 C-25.39834013 83.64078915 -30.04396019 81.16278571 -35 78 C-35.62777344 77.60554688 -36.25554687 77.21109375 -36.90234375 76.8046875 C-43.21273999 72.21238896 -47.27128127 63.32460844 -48.54077148 55.79077148 C-48.98348513 52.13632454 -49.11400585 48.651316 -49.09765625 44.97265625 C-49.09443359 43.68681641 -49.09121094 42.40097656 -49.08789062 41.07617188 C-49.07953802 39.73828055 -49.07107311 38.40038993 -49.0625 37.0625 C-49.05747659 35.69726726 -49.05291517 34.33203274 -49.04882812 32.96679688 C-49.03708851 29.64448543 -49.02066679 26.32226592 -49 23 C-47.80503906 22.75765625 -46.61007813 22.5153125 -45.37890625 22.265625 C-33.28679083 19.81817169 -33.28679083 19.81817169 -22 15 C-21.03707031 14.49597656 -20.07414062 13.99195313 -19.08203125 13.47265625 C-13.0034513 10.14265158 -8.16541044 6.66491836 -3.5234375 1.50390625 C-2 0 -2 0 0 0 Z " fill="#FBCEA0" transform="translate(266,194)"/>
<path d="M0 0 C1.80223874 1.43003726 3.48496213 2.92327786 5.15625 4.50390625 C7.31063114 6.25205874 9.470394 7.24353467 12 8.375 C19.71414222 12.05621681 23.93164285 17.8635252 27.17578125 25.62890625 C27.44777344 26.41136719 27.71976562 27.19382813 28 28 C28.54333984 29.5159375 28.54333984 29.5159375 29.09765625 31.0625 C30.50672195 36.10572167 30.21283668 41.24500077 30.125 46.4375 C30.11597656 47.45521484 30.10695313 48.47292969 30.09765625 49.52148438 C30.07424698 52.01457156 30.041457 54.50715859 30 57 C21.25160313 55.4186891 14.74016951 50.53739696 9.5 43.4375 C5.46848725 37.55251634 2.88611637 31.87085248 1 25 C-0.96822886 23.03177114 -4.34808709 23.33751619 -7 23 C-7.26941406 23.58265625 -7.53882813 24.1653125 -7.81640625 24.765625 C-13.80867809 36.07776854 -26.25254427 43.83513748 -38 48 C-43.25472449 49.46141068 -48.538763 50.65353105 -53.94140625 51.4140625 C-56.4161227 51.78148765 -58.65858293 52.11609155 -61 53 C-62.78379415 55.98352894 -62.78379415 55.98352894 -64 59 C-67.078125 59.68359375 -67.078125 59.68359375 -70 60 C-70.79280748 40.97262053 -68.49540885 26.14355599 -56.3125 10.88671875 C-43.34664962 -3.17000846 -17.28481295 -11.05819726 0 0 Z " fill="#455863" transform="translate(271,155)"/>
<path d="M0 0 C1.18991395 1.48739244 2.37950129 2.9750491 3.56640625 4.46484375 C7.14272364 8.29452423 11.7856595 9.20059571 16.8125 9.5 C22.54429785 9.32471566 27.32290362 7.26109472 32 4 C33.75811441 1.93576316 33.75811441 1.93576316 35 0 C45.91476633 0.92891628 56.02524629 7.01683086 65 13 C65.33 12.34 65.66 11.68 66 11 C63.39542639 34.52008899 46.39839838 60.58305387 29.453125 76.578125 C27.79318159 78.13697863 27.79318159 78.13697863 25.875 80.75 C23.81358288 83.22370055 21.77620681 84.41619677 19 86 C18.95512451 85.32646484 18.91024902 84.65292969 18.86401367 83.95898438 C16.75428062 48.81046498 16.75428062 48.81046498 -2.81640625 20.484375 C-6.7905723 17.20343898 -10.86857963 14.07925958 -15 11 C-13.80838951 6.36595919 -11.53344734 4.5951822 -7.75390625 2.015625 C-5.07686259 0.46544382 -3.09411667 0 0 0 Z " fill="#69BBB9" transform="translate(331,292)"/>
<path d="M0 0 C0.495 1.0725 0.99 2.145 1.5 3.25 C3.59435564 6.79816953 5.60651783 8.70133508 9.39453125 10.3359375 C15.81637408 11.97268905 23.43274253 12.5456333 29.60546875 9.87109375 C31.6744243 8.56272212 31.6744243 8.56272212 33.38671875 7.09375 C35 6 35 6 39 6 C41.75 7.375 41.75 7.375 44 9 C44 9.66 44 10.32 44 11 C42.43392428 12.03900188 40.8188487 13.00432291 39.1875 13.9375 C26.33206835 21.92244595 16.73253365 33.2347169 13 48 C11.85647136 54.60530629 10.99772158 61.24734973 10.12231445 67.89257812 C9.81671901 70.1898617 9.50050799 72.48550525 9.18359375 74.78125 C9.04914101 75.84672058 9.04914101 75.84672058 8.91197205 76.93371582 C8.67650074 78.63338598 8.34699788 80.31954832 8 82 C7.01 82.495 7.01 82.495 6 83 C-12.62752685 67.51738028 -32.1164158 41.59603328 -36 17 C-34.67291123 16.1033184 -33.34271877 15.21111232 -32.00390625 14.33203125 C-30.55956318 13.37195135 -29.13166374 12.38696944 -27.71484375 11.38671875 C-20.15674455 6.24538732 -9.42925511 0 0 0 Z " fill="#69BAB9" transform="translate(144,292)"/>
<path d="M0 0 C2.35035498 1.62542535 2.84485465 2.50401268 3.48510742 5.33056641 C3.71635053 8.66078354 3.73149057 11.92041625 3.65234375 15.2578125 C3.6371167 16.4336792 3.62188965 17.6095459 3.60620117 18.82104492 C3.2636632 29.36930734 1.04189647 35.556836 -5.53515625 43.8203125 C-10.91553456 47.88840341 -15.93572404 49.40710897 -22.609375 49.1640625 C-28.65625213 48.17681725 -32.66670175 44.60853469 -36.41015625 39.9453125 C-40.8119807 33.61768985 -43.2423203 26.4827175 -43.1953125 18.7734375 C-43.19208984 17.83886719 -43.18886719 16.90429688 -43.18554688 15.94140625 C-43.17716797 14.97332031 -43.16878906 14.00523437 -43.16015625 13.0078125 C-43.15564453 12.02425781 -43.15113281 11.04070312 -43.14648438 10.02734375 C-43.13472108 7.60410459 -43.11828309 5.18098977 -43.09765625 2.7578125 C-41.98692749 2.68264404 -41.98692749 2.68264404 -40.85375977 2.60595703 C-37.45536528 2.37195095 -34.05780077 2.12745751 -30.66015625 1.8828125 C-28.9131543 1.76486328 -28.9131543 1.76486328 -27.13085938 1.64453125 C-0.7222327 -0.28962169 -0.7222327 -0.28962169 0 0 Z " fill="#E9B079" transform="translate(182.09765625,222.2421875)"/>
<path d="M0 0 C2.79296875 1.32421875 2.79296875 1.32421875 5.79296875 3.32421875 C6.49955714 7.63646195 6.30211112 12.02352278 6.29296875 16.38671875 C6.32132812 17.59005859 6.3496875 18.79339844 6.37890625 20.03320312 C6.3995346 29.47582851 4.32579252 35.06671318 -1.64453125 42.26171875 C-6.43398422 46.11664431 -11.15193598 46.95060792 -17.20703125 46.32421875 C-23.86133538 44.28270408 -27.85600179 40.32684162 -31.20703125 34.32421875 C-34.95186677 26.31168388 -34.51826985 17.96973533 -34.20703125 9.32421875 C-33.14226562 9.18886719 -32.0775 9.05351562 -30.98046875 8.9140625 C-21.62342012 7.573626 -14.38429555 5.43057733 -6.2578125 0.5546875 C-3.20703125 -0.67578125 -3.20703125 -0.67578125 0 0 Z " fill="#E8AF78" transform="translate(361.20703125,224.67578125)"/>
<path d="M0 0 C0.99 0 1.98 0 3 0 C3.08636719 0.73605469 3.17273438 1.47210938 3.26171875 2.23046875 C4.17716947 8.58823203 5.07873121 11.61076027 10 16 C10.0625 17.9375 10.0625 17.9375 9 20 C8.54625 20.928125 8.0925 21.85625 7.625 22.8125 C4.16911365 27.82993499 -2.26846908 31.69396418 -7.953125 33.68359375 C-15.58735088 34.86369355 -24.24890173 35.18319586 -31 31 C-35.50063655 27.51921213 -39.9079254 23.82831839 -43 19 C-43 18.01 -43 17.02 -43 16 C-42.21625 15.38125 -41.4325 14.7625 -40.625 14.125 C-36.2170322 10.55664511 -35.75914383 6.4405308 -35 1 C-34.36835938 1.144375 -33.73671875 1.28875 -33.0859375 1.4375 C-22.06417212 3.72443691 -11.12560143 3.43556147 0 2 C0 1.34 0 0.68 0 0 Z " fill="#F8CB9A" transform="translate(268,285)"/>
<path d="M0 0 C0.57234375 0.15082031 1.1446875 0.30164063 1.734375 0.45703125 C3.95422397 1.03283875 3.95422397 1.03283875 6.078125 1.26171875 C10.54941397 2.13828439 12.50619505 3.28841901 15.15234375 7.1015625 C16.21072821 8.96100856 17.20240859 10.84179265 18.17285156 12.74853516 C19.92816256 16.19424444 21.41034175 18.71812231 24.5 21.0625 C28.51298095 25.77775262 27.47588666 31.06022947 27 37 C25.86820313 37.20496094 24.73640625 37.40992188 23.5703125 37.62109375 C22.08851239 37.89306972 20.60674315 38.16521387 19.125 38.4375 C18.37863281 38.57220703 17.63226563 38.70691406 16.86328125 38.84570312 C12.81466622 39.54536611 12.81466622 39.54536611 9 41 C2.89314771 41.50890436 -0.12959772 41.0775461 -5 37 C-7.65788298 34.43704141 -8.2213072 32.42238912 -8.43359375 28.84765625 C-8.45080079 27.25269645 -8.45159228 25.65749036 -8.4375 24.0625 C-8.4674707 22.86463867 -8.4674707 22.86463867 -8.49804688 21.64257812 C-8.49366666 16.35565495 -7.70683883 13.97406011 -4 10 C-2.70635351 7.36235597 -2.70635351 7.36235597 -1.75 4.6875 C-1.41484375 3.80449219 -1.0796875 2.92148437 -0.734375 2.01171875 C-0.49203125 1.34785156 -0.2496875 0.68398437 0 0 Z " fill="#435762" transform="translate(195,254)"/>
<path d="M0 0 C2.97492745 0.88494853 4.13633493 1.85692931 6.25073242 4.09399414 C6.90509277 4.77187988 7.55945313 5.44976562 8.23364258 6.14819336 C8.91604004 6.87151855 9.5984375 7.59484375 10.30151367 8.34008789 C16.1047159 14.30845919 21.87229318 19.86325565 28.61401367 24.77758789 C29.1420459 25.17139648 29.67007813 25.56520508 30.21411133 25.97094727 C37.71428833 31.56171918 45.23752174 36.56741394 53.61401367 40.77758789 C54.9213665 41.44413462 56.22865359 42.11081027 57.53588867 42.77758789 C64.48315642 46.3007176 71.45193162 49.70812415 78.61401367 52.77758789 C78.80151367 55.65258789 78.80151367 55.65258789 78.61401367 58.77758789 C74.97589953 61.20299732 73.92285041 61.32598529 69.61401367 60.77758789 C67.08907114 59.69427922 64.68986393 58.47231657 62.27416992 57.16430664 C59.74894543 55.84792676 57.17967085 54.74902385 54.55664062 53.64550781 C50.83445605 51.9825235 47.26610756 50.01868718 43.67651367 48.09008789 C42.89727539 47.67436523 42.11803711 47.25864258 41.31518555 46.83032227 C39.41343935 45.81527982 37.51353362 44.79679038 35.61401367 43.77758789 C35.61401367 43.11758789 35.61401367 42.45758789 35.61401367 41.77758789 C34.52733398 41.38313477 34.52733398 41.38313477 33.41870117 40.98071289 C22.93141957 36.48199042 14.47411669 27.28166213 6.38256836 19.47436523 C4.74921662 17.90730358 3.09620048 16.36504821 1.43432617 14.82836914 C0.52424805 13.96598633 -0.38583008 13.10360352 -1.32348633 12.21508789 C-2.11625977 11.47129883 -2.9090332 10.72750977 -3.72583008 9.96118164 C-5.38598633 7.77758789 -5.38598633 7.77758789 -5.71411133 5.11743164 C-5.38598633 2.77758789 -5.38598633 2.77758789 -4.19848633 0.90258789 C-2.38598633 -0.22241211 -2.38598633 -0.22241211 0 0 Z " fill="#26323E" transform="translate(118.385986328125,376.222412109375)"/>
<path d="M0 0 C5.37786056 0.09157348 10.57615873 0.44198301 15.8984375 1.23046875 C15.8984375 1.89046875 15.8984375 2.55046875 15.8984375 3.23046875 C21.14162273 3.135342 26.38442919 3.02894822 31.62719727 2.91308594 C33.40252795 2.87532316 35.17792157 2.84038984 36.95336914 2.80859375 C47.53961328 2.61682482 57.91764288 2.0647234 68.41430664 0.64599609 C76.10609464 -0.27134839 76.10609464 -0.27134839 78.7734375 1.41796875 C79.8984375 3.23046875 79.8984375 3.23046875 79.6484375 5.79296875 C78.8984375 8.23046875 78.8984375 8.23046875 77.8984375 10.23046875 C56.58827519 17.48499209 29.75412195 15.28797145 7.8984375 12.23046875 C6.81175781 12.08609375 5.72507813 11.94171875 4.60546875 11.79296875 C-1.59148503 10.79144087 -1.59148503 10.79144087 -3.86328125 8.29296875 C-5.1015625 6.23046875 -5.1015625 6.23046875 -4.9140625 4.10546875 C-3.77830265 1.48448449 -2.90430067 0.31850137 0 0 Z " fill="#27323E" transform="translate(216.1015625,433.76953125)"/>
<path d="M0 0 C1.175625 0.0825 2.35125 0.165 3.5625 0.25 C5.5625 3.25 5.5625 3.25 5.54296875 5.609375 C4.1965204 9.23566617 1.80907691 11.14409138 -1.125 13.5 C-1.70588379 13.97743652 -2.28676758 14.45487305 -2.88525391 14.94677734 C-8.51177412 19.47845605 -14.4589361 23.4026205 -20.62841797 27.1484375 C-22.47195702 28.27098112 -24.30067556 29.41522389 -26.12890625 30.5625 C-48.3945183 44.39637074 -48.3945183 44.39637074 -59.4375 45.25 C-61.375 44.1875 -61.375 44.1875 -62.4375 42.25 C-62.48004356 40.25045254 -62.4836207 38.24946815 -62.4375 36.25 C-61.79167969 36.00507813 -61.14585937 35.76015625 -60.48046875 35.5078125 C-43.38103655 28.72418003 -15.86976387 1.15416465 0 0 Z " fill="#26313D" transform="translate(373.4375,391.75)"/>
<path d="M0 0 C3.3235212 2.08659331 5.85688054 4.69977537 8.484375 7.59375 C10.2711623 9.61747734 10.2711623 9.61747734 13.24609375 11.03515625 C13.90609375 11.48890625 14.56609375 11.94265625 15.24609375 12.41015625 C15.55859375 15.59765625 15.55859375 15.59765625 15.24609375 18.41015625 C12.58219531 17.44819293 10.4919182 16.6163316 8.30859375 14.78515625 C5.45195868 12.88073287 3.6600449 13.1975365 0.24609375 13.41015625 C-2.18692115 13.99137648 -4.60395729 14.64223192 -7.00390625 15.34765625 C-18.00041354 18.42304131 -28.40013031 18.54640156 -39.75390625 18.41015625 C-39.92782918 12.95805056 -39.32350493 10.67626199 -35.75390625 6.41015625 C-25.28788729 -2.90381958 -13.35161508 -6.11674976 0 0 Z " fill="#41535E" transform="translate(174.75390625,197.58984375)"/>
<path d="M0 0 C1.0625 1.8125 1.0625 1.8125 1 4.3125 C-0.14336392 7.36147046 -1.21705852 8.08541474 -3.9375 9.8125 C-6.18896484 10.53271484 -6.18896484 10.53271484 -8.6484375 11.0234375 C-9.5561792 11.21317139 -10.4639209 11.40290527 -11.39916992 11.59838867 C-12.84126831 11.88999878 -12.84126831 11.88999878 -14.3125 12.1875 C-31.44882477 15.90952364 -47.26361421 22.02990948 -61.9375 31.8125 C-64.73989987 31.60232001 -66.47184881 31.12293413 -68.8125 29.5625 C-69.9375 27.8125 -69.9375 27.8125 -69.73828125 25.38671875 C-68.27324063 20.67714916 -64.09271811 19.05598042 -59.9375 16.8125 C-47.32246583 10.8125 -47.32246583 10.8125 -42.9375 10.8125 C-42.9375 10.1525 -42.9375 9.4925 -42.9375 8.8125 C-33.94442625 5.65703553 -24.96646408 2.64407663 -15.6875 0.4375 C-14.99793213 0.27024414 -14.30836426 0.10298828 -13.59790039 -0.06933594 C-3.77356549 -2.31283046 -3.77356549 -2.31283046 0 0 Z " fill="#26313E" transform="translate(219.9375,86.1875)"/>
<path d="M0 0 C3.64855496 1.28280404 4.52844138 2.77857504 6.18481445 6.19555664 C6.49636475 6.8993042 6.80791504 7.60305176 7.12890625 8.328125 C7.46688232 9.04669678 7.8048584 9.76526855 8.15307617 10.50561523 C10.70520094 16.01866776 12.96135687 21.63040629 15.046875 27.3359375 C16.07885648 30.23128356 16.07885648 30.23128356 17.69140625 33.515625 C21.86730588 44.33500133 24.81086037 58.43155381 24.06640625 70.078125 C22.06640625 72.078125 22.06640625 72.078125 19.06640625 72.390625 C18.07640625 72.2875 17.08640625 72.184375 16.06640625 72.078125 C14.10967647 69.14303033 13.67873406 67.82805869 13.13671875 64.46484375 C12.90686279 63.09767212 12.90686279 63.09767212 12.67236328 61.70288086 C12.51364746 60.73358643 12.35493164 59.76429199 12.19140625 58.765625 C9.56354397 43.67072363 5.51749689 30.44758607 -1.65234375 16.80859375 C-2.19890625 15.76316406 -2.74546875 14.71773437 -3.30859375 13.640625 C-3.81132812 12.71378906 -4.3140625 11.78695312 -4.83203125 10.83203125 C-6.10070314 7.66035152 -6.36204818 5.46291499 -5.93359375 2.078125 C-2.93359375 0.078125 -2.93359375 0.078125 0 0 Z " fill="#27313E" transform="translate(409.93359375,173.921875)"/>
<path d="M0 0 C3.09894009 0.22955112 4.18734516 1.17329428 6.5 3.3125 C12.79710652 11.50068805 14.10709175 21.99799864 13 32 C12.22981654 35.17755692 11.23669362 37.95979484 10 41 C8.783125 40.71125 7.56625 40.4225 6.3125 40.125 C1.15314476 38.96660973 -4.04381964 38.20549453 -9.27734375 37.46484375 C-12 37 -12 37 -14 36 C-14.34447462 31.28580103 -14.51744194 26.70548761 -14 22 C-11.375 19.25 -11.375 19.25 -9.7265625 18.2578125 C-4.22299511 14.2484263 -1.40102698 6.4447241 0 0 Z " fill="#445762" transform="translate(295,255)"/>
<path d="M0 0 C6.45286999 0.87401986 12.46472534 2.88843946 18.625 4.9375 C20.04749634 5.37850391 21.47070969 5.81719988 22.89453125 6.25390625 C35.69469664 10.25083425 50.94870251 15.26120251 60.625 24.9375 C60.29528521 28.23464793 60.0023161 29.5601839 57.625 31.9375 C52.38605573 32.61397774 49.57146333 31.0699045 45.1875 28.3125 C30.61848234 19.51213398 14.37153409 14.51957208 -2.35546875 11.74609375 C-5.375 10.9375 -5.375 10.9375 -7.375 7.9375 C-7.72993888 5.09798893 -7.87334181 3.60143502 -6.12890625 1.27734375 C-3.8457272 -0.46682198 -2.82596328 -0.33329467 0 0 Z " fill="#27323E" transform="translate(287.375,84.0625)"/>
<path d="M0 0 C3 0.25 3 0.25 5 2.25 C4.71202686 8.3778005 3.08245171 13.45400149 0.6875 19.0625 C0.34211182 19.87783203 -0.00327637 20.69316406 -0.35913086 21.53320312 C-4.23262228 30.30717804 -9.32502597 38.22191395 -14.6328125 46.18359375 C-16.49956697 49.00505979 -18.27765687 51.87610004 -20.0625 54.75 C-21.80978782 57.5598878 -23.42045875 60.14132739 -26 62.25 C-29.34192692 62.00546876 -30.60543557 61.64456443 -33 59.25 C-32.82002317 53.57380782 -30.88327254 49.96501731 -27.625 45.5 C-18.81549713 32.80858872 -11.05209244 19.97256341 -6.12109375 5.27734375 C-4.69093548 1.4154181 -4.17850996 0.34820916 0 0 Z " fill="#27313E" transform="translate(420,320.75)"/>
<path d="M0 0 C3.61904909 1.86789631 4.80654808 4.64367941 6.18359375 8.390625 C6.58833158 9.67471179 6.98529465 10.96127143 7.375 12.25 C9.06812565 17.82534305 11.24701187 22.83466633 13.9375 28 C14.58427452 29.30814891 15.22753209 30.6180428 15.8671875 31.9296875 C16.51490026 33.24514876 17.16335079 34.560247 17.8125 35.875 C18.15474609 36.56899902 18.49699219 37.26299805 18.84960938 37.97802734 C20.85909295 42.00167207 23.01180415 45.83125767 25.4375 49.625 C27.65536922 53.20493021 28.79904442 55.69227789 27.9375 60 C25.9375 62 25.9375 62 23.125 62.625 C19.9375 62 19.9375 62 18.70825195 60.49438477 C18.32628662 59.83752686 17.94432129 59.18066895 17.55078125 58.50390625 C17.12192627 57.77655273 16.69307129 57.04919922 16.2512207 56.29980469 C15.81769287 55.54086914 15.38416504 54.78193359 14.9375 54 C14.52266357 53.29520508 14.10782715 52.59041016 13.68041992 51.86425781 C8.73953663 43.41302785 4.23446656 35.06198522 0.95703125 25.8203125 C0.01976766 23.22757568 -1.05989584 20.79657196 -2.25 18.3125 C-4.30226598 13.73501785 -5.9356297 9.05668787 -6.0625 4 C-4.30275434 1.08965141 -3.45992903 0 0 0 Z " fill="#25313D" transform="translate(79.0625,304)"/>
<path d="M0 0 C3.11478328 2.13811395 4.83240536 4.02152074 6.84375 7.265625 C7.15625 10.640625 7.15625 10.640625 6.84375 13.265625 C2.13346963 11.4338493 2.13346963 11.4338493 -0.09375 10.140625 C-3.12363991 8.85521716 -4.87146555 8.76027355 -8.15625 9.265625 C-9.99484632 10.47327047 -9.99484632 10.47327047 -11.84375 12.015625 C-19.13128128 17.86227557 -26.80286921 19.75247236 -36.0390625 19.50390625 C-38.15625 19.265625 -38.15625 19.265625 -39.15625 18.265625 C-39.81193787 14.39789652 -39.95433701 10.78228481 -38.09765625 7.25390625 C-29.37818439 -3.63952607 -12.2155815 -6.47243497 0 0 Z " fill="#41545F" transform="translate(363.15625,204.734375)"/>
<path d="M0 0 C2 2 2 2 2.5546875 4.70703125 C1.72666804 9.62266792 -1.18633031 11.55279024 -4.875 14.6875 C-6.25821087 15.91981514 -7.63840724 17.15552191 -9.015625 18.39453125 C-9.69560547 19.00248535 -10.37558594 19.61043945 -11.07617188 20.23681641 C-17.83010086 26.42677518 -23.27504232 33.17428884 -28 41 C-28.66 41 -29.32 41 -30 41 C-30.28875 41.78375 -30.5775 42.5675 -30.875 43.375 C-32 46 -32 46 -34 48 C-37 48.3125 -37 48.3125 -40 48 C-42.23849109 44.64226336 -42.66189129 43.89539302 -42 40 C-40.38424643 37.17046083 -38.40213331 34.67010471 -36.375 32.125 C-35.50234497 31.01040405 -35.50234497 31.01040405 -34.61206055 29.87329102 C-9.82204216 -1.32376941 -9.82204216 -1.32376941 0 0 Z " fill="#25303D" transform="translate(138,123)"/>
<path d="M0 0 C4.44180583 1.38070591 6.87018609 3.89563291 10.1171875 7.1328125 C11.35458599 8.32773773 12.59286083 9.52175616 13.83203125 10.71484375 C14.71544189 11.57456787 14.71544189 11.57456787 15.61669922 12.45166016 C17.57166167 14.3232328 19.60722118 16.08041416 21.6796875 17.8203125 C25.60743728 21.21932673 28.96535067 24.98515809 32.2421875 29.0078125 C32.76425781 29.63042969 33.28632813 30.25304687 33.82421875 30.89453125 C35.96607149 33.61462522 37.25813723 35.29007444 37.1796875 38.8203125 C36.2421875 41.0078125 36.2421875 41.0078125 34.2421875 43.0078125 C31.85546875 43.4140625 31.85546875 43.4140625 29.2421875 43.0078125 C27.34765625 41.1640625 27.34765625 41.1640625 25.4296875 38.5078125 C21.33295671 33.20818256 16.91508879 28.43235859 12.1796875 23.6953125 C11.51928467 23.02628906 10.85888184 22.35726562 10.1784668 21.66796875 C6.31468756 17.82476444 2.33878405 14.42138209 -2.09155273 11.24536133 C-3.7578125 10.0078125 -3.7578125 10.0078125 -5.7578125 8.0078125 C-6.0703125 5.0078125 -6.0703125 5.0078125 -5.7578125 2.0078125 C-2.7578125 0.0078125 -2.7578125 0.0078125 0 0 Z " fill="#293440" transform="translate(363.7578125,119.9921875)"/>
<path d="M0 0 C0.33 0.33 0.66 0.66 1 1 C0.82901734 6.30046247 0.06946913 10.22977103 -2.25 15 C-7.34469577 25.51333174 -10.02404263 37.13123415 -12.2265625 48.55859375 C-13 51 -13 51 -16 53 C-20.54054054 52.45945946 -20.54054054 52.45945946 -22 51 C-22.33555454 44.25535383 -21.48901446 38.34714281 -19.875 31.8125 C-19.65344238 30.89774902 -19.43188477 29.98299805 -19.20361328 29.04052734 C-17.23694045 21.27346623 -14.4410275 14.23932015 -11 7 C-10.47981992 5.72735817 -9.96160898 4.4539098 -9.4453125 3.1796875 C-7.1055095 -1.96787909 -5.10493853 -1.08615713 0 0 Z " fill="#25303D" transform="translate(93,184)"/>
<path d="M0 0 C3.5 0.25 3.5 0.25 5.5 2.25 C5.68204198 4.64740029 5.73188457 6.91601051 5.6875 9.3125 C5.67783203 10.40002563 5.67783203 10.40002563 5.66796875 11.50952148 C5.52372333 22.42822375 4.99441304 33.34266982 4.5 44.25 C3.01882199 43.96872579 1.54006751 43.67466268 0.0625 43.375 C-0.76121094 43.21257812 -1.58492187 43.05015625 -2.43359375 42.8828125 C-3.11550781 42.67398438 -3.79742187 42.46515625 -4.5 42.25 C-6.1301972 38.9896056 -5.66307421 35.3953944 -5.66796875 31.8125 C-5.67129715 30.97662354 -5.67462555 30.14074707 -5.67805481 29.27954102 C-5.68312107 27.51091055 -5.68546323 25.74227052 -5.68530273 23.97363281 C-5.6874912 21.26090865 -5.70565527 18.54858977 -5.72460938 15.8359375 C-5.7275429 14.11979306 -5.72952797 12.40364669 -5.73046875 10.6875 C-5.73765427 9.87289307 -5.74483978 9.05828613 -5.75224304 8.21899414 C-5.72038112 0.40859865 -5.72038112 0.40859865 0 0 Z " fill="#2B3340" transform="translate(194.5,359.75)"/>
<path d="M0 0 C2.4375 0.8125 2.4375 0.8125 4.4375 2.8125 C4.67241827 5.46372042 4.76885665 7.97212295 4.75 10.625 C4.74653564 11.4102002 4.74307129 12.19540039 4.73950195 13.00439453 C4.62507439 19.45659161 3.99658975 25.79639946 3.125 32.1875 C3.00745361 33.0844458 2.88990723 33.9813916 2.76879883 34.90551758 C1.56715283 42.942341 1.56715283 42.942341 -1.5625 45.8125 C-4.125 46.25 -4.125 46.25 -6.5625 45.8125 C-10.09710522 40.51059217 -8.74340515 34.43316069 -7.625 28.4375 C-6.43499196 22.04947074 -6.19495824 15.70665464 -6.08032227 9.22314453 C-6.04249634 8.04341064 -6.04249634 8.04341064 -6.00390625 6.83984375 C-5.98372437 5.78398071 -5.98372437 5.78398071 -5.96313477 4.70678711 C-5.21540999 1.17138396 -3.56448151 -0.26081572 0 0 Z " fill="#242F3C" transform="translate(430.5625,261.1875)"/>
<path d="M0 0 C3.125 0.1875 3.125 0.1875 6.125 2.1875 C6.40411945 5.14387208 6.49675437 7.88791355 6.453125 10.84375 C6.45125183 11.70182251 6.44937866 12.55989502 6.44744873 13.44396973 C6.44072066 15.25972371 6.42679121 17.07546302 6.40625 18.89111328 C6.3751258 21.67624319 6.36528333 24.46080727 6.359375 27.24609375 C6.35020393 29.00781942 6.33982783 30.76953932 6.328125 32.53125 C6.32175018 33.78597107 6.32175018 33.78597107 6.31524658 35.06604004 C6.24219031 40.95311937 6.24219031 40.95311937 5.125 43.1875 C3.05859375 43.8203125 3.05859375 43.8203125 0.5625 44.3125 C-0.67693359 44.56386719 -0.67693359 44.56386719 -1.94140625 44.8203125 C-2.57949219 44.94148438 -3.21757812 45.06265625 -3.875 45.1875 C-3.90027124 38.93954325 -3.91783344 32.69159959 -3.92993164 26.44360352 C-3.93497298 24.31631986 -3.94180591 22.18903969 -3.95043945 20.06176758 C-3.96251379 17.01122174 -3.96823014 13.96072155 -3.97265625 10.91015625 C-3.97781754 9.95287125 -3.98297882 8.99558624 -3.98829651 8.0092926 C-3.98837204 7.12845505 -3.98844757 6.24761749 -3.98852539 5.34008789 C-3.990746 4.56065323 -3.99296661 3.78121857 -3.99525452 2.97816467 C-3.79057372 -0.06965984 -3.08320199 0.20107839 0 0 Z " fill="#222F3E" transform="translate(307.875,359.8125)"/>
<path d="M0 0 C2.4375 0.8125 2.4375 0.8125 4.4375 2.8125 C4.71939501 5.2808185 4.88309977 7.64487756 4.95703125 10.12109375 C4.99675301 11.2048806 4.99675301 11.2048806 5.03727722 12.31056213 C5.08997531 13.83944613 5.1375544 15.36851382 5.18041992 16.89770508 C5.24965062 19.23818844 5.34558498 21.57657235 5.44335938 23.91601562 C5.49121655 25.40098993 5.53749308 26.88601619 5.58203125 28.37109375 C5.61311478 29.0711705 5.6441983 29.77124725 5.67622375 30.49253845 C5.73775124 33.41011853 5.77147758 35.32831991 4.0847168 37.77368164 C2.4375 38.8125 2.4375 38.8125 -0.0625 38.875 C-3.66013665 37.34600442 -4.11003391 35.37837422 -5.5625 31.8125 C-5.95068359 28.5168457 -5.95068359 28.5168457 -5.9609375 24.98828125 C-5.96480469 23.71275391 -5.96867187 22.43722656 -5.97265625 21.12304688 C-5.96105469 19.80369141 -5.94945313 18.48433594 -5.9375 17.125 C-5.94819435 15.78059042 -5.9599039 14.43618851 -5.97265625 13.09179688 C-5.96878906 11.82013672 -5.96492188 10.54847656 -5.9609375 9.23828125 C-5.95755371 8.07723877 -5.95416992 6.91619629 -5.95068359 5.7199707 C-5.5625 2.8125 -5.5625 2.8125 -4.19775391 0.89916992 C-2.5625 -0.1875 -2.5625 -0.1875 0 0 Z " fill="#26313D" transform="translate(73.5625,251.1875)"/>
<path d="M0 0 C0.78530425 8.98737084 0.78530425 8.98737084 -2.375 13.0625 C-7.12256596 16.56665583 -11.19954429 16.76489526 -17 16 C-20.125 14.125 -20.125 14.125 -22 11 C-22.3867797 7.62212398 -22.2955326 4.38220638 -22 1 C-20.95199219 1.01160156 -19.90398437 1.02320313 -18.82421875 1.03515625 C-17.44531428 1.04453655 -16.06640789 1.0536365 -14.6875 1.0625 C-13.99720703 1.07087891 -13.30691406 1.07925781 -12.59570312 1.08789062 C-8.19011054 1.10917368 -4.35924297 0 0 0 Z " fill="#E5AE77" transform="translate(175,278)"/>
<path d="M0 0 C0.66 0 1.32 0 2 0 C2.01401855 0.83023682 2.01401855 0.83023682 2.02832031 1.67724609 C2.29619028 14.29602241 2.73867881 24.09494452 10.25 34.625 C13.33523923 38.97379198 13.57241712 41.75284305 13 47 C10.69 47.66 8.38 48.32 6 49 C6 49.66 6 50.32 6 51 C5.34 51 4.68 51 4 51 C3.90203125 49.88882813 3.8040625 48.77765625 3.703125 47.6328125 C2.87668604 39.12737819 1.74311886 31.77866888 -2 24 C-2.67637334 22.33724887 -3.34544246 20.67145944 -4 19 C-4.66 19 -5.32 19 -6 19 C-5.56402878 16.55856115 -5.12725705 15.15433301 -3.53125 13.21875 C-1.68599306 10.54501035 -1.30700442 8.44525933 -0.8125 5.25 C-0.65394531 4.26515625 -0.49539063 3.2803125 -0.33203125 2.265625 C-0.22246094 1.51796875 -0.11289062 0.7703125 0 0 Z " fill="#E1866D" transform="translate(315,234)"/>
<path d="M0 0 C1.06734375 -0.00257812 2.1346875 -0.00515625 3.234375 -0.0078125 C4.91273438 0.00378906 4.91273438 0.00378906 6.625 0.015625 C7.74390625 0.00789063 8.8628125 0.00015625 10.015625 -0.0078125 C11.08296875 -0.00523438 12.1503125 -0.00265625 13.25 0 C14.23226563 0.00225586 15.21453125 0.00451172 16.2265625 0.00683594 C18.625 0.265625 18.625 0.265625 20.625 2.265625 C20.875 5.265625 20.875 5.265625 20.625 8.265625 C18.01631631 10.87430869 16.87967636 10.52291413 13.25 10.53125 C12.18265625 10.53382812 11.1153125 10.53640625 10.015625 10.5390625 C8.33726562 10.52746094 8.33726562 10.52746094 6.625 10.515625 C5.50609375 10.52335937 4.3871875 10.53109375 3.234375 10.5390625 C2.16703125 10.53648438 1.0996875 10.53390625 0 10.53125 C-0.98226562 10.52899414 -1.96453125 10.52673828 -2.9765625 10.52441406 C-5.375 10.265625 -5.375 10.265625 -7.375 8.265625 C-7.625 5.265625 -7.625 5.265625 -7.375 2.265625 C-4.76631631 -0.34305869 -3.62967636 0.00833587 0 0 Z " fill="#252F3B" transform="translate(243.375,81.734375)"/>
<path d="M0 0 C5.94 0 11.88 0 18 0 C18 2.97 18 5.94 18 9 C15 12 15 12 12.44140625 12.3984375 C11.01634766 12.38683594 11.01634766 12.38683594 9.5625 12.375 C8.61503906 12.38273437 7.66757812 12.39046875 6.69140625 12.3984375 C3.40539915 11.91197491 2.11135295 11.60549938 0 9 C0 6.03 0 3.06 0 0 Z " fill="#E0AC76" transform="translate(339,279)"/>
<path d="M0 0 C0 6.6 0 13.2 0 20 C-5 19 -5 19 -6.8125 17 C-8.430105 12.91341894 -8.85410124 9.33319253 -8 5 C-4.2244898 0 -4.2244898 0 0 0 Z " fill="#F4CE98" transform="translate(205,225)"/>
<path d="M0 0 C4 1 4 1 5.75 2.625 C7.49961016 5.94925931 7.39054855 8.28978882 7 12 C5.75 14.875 5.75 14.875 4 17 C2.68 17.33 1.36 17.66 0 18 C0 12.06 0 6.12 0 0 Z " fill="#F5CD9A" transform="translate(298,225)"/>
<path d="M0 0 C4.57152925 -0.02485982 9.14301847 -0.04293526 13.71459961 -0.05493164 C15.26734096 -0.05993684 16.82007766 -0.06674301 18.37280273 -0.07543945 C20.61443232 -0.08767307 22.85599918 -0.09326657 25.09765625 -0.09765625 C26.12621483 -0.10539818 26.12621483 -0.10539818 27.17555237 -0.11329651 C31.56391821 -0.1137986 35.68401845 0.29089331 40 1 C40 1.33 40 1.66 40 2 C33.92637234 3.40376063 27.89137172 3.18419479 21.6875 3.1875 C20.48931641 3.19974609 19.29113281 3.21199219 18.05664062 3.22460938 C11.67529625 3.23515705 6.09913412 2.91687072 0 1 C0 0.67 0 0.34 0 0 Z " fill="#EA765C" transform="translate(229,411)"/>
<path d="M0 0 C0.33 0 0.66 0 1 0 C1 15.51 1 31.02 1 47 C0.67 47 0.34 47 0 47 C-2.53354929 40.19359971 -2.29550368 33.50587287 -2.25 26.3125 C-2.25773437 25.10916016 -2.26546875 23.90582031 -2.2734375 22.66601562 C-2.25669634 14.91904159 -1.53423638 7.59342165 0 0 Z " fill="#EA7C64" transform="translate(103,240)"/>
<path d="M0 0 C0.33 0 0.66 0 1 0 C1.02934711 3.49998201 1.04691445 6.99993179 1.0625 10.5 C1.07087891 11.48226563 1.07925781 12.46453125 1.08789062 13.4765625 C1.10654258 19.07214792 1.0237721 24.48837156 0 30 C-0.66 30.33 -1.32 30.66 -2 31 C-2.11714127 24.12771206 -1.97438544 17.29652582 -1.5625 10.4375 C-1.52326416 9.74720703 -1.48402832 9.05691406 -1.44360352 8.34570312 C-1.25111409 5.35749874 -0.95206308 2.85618925 0 0 Z " fill="#EA755C" transform="translate(401,257)"/>
<path d="M0 0 C10.0165303 3.44093037 17.83194893 12.51336888 25 20 C24.67 20.66 24.34 21.32 24 22 C23.34515625 21.31035156 22.6903125 20.62070313 22.015625 19.91015625 C16.14946957 13.87000468 10.19975644 8.65612508 3.3359375 3.77734375 C1 2 1 2 0 0 Z " fill="#E87157" transform="translate(338,144)"/>
<path d="M0 0 C3.92070238 0.51609203 5.83471262 1.34734904 8.55859375 4.203125 C9.19216797 4.85410156 9.82574219 5.50507813 10.47851562 6.17578125 C11.44821289 7.20251953 11.44821289 7.20251953 12.4375 8.25 C16.78402313 12.77526681 21.09010302 17.08422436 26 21 C25.67 21.66 25.34 22.32 25 23 C18.17147994 16.82851967 11.48396767 10.5902788 5.05859375 3.99609375 C2.96622521 1.8467759 2.96622521 1.8467759 0 0 Z " fill="#1A202B" transform="translate(117,377)"/>
<path d="M0 0 C1.32 0.33 2.64 0.66 4 1 C3.01 1.495 3.01 1.495 2 2 C2.33 5.96 2.66 9.92 3 14 C3.66 13.67 4.32 13.34 5 13 C4.67 14.32 4.34 15.64 4 17 C2.68 17.33 1.36 17.66 0 18 C0 12.06 0 6.12 0 0 Z " fill="#ECDBA7" transform="translate(298,225)"/>
<path d="M0 0 C0.33 0 0.66 0 1 0 C1.33 7.59 1.66 15.18 2 23 C-1.39393651 19.60606349 -1.12881348 16.35886714 -1.13671875 11.7421875 C-1.13091797 10.57042969 -1.13091797 10.57042969 -1.125 9.375 C-1.12886719 8.58609375 -1.13273437 7.7971875 -1.13671875 6.984375 C-1.12665394 1.12665394 -1.12665394 1.12665394 0 0 Z " fill="#1D273A" transform="translate(326,233)"/>
<path d="M0 0 C1.03253906 0.01353516 1.03253906 0.01353516 2.0859375 0.02734375 C3.76577838 0.05067487 5.44543746 0.08653674 7.125 0.125 C7.125 0.455 7.125 0.785 7.125 1.125 C6.5165625 1.13917969 5.908125 1.15335938 5.28125 1.16796875 C-1.74908685 1.55050178 -7.87675015 3.17801412 -14.47851562 5.48510742 C-19.57686988 7.22437671 -19.57686988 7.22437671 -22.875 6.125 C-21.50167716 5.49632332 -20.12624167 4.87226109 -18.75 4.25 C-17.98429688 3.90195313 -17.21859375 3.55390625 -16.4296875 3.1953125 C-10.79575488 0.83491871 -6.1132252 -0.15401536 0 0 Z " fill="#EE8E71" transform="translate(246.875,137.875)"/>
<path d="M0 0 C0.99 0.33 1.98 0.66 3 1 C1.54782324 2.50596108 0.08807139 4.00462104 -1.375 5.5 C-2.18710938 6.3353125 -2.99921875 7.170625 -3.8359375 8.03125 C-6 10 -6 10 -8 10 C-8 10.66 -8 11.32 -8 12 C-8.99 12.33 -9.98 12.66 -11 13 C-9.56179563 7.72658399 -5.9961885 4.50608991 -2 1 C-1.34 0.67 -0.68 0.34 0 0 Z " fill="#D8826B" transform="translate(183,318)"/>
<path d="M0 0 C1.51553092 3.97450493 0.49888623 7.20481149 -0.4375 11.25 C-0.72496094 12.51328125 -1.01242188 13.7765625 -1.30859375 15.078125 C-1.53675781 16.04234375 -1.76492187 17.0065625 -2 18 C-2.99 17.67 -3.98 17.34 -5 17 C-3.82352941 3.82352941 -3.82352941 3.82352941 0 0 Z " fill="#363643" transform="translate(196,178)"/>
<path d="M0 0 C1.4540625 0.0309375 1.4540625 0.0309375 2.9375 0.0625 C1.72513672 0.67351562 1.72513672 0.67351562 0.48828125 1.296875 C-3.57082193 5.69786283 -2.84482454 10.53222277 -2.875 16.3125 C-2.90013672 17.43914062 -2.92527344 18.56578125 -2.95117188 19.7265625 C-3.01004892 22.50555908 -3.04632525 25.28298033 -3.0625 28.0625 C-3.3925 28.0625 -3.7225 28.0625 -4.0625 28.0625 C-4.09136338 23.58334672 -4.10925187 19.10421709 -4.125 14.625 C-4.13337891 13.34560547 -4.14175781 12.06621094 -4.15039062 10.74804688 C-4.15361328 9.53310547 -4.15683594 8.31816406 -4.16015625 7.06640625 C-4.16539307 5.94049072 -4.17062988 4.8145752 -4.17602539 3.65454102 C-4.01128933 -0.10675524 -3.82451626 0.07805135 0 0 Z " fill="#15273A" transform="translate(194.0625,359.9375)"/>
<path d="M0 0 C0.33 0 0.66 0 1 0 C1.02726927 2.35424675 1.04696719 4.70816962 1.0625 7.0625 C1.07410156 8.37347656 1.08570313 9.68445313 1.09765625 11.03515625 C1.00452335 14.8163519 0.61448726 18.27920707 0 22 C-0.33 22 -0.66 22 -1 22 C-1.89635331 14.16296501 -2.19386419 7.61399923 0 0 Z " fill="#443D47" transform="translate(164,344)"/>
<path d="M0 0 C4.52873901 0.53279282 7.57649071 1.97457318 11 5 C11.5625 8.5625 11.5625 8.5625 11 12 C10.01 12.99 9.02 13.98 8 15 C8.33 12.03 8.66 9.06 9 6 C8.2575 5.7525 7.515 5.505 6.75 5.25 C3.79875938 3.90852699 2.15185026 2.39094474 0 0 Z " fill="#212B3D" transform="translate(387,290)"/>
<path d="M0 0 C0.66 0 1.32 0 2 0 C2.45890625 0.88042969 2.9178125 1.76085937 3.390625 2.66796875 C4.00421875 3.82941406 4.6178125 4.99085938 5.25 6.1875 C5.85328125 7.33605469 6.4565625 8.48460937 7.078125 9.66796875 C8.88561849 13.02481679 8.88561849 13.02481679 11.296875 15.73828125 C11.85890625 16.48464844 12.4209375 17.23101562 13 18 C12.67 18.99 12.34 19.98 12 21 C0 4.4351585 0 4.4351585 0 0 Z " fill="#5AB3B2" transform="translate(117,331)"/>
<path d="M0 0 C3.60686535 1.56017897 6.21200604 3.75765318 9.125 6.375 C9.99382812 7.14585937 10.86265625 7.91671875 11.7578125 8.7109375 C13.78336688 10.77883797 14.92192633 12.34721199 16 15 C4.52173913 6.66604995 4.52173913 6.66604995 0 2 C0 1.34 0 0.68 0 0 Z " fill="#222933" transform="translate(366,122)"/>
<path d="M0 0 C3.05675241 4.58512862 3.11219208 7.77106324 3.0625 13.1875 C3.05347656 14.45980469 3.04445313 15.73210937 3.03515625 17.04296875 C3.02355469 18.01878906 3.01195312 18.99460938 3 20 C0.64641749 17.64641749 0.72128096 17.07031606 0.5859375 13.8671875 C0.54726563 13.06152344 0.50859375 12.25585938 0.46875 11.42578125 C0.4378125 10.58402344 0.406875 9.74226562 0.375 8.875 C0.33632813 8.02550781 0.29765625 7.17601562 0.2578125 6.30078125 C0.16343506 4.20088316 0.08062414 2.10047109 0 0 Z " fill="#E9745A" transform="translate(398,235)"/>
<path d="M0 0 C0.33 0.66 0.66 1.32 1 2 C1.99 2.33 2.98 2.66 4 3 C3.01 3.495 3.01 3.495 2 4 C2 4.66 2 5.32 2 6 C2.99 6.66 3.98 7.32 5 8 C3.02 8.33 1.04 8.66 -1 9 C-3 6 -3 6 -2.75 3.9375 C-2 2 -2 2 0 0 Z " fill="#343D47" transform="translate(214,434)"/>
<path d="M0 0 C0.99 0 1.98 0 3 0 C3 0.66 3 1.32 3 2 C3.99 1.67 4.98 1.34 6 1 C8.1875 1.4375 8.1875 1.4375 10 2 C10 2.66 10 3.32 10 4 C13.63 4 17.26 4 21 4 C21 4.33 21 4.66 21 5 C13.2723068 5.31806054 7.06075526 5.32270836 0 2 C0 1.34 0 0.68 0 0 Z " fill="#B8AA86" transform="translate(237,314)"/>
<path d="M0 0 C0.66 0.99 1.32 1.98 2 3 C-0.31 5.31 -2.62 7.62 -5 10 C-5.99 9.34 -6.98 8.68 -8 8 C-5.36 5.36 -2.72 2.72 0 0 Z " fill="#353C46" transform="translate(123,131)"/>
<path d="M0 0 C6.30596952 1.10938353 11.37529486 2.93197901 17 6 C17 6.66 17 7.32 17 8 C10.85326729 6.53012914 5.57765673 3.94033413 0 1 C0 0.67 0 0.34 0 0 Z " fill="#E9755C" transform="translate(305,127)"/>
<path d="M0 0 C4.62 1.32 9.24 2.64 14 4 C14 4.33 14 4.66 14 5 C12.39592672 5.02708567 10.7917215 5.04643483 9.1875 5.0625 C7.84751953 5.07990234 7.84751953 5.07990234 6.48046875 5.09765625 C4 5 4 5 1 4 C0.67 2.68 0.34 1.36 0 0 Z " fill="#393E48" transform="translate(281,91)"/>
<path d="M0 0 C2.66666667 1.33333333 5.33333333 2.66666667 8 4 C8 4.66 8 5.32 8 6 C5.6875 7.6875 5.6875 7.6875 3 9 C2.01 8.67 1.02 8.34 0 8 C0.99 7.34 1.98 6.68 3 6 C3 5.34 3 4.68 3 4 C2.01 3.67 1.02 3.34 0 3 C0 2.01 0 1.02 0 0 Z " fill="#71CAC6" transform="translate(180,297)"/>
<path d="M0 0 C5.26170694 1.41167747 8.72171358 3.74850232 13 7 C12.01 7.33 11.02 7.66 10 8 C7.7734375 6.85546875 7.7734375 6.85546875 5.375 5.1875 C4.57835937 4.64480469 3.78171875 4.10210937 2.9609375 3.54296875 C1 2 1 2 0 0 Z " fill="#EA7B63" transform="translate(167,387)"/>
<path d="M0 0 C2 1 2 1 2.8515625 3.28515625 C3.10679688 4.20167969 3.36203125 5.11820312 3.625 6.0625 C3.88539062 6.98160156 4.14578125 7.90070313 4.4140625 8.84765625 C4.60742188 9.55792969 4.80078125 10.26820313 5 11 C4.34 11.66 3.68 12.32 3 13 C-0.42857143 4.57142857 -0.42857143 4.57142857 0 0 Z " fill="#363D47" transform="translate(75,313)"/>
<path d="M0 0 C3.10009769 1.38238352 5.28263873 2.98578859 7.6875 5.375 C8.28949219 5.96023438 8.89148438 6.54546875 9.51171875 7.1484375 C11.10135013 9.12608914 11.5905426 10.5214179 12 13 C10.85872377 11.85872377 9.71776264 10.71713121 8.578125 9.57421875 C7.42694314 8.42588635 6.26987213 7.28344889 5.109375 6.14453125 C4.47515625 5.51933594 3.8409375 4.89414062 3.1875 4.25 C2.58292969 3.65703125 1.97835938 3.0640625 1.35546875 2.453125 C0 1 0 1 0 0 Z " fill="#70CBC6" transform="translate(327,310)"/>
<path d="M0 0 C0.33 0 0.66 0 1 0 C1 4.62 1 9.24 1 14 C0.67 14 0.34 14 0 14 C-0.33 12.35 -0.66 10.7 -1 9 C-1.99 9.495 -1.99 9.495 -3 10 C-2.39009109 6.44219804 -1.4216319 3.3171411 0 0 Z " fill="#EE9173" transform="translate(315,240)"/>
<path d="M0 0 C0.99 0 1.98 0 3 0 C3.6875 2.3125 3.6875 2.3125 4 5 C2.5625 6.8125 2.5625 6.8125 1 8 C0.34 5.69 -0.32 3.38 -1 1 C-0.67 0.67 -0.34 0.34 0 0 Z " fill="#313944" transform="translate(375,393)"/>
<path d="M0 0 C0.33 0 0.66 0 1 0 C1.13277344 0.67546875 1.26554688 1.3509375 1.40234375 2.046875 C1.57894531 2.93890625 1.75554687 3.8309375 1.9375 4.75 C2.11152344 5.63171875 2.28554687 6.5134375 2.46484375 7.421875 C2.92368488 9.63235053 3.43336074 11.81512068 4 14 C3.01 14.495 3.01 14.495 2 15 C-0.08989546 9.68670645 -1.6112798 5.71271928 0 0 Z " fill="#383C45" transform="translate(217,246)"/>
<path d="M0 0 C2.40034102 3.60051153 4.32187705 6.96144535 3.625 11.375 C3.41875 11.91125 3.2125 12.4475 3 13 C3 12.01 3 11.02 3 10 C2.34 10 1.68 10 1 10 C-1.125 3.375 -1.125 3.375 0 0 Z " fill="#2C404C" transform="translate(343,332)"/>
<path d="M0 0 C4.5076467 0.53031138 7.41954788 2.25221116 11 5 C11 5.66 11 6.32 11 7 C6.89188572 5.55007731 3.53144334 3.54592427 0 1 C0 0.67 0 0.34 0 0 Z " fill="#6EC4C0" transform="translate(383,299)"/>
<path d="M0 0 C-1.6209213 1.17232685 -3.24686833 2.3377077 -4.875 3.5 C-5.77992188 4.1496875 -6.68484375 4.799375 -7.6171875 5.46875 C-10 7 -10 7 -12 7 C-10.84625061 3.53875184 -10.12298029 3.11687417 -7.125 1.25 C-6.42632812 0.80140625 -5.72765625 0.3528125 -5.0078125 -0.109375 C-3 -1 -3 -1 0 0 Z " fill="#EA755D" transform="translate(173,140)"/>
<path d="M0 0 C0 2.64 0 5.28 0 8 C-0.309375 7.360625 -0.61875 6.72125 -0.9375 6.0625 C-1.8345163 4.06389179 -1.8345163 4.06389179 -3 3 C-5.00720923 3.28674418 -7.0085944 3.61866701 -9 4 C-6.31059578 0.90718514 -4.07621501 0 0 0 Z " fill="#F7DFA7" transform="translate(270,286)"/>
<path d="M0 0 C1.32940404 3.98821211 0.43803613 6.11730245 -1 10 C-1.99 10.33 -2.98 10.66 -4 11 C-3.56179109 6.44262737 -3.14958831 3.42346555 0 0 Z " fill="#393E47" transform="translate(80,198)"/>
<path d="M0 0 C5.875 0.875 5.875 0.875 7 2 C7.04063832 3.66617115 7.042721 5.33388095 7 7 C6.34 7 5.68 7 5 7 C4.67 5.68 4.34 4.36 4 3 C2.35 3 0.7 3 -1 3 C-0.67 2.01 -0.34 1.02 0 0 Z " fill="#171E29" transform="translate(87,183)"/>
<path d="M0 0 C0.66 0 1.32 0 2 0 C2.625 2.875 2.625 2.875 3 6 C1 8 1 8 -1.625 8.125 C-2.40875 8.08375 -3.1925 8.0425 -4 8 C-2.68 7.67 -1.36 7.34 0 7 C0 4.69 0 2.38 0 0 Z " fill="#262C37" transform="translate(398,154)"/>
<path d="M0 0 C4.30840713 1.07710178 7.63576723 2.03947516 11 5 C5.76824163 5.38281159 2.62197306 4.21854707 -2 2 C-1.34 1.34 -0.68 0.68 0 0 Z " fill="#3C414A" transform="translate(183,432)"/>
<path d="M0 0 C0.33 0.99 0.66 1.98 1 3 C-0.65 4.32 -2.3 5.64 -4 7 C-4.99 6.34 -5.98 5.68 -7 5 C-4.69 3.35 -2.38 1.7 0 0 Z " fill="#333A45" transform="translate(355,404)"/>
<path d="M0 0 C1.27310312 0.93441535 2.543388 1.87267111 3.8125 2.8125 C4.52019531 3.33457031 5.22789062 3.85664063 5.95703125 4.39453125 C7.78531393 5.83128877 9.39896688 7.31815763 11 9 C6.32197941 8.72482232 4.25361247 6.66806114 1.13671875 3.47265625 C0 2 0 2 0 0 Z " fill="#242A33" transform="translate(133,401)"/>
<path d="M0 0 C0.99 0.33 1.98 0.66 3 1 C1.63875 2.11375 1.63875 2.11375 0.25 3.25 C-2.3069423 5.37674584 -4.69110193 7.60229816 -7 10 C-6.42424336 6.64749299 -5.40693737 5.06181371 -2.9375 2.75 C-2.38964844 2.22921875 -1.84179688 1.7084375 -1.27734375 1.171875 C-0.64505859 0.59179688 -0.64505859 0.59179688 0 0 Z " fill="#1F2534" transform="translate(174,312)"/>
<path d="M0 0 C2.31 1.98 4.62 3.96 7 6 C6.67 7.65 6.34 9.3 6 11 C5.67 11 5.34 11 5 11 C5 9.35 5 7.7 5 6 C4.360625 5.7525 3.72125 5.505 3.0625 5.25 C1 4 1 4 0 0 Z " fill="#202637" transform="translate(273,295)"/>
<path d="M0 0 C2.86724686 0.57344937 3.8614515 0.8614515 6 3 C2.52674819 4.1577506 -0.36067448 4.06866652 -4 4 C-2.68 3.34 -1.36 2.68 0 2 C0 1.34 0 0.68 0 0 Z " fill="#414853" transform="translate(288,441)"/>
<path d="M0 0 C0 0.66 0 1.32 0 2 C2.64 2.33 5.28 2.66 8 3 C4.46905698 4.20220203 1.87101018 3.79532349 -1.75 3.0625 C-2.73484375 2.86785156 -3.7196875 2.67320312 -4.734375 2.47265625 C-5.48203125 2.31667969 -6.2296875 2.16070312 -7 2 C-7 1.67 -7 1.34 -7 1 C-2.25 0 -2.25 0 0 0 Z " fill="#F0A796" transform="translate(229,410)"/>
<path d="M0 0 C0.33 0 0.66 0 1 0 C1 2.64 1 5.28 1 8 C-2.36720387 6.60667426 -3.9859524 5.0210714 -6 2 C-3.525 2.99 -3.525 2.99 -1 4 C-0.67 2.68 -0.34 1.36 0 0 Z " fill="#1E2835" transform="translate(160,375)"/>
<path d="M0 0 C1.46726798 3.81489674 0.43336419 6.29011622 -1 10 C-1.99 10 -2.98 10 -4 10 C-2.99806563 6.20696275 -2.18975773 3.28463659 0 0 Z " fill="#D4836A" transform="translate(171,331)"/>
<path d="M0 0 C4.455 0.99 4.455 0.99 9 2 C5 3 5 3 1 3 C0.67 3.66 0.34 4.32 0 5 C-0.66 5 -1.32 5 -2 5 C-1.34 3.35 -0.68 1.7 0 0 Z " fill="#1F2634" transform="translate(365,290)"/>
<path d="M0 0 C2.51699845 2.51699845 3.10964078 4.57554146 4 8 C3.625 10.375 3.625 10.375 3 12 C3 11.01 3 10.02 3 9 C2.34 9 1.68 9 1 9 C-1.125 2.25 -1.125 2.25 0 0 Z " fill="#3B3944" transform="translate(314,260)"/>
<path d="M0 0 C0.33 0 0.66 0 1 0 C1.17835515 4.54805635 0.99785435 7.8794254 -1 12 C-1.33 12 -1.66 12 -2 12 C-1.85831863 10.56208484 -1.71148957 9.1246763 -1.5625 7.6875 C-1.48128906 6.88699219 -1.40007812 6.08648437 -1.31640625 5.26171875 C-1 3 -1 3 0 0 Z " fill="#ED8B75" transform="translate(109,213)"/>
<path d="M0 0 C2.95929119 2.75520215 5.03681826 5.46627288 7 9 C6.01 9 5.02 9 4 9 C3.896875 8.360625 3.79375 7.72125 3.6875 7.0625 C3.460625 6.381875 3.23375 5.70125 3 5 C2.01 4.67 1.02 4.34 0 4 C0 2.68 0 1.36 0 0 Z " fill="#D8C69B" transform="translate(268,199)"/>
<path d="M0 0 C0.66 0 1.32 0 2 0 C6.57142857 7.28571429 6.57142857 7.28571429 6 12 C0 3 0 3 0 0 Z " fill="#E1896F" transform="translate(375,201)"/>
<path d="M0 0 C3.99500618 1.3697164 6.80009492 3.25722422 10 6 C9.67 6.99 9.34 7.98 9 9 C9 8.34 9 7.68 9 7 C8.443125 6.773125 7.88625 6.54625 7.3125 6.3125 C4.36753316 4.64103234 2.31843456 2.44723648 0 0 Z " fill="#1C283A" transform="translate(179,190)"/>
<path d="M0 0 C4.12751449 0.60698743 7.3321148 2.03810791 11 4 C10.67 4.66 10.34 5.32 10 6 C6.7 4.35 3.4 2.7 0 1 C0 0.67 0 0.34 0 0 Z " fill="#1E242F" transform="translate(174,420)"/>
<path d="M0 0 C0.66 0.33 1.32 0.66 2 1 C0.94124926 4.40312738 -0.00902154 7.01353231 -2 10 C-2.66 10 -3.32 10 -4 10 C-2.66666667 6.66666667 -1.33333333 3.33333333 0 0 Z " fill="#E4D3A4" transform="translate(282,254)"/>
<path d="M0 0 C0.66 0.33 1.32 0.66 2 1 C0.35 4.3 -1.3 7.6 -3 11 C-3.66 10.01 -4.32 9.02 -5 8 C-4.34 8 -3.68 8 -3 8 C-2.87625 7.05125 -2.7525 6.1025 -2.625 5.125 C-2 2 -2 2 0 0 Z " fill="#D4836B" transform="translate(200,165)"/>
<path d="M0 0 C0 0.99 0 1.98 0 3 C-2.31 3 -4.62 3 -7 3 C-6.67 2.01 -6.34 1.02 -6 0 C-3.50907189 -1.24546405 -2.58919267 -0.7767578 0 0 Z " fill="#383C44" transform="translate(81,305)"/>
<path d="M0 0 C0.598125 0.226875 1.19625 0.45375 1.8125 0.6875 C0.8225 0.6875 -0.1675 0.6875 -1.1875 0.6875 C-1.5175 1.6775 -1.8475 2.6675 -2.1875 3.6875 C-2.8475 3.6875 -3.5075 3.6875 -4.1875 3.6875 C-4.1875 5.9975 -4.1875 8.3075 -4.1875 10.6875 C-4.5175 10.6875 -4.8475 10.6875 -5.1875 10.6875 C-5.55141205 3.28795489 -5.55141205 3.28795489 -3.9375 0.625 C-2.1875 -0.3125 -2.1875 -0.3125 0 0 Z " fill="#42474E" transform="translate(430.1875,261.3125)"/>
<path d="M0 0 C5.78461538 4.30769231 5.78461538 4.30769231 6.875 7.8125 C6.936875 8.8953125 6.936875 8.8953125 7 10 C4.4000702 7.48972295 2.00908773 5.0136316 0 2 C0 1.34 0 0.68 0 0 Z " fill="#EA7960" transform="translate(368,171)"/>
<path d="M0 0 C0.99 0.33 1.98 0.66 3 1 C1.37660195 2.70884005 -0.29319053 4.37446717 -2 6 C-2.66 6 -3.32 6 -4 6 C-3.6875 4.125 -3.6875 4.125 -3 2 C-2.01 1.34 -1.02 0.68 0 0 Z " fill="#E97C65" transform="translate(151,153)"/>
<path d="M0 0 C0.268125 0.639375 0.53625 1.27875 0.8125 1.9375 C1.88667752 4.33131686 1.88667752 4.33131686 5 5 C5 5.99 5 6.98 5 8 C3.35 7.67 1.7 7.34 0 7 C0 4.69 0 2.38 0 0 Z " fill="#2F3945" transform="translate(153,110)"/>
<path d="M0 0 C3.36591866 1.44253657 5.51047079 3.33264727 8 6 C5.21788056 5.62403791 3.4120716 5.32681541 1.1875 3.5625 C0 2 0 2 0 0 Z " fill="#6CC3C0" transform="translate(331,295)"/>
<path d="M0 0 C0.33 0 0.66 0 1 0 C1.36923077 5.41538462 1.36923077 5.41538462 -0.5 8.375 C-0.995 8.91125 -1.49 9.4475 -2 10 C-3 7 -3 7 -2 4 C-1.34 4 -0.68 4 0 4 C0 2.68 0 1.36 0 0 Z " fill="#CFA876" transform="translate(366,249)"/>
<path d="M0 0 C4.1424367 1.38081223 5.32203099 3.59825558 8 7 C7.67 7.66 7.34 8.32 7 9 C5.82737096 7.88121617 4.66204862 6.75476949 3.5 5.625 C2.8503125 4.99851563 2.200625 4.37203125 1.53125 3.7265625 C0 2 0 2 0 0 Z " fill="#1A212B" transform="translate(381,147)"/>
<path d="M0 0 C3.93673644 1.31224548 6.22719294 2.91910327 9 6 C4.58763974 6 3.21615077 3.9302707 0 1 C0 0.67 0 0.34 0 0 Z " fill="#E97960" transform="translate(338,144)"/>
<path d="M0 0 C2.6855594 2.6855594 3.06049974 5.37621328 4 9 C3.01 8.67 2.02 8.34 1 8 C-0.35439668 5.29120665 -0.06501451 2.99066732 0 0 Z " fill="#424851" transform="translate(89,325)"/>
<path d="M0 0 C0.66 0 1.32 0 2 0 C2.1875 2.8125 2.1875 2.8125 2 6 C1.01 6.99 0.02 7.98 -1 9 C-0.67 6.03 -0.34 3.06 0 0 Z " fill="#1D2531" transform="translate(396,296)"/>
<path d="M0 0 C0.66 0.33 1.32 0.66 2 1 C-0.52956528 4.0916909 -3.22454612 4.90931332 -7 6 C-2.25 1.125 -2.25 1.125 0 0 Z " fill="#1F2537" transform="translate(273,270)"/>
<path d="M0 0 C0.66 0 1.32 0 2 0 C2.66 1.98 3.32 3.96 4 6 C3.01 6.66 2.02 7.32 1 8 C0.67 5.36 0.34 2.72 0 0 Z " fill="#D5846C" transform="translate(318,260)"/>
<path d="M0 0 C0.33 0 0.66 0 1 0 C1.25 6.625 1.25 6.625 -1 10 C-2.15837626 5.94568308 -1.83691257 3.78187881 0 0 Z " fill="#D2BD93" transform="translate(304,230)"/>
<path d="M0 0 C0.66 0.33 1.32 0.66 2 1 C1.67 1.66 1.34 2.32 1 3 C0.34 3 -0.32 3 -1 3 C-1.28875 3.639375 -1.5775 4.27875 -1.875 4.9375 C-3 7 -3 7 -5 8 C-3.8141763 4.62496331 -2.72426311 2.35277269 0 0 Z " fill="#E97A61" transform="translate(138,166)"/>
<path d="M0 0 C0.99 0 1.98 0 3 0 C3 0.66 3 1.32 3 2 C3.99 2.33 4.98 2.66 6 3 C3.36 3.33 0.72 3.66 -2 4 C-2 3.34 -2 2.68 -2 2 C-1.34 2 -0.68 2 0 2 C0 1.34 0 0.68 0 0 Z " fill="#323B45" transform="translate(200,95)"/>
<path d="M0 0 C2.00720923 0.28674418 4.0085944 0.61866701 6 1 C5.67 1.66 5.34 2.32 5 3 C5.66 3.66 6.32 4.32 7 5 C3.64404172 4.40072174 1.62198774 3.15377564 -1 1 C-0.67 0.67 -0.34 0.34 0 0 Z " fill="#313A45" transform="translate(313,92)"/>
</svg>
